{"glyphs":{"0":{"ha":674,"x_min":-1,"x_max":688,"o":"m 149 475 q 362 635 247 590 q 553 646 476 679 q 629 522 629 613 q 665 521 639 524 q 630 315 688 447 q 464 72 572 183 q 249 -49 356 -39 q 60 22 121 -58 q 23 231 -1 103 q 149 475 47 358 m 271 510 q 188 326 204 432 q 217 151 172 221 q 353 96 261 81 q 493 231 417 108 q 569 464 569 353 q 511 431 536 442 q 463 530 503 493 q 368 563 422 567 q 271 510 314 558 z "},"1":{"ha":472,"x_min":56,"x_max":478,"o":"m 307 661 q 415 690 363 689 q 478 663 468 690 q 313 271 389 486 q 226 -54 236 56 q 124 -81 189 -90 q 233 497 160 276 q 99 350 175 419 q 67 389 79 360 q 57 456 56 418 q 269 590 144 479 q 307 661 290 633 z "},"2":{"ha":622,"x_min":-132,"x_max":642,"o":"m 181 50 q 341 67 235 50 q 482 78 447 83 q 454 -6 481 43 q 392 -81 428 -56 q 74 -28 210 -10 q -101 -67 -49 -87 q -107 -26 -131 -56 q -49 15 -85 0 q 6 33 -14 31 q 69 40 26 36 q 382 305 272 167 q 440 501 492 443 q 372 519 414 525 q 267 465 331 514 q 138 333 204 417 q 90 460 61 368 q 248 593 167 539 q 397 669 329 647 q 519 685 464 692 q 600 642 574 679 q 596 478 642 583 q 438 256 550 372 q 181 50 325 139 z "},"3":{"ha":642,"x_min":-21,"x_max":685,"o":"m 196 681 q 540 639 413 635 q 640 681 594 675 q 683 665 683 686 q 631 617 682 640 q 544 594 593 600 q 519 592 524 590 q 435 510 490 565 q 351 431 379 456 q 563 333 558 461 q 491 147 564 246 q 311 -16 418 47 q 117 -68 204 -79 q 33 -35 65 -61 q -10 27 0 -8 q -20 96 -21 63 q -10 157 -19 129 q 78 215 26 190 q 154 240 131 240 q 116 100 117 158 q 139 18 115 42 q 199 -4 163 -6 q 323 76 258 -1 q 389 265 388 154 q 363 335 390 307 q 294 376 336 364 q 261 354 265 356 q 174 339 194 321 q 193 378 156 353 q 258 407 218 394 l 282 414 q 465 583 431 557 q 374 568 432 578 q 281 553 315 558 q 207 542 246 547 q 147 539 168 538 q 196 681 144 604 z "},"4":{"ha":657,"x_min":-68,"x_max":711,"o":"m 426 626 q 306 428 393 575 q 169 219 218 282 q 343 219 264 229 q 546 701 442 563 q 653 719 601 725 q 711 681 706 713 q 460 200 563 440 q 551 165 511 185 q 494 85 543 126 l 424 110 q 372 -57 385 7 q 269 -74 333 -89 q 318 133 297 54 q 111 154 213 154 q -4 74 51 94 q -60 86 -53 57 q -10 160 -67 118 q 42 189 13 175 q 133 380 94 278 q 182 526 172 482 q 319 613 244 588 q 426 626 394 638 z "},"5":{"ha":619,"x_min":-19,"x_max":629,"o":"m 592 679 q 608 557 629 642 q 435 531 532 531 q 240 549 339 531 q 221 404 249 483 q 326 425 250 413 q 554 347 522 458 q 494 133 579 260 q 290 -46 410 7 q 214 -69 251 -64 q 32 -17 83 -90 q 10 181 -19 56 q 149 242 90 251 q 135 208 142 225 q 122 163 129 190 q 111 113 114 136 q 112 67 108 90 q 128 27 115 43 q 166 3 140 11 q 231 -1 192 -6 q 308 26 271 3 q 367 83 344 50 q 405 156 390 117 q 413 232 419 194 q 387 299 407 269 q 318 343 367 328 q 201 353 269 358 q 135 313 175 304 q 108 346 107 321 q 178 393 110 368 q 164 565 179 451 l 144 576 q 117 636 100 608 q 172 644 133 661 q 197 629 185 639 q 219 604 200 626 q 592 679 406 625 z "},"6":{"ha":597,"x_min":-32,"x_max":593,"o":"m 547 547 q 479 551 526 556 q 383 534 432 546 q 278 479 335 522 q 181 369 221 436 q 290 418 235 394 q 533 404 476 486 q 514 213 579 336 q 374 42 465 121 q 181 -49 282 -39 q 24 -2 79 -58 q -7 147 -32 54 q 38 272 10 211 q 114 400 67 333 q 222 522 161 467 q 372 629 283 578 q 564 714 460 681 q 547 547 593 614 m 135 261 q 141 69 96 140 q 261 22 186 -1 q 354 143 319 42 q 361 317 392 250 q 281 360 338 368 q 135 261 190 344 z "},"7":{"ha":543,"x_min":-11,"x_max":721,"o":"m 550 643 q 692 674 647 697 q 693 628 719 658 q 568 575 660 590 q 322 277 458 472 q 129 -57 186 82 q 45 -45 88 -67 q -11 18 3 -24 q 190 263 26 88 q 507 567 353 439 q 260 558 382 553 q 83 582 138 563 q 142 660 104 619 q 208 719 179 701 q 550 643 386 632 z "},"8":{"ha":639,"x_min":-36,"x_max":618,"o":"m 436 681 q 618 636 553 688 q 563 551 592 575 q 583 547 574 550 l 586 547 q 538 488 565 510 q 463 440 511 465 q 555 408 518 431 q 605 348 592 386 q 603 262 618 310 q 538 150 589 214 q 399 14 486 86 q 122 -108 254 -106 q -14 -32 15 -110 q 0 118 -36 28 q 207 350 58 260 q 164 414 172 374 q 175 498 156 454 q 231 583 194 542 q 322 651 267 624 q 436 681 376 678 m 251 328 q 124 149 140 256 q 168 19 110 61 q 282 4 213 -14 q 381 53 335 19 q 447 130 426 88 q 465 213 468 172 q 413 287 461 254 q 276 329 365 319 q 257 333 271 329 l 251 328 m 392 450 q 533 544 490 504 q 453 625 533 606 q 328 590 376 642 q 311 500 285 546 q 392 450 333 465 m 586 547 z "},"9":{"ha":583,"x_min":18,"x_max":590,"o":"m 133 7 q 263 107 193 39 q 394 267 333 175 q 308 225 325 231 q 65 239 121 157 q 83 431 18 307 q 224 601 132 522 q 363 680 293 661 q 483 678 433 699 q 562 606 533 658 q 582 483 590 554 q 464 177 565 326 q 233 -74 363 28 q 133 7 139 -65 m 317 283 q 435 346 379 290 q 463 501 469 435 q 420 602 457 568 q 336 619 383 636 q 243 501 278 600 q 236 328 207 396 q 317 283 258 275 z "}," ":{"ha":414,"x_min":0,"x_max":0,"o":""},"!":{"ha":303,"x_min":-61,"x_max":371,"o":"m 76 222 q 150 125 131 174 q 33 14 89 89 q -61 85 -32 43 q 76 222 -15 169 m 79 317 q 197 928 64 583 q 289 935 239 944 q 371 897 339 925 q 226 633 303 797 q 119 335 149 469 q 79 317 99 318 z "},"\"":{"ha":499,"x_min":65,"x_max":490,"o":"m 490 850 q 403 703 444 801 q 364 532 363 604 q 290 522 338 514 q 275 588 282 546 q 269 703 268 629 q 285 849 269 778 q 199 703 240 803 q 161 532 158 604 q 88 522 135 514 q 72 585 79 544 q 65 697 65 625 q 79 839 65 769 q 290 844 196 922 q 490 850 399 918 z "},"#":{"ha":758,"x_min":-31,"x_max":760,"o":"m 640 554 q 633 522 638 543 q 628 496 629 501 q 753 478 704 489 q 729 390 760 431 q 604 404 689 397 q 528 171 576 306 q 642 154 581 168 q 619 68 650 108 q 489 82 579 74 q 438 -21 463 22 q 354 -21 382 -40 q 401 83 400 79 q 221 81 356 86 q 171 -21 197 25 q 88 -21 115 -40 q 125 68 113 32 q -19 39 47 60 q 74 164 -31 107 q 167 172 165 172 q 236 392 197 254 q 90 364 161 382 q 113 431 86 397 q 183 488 140 464 l 254 496 q 268 613 265 550 q 374 554 344 643 l 361 503 q 524 503 447 506 q 535 613 533 568 q 640 554 614 643 m 264 179 q 438 179 356 182 q 506 408 482 310 q 335 401 408 408 q 264 179 306 299 z "},"$":{"ha":883,"x_min":-74,"x_max":911,"o":"m 708 793 q 788 802 763 808 q 819 774 814 796 q 746 683 782 729 q 911 642 829 675 q 853 583 894 615 q 772 536 811 550 q 696 615 751 590 q 568 407 624 511 q 619 388 583 401 q 672 367 654 375 q 720 346 690 360 q 765 321 750 332 q 799 292 781 310 q 822 258 817 275 q 826 216 826 240 q 815 165 826 192 q 619 -63 758 29 q 317 -189 481 -156 q 300 -271 304 -232 q 228 -287 247 -308 q 249 -199 235 -239 q 7 -162 88 -215 q -21 6 -74 -110 q 138 138 24 100 q 360 142 251 175 q 433 303 425 285 q 369 333 394 319 q 318 366 343 346 q 282 408 293 386 q 271 460 271 429 q 286 526 271 490 q 416 640 318 596 q 640 689 514 685 l 708 793 m 146 6 q 170 -53 131 -33 q 281 -74 210 -74 q 304 -8 289 -53 q 329 61 319 38 q 217 60 275 76 q 146 6 160 44 m 353 -67 q 421 -54 367 -68 q 390 28 424 6 q 368 -24 379 10 q 353 -67 357 -58 m 422 114 q 507 -26 499 64 q 640 67 599 10 q 668 129 665 100 q 660 178 671 158 q 620 219 650 199 q 565 250 590 239 q 499 278 540 261 l 422 114 m 433 519 q 499 438 432 469 q 610 636 554 543 q 488 608 540 639 q 433 519 435 576 z "},"%":{"ha":799,"x_min":1,"x_max":842,"o":"m 744 663 q 818 632 794 654 q 842 586 842 610 q 564 374 725 514 q 692 281 692 388 l 717 281 q 690 136 731 228 q 574 -33 650 44 q 425 -115 499 -110 q 291 -60 331 -122 q 275 100 251 1 q 72 -129 150 -28 q 1 -106 15 -140 q 213 169 83 22 q 89 223 128 167 q 68 367 50 279 q 157 536 86 454 q 308 648 226 617 q 441 656 389 679 q 492 568 493 632 l 518 568 q 506 467 526 532 q 744 663 658 604 m 238 565 q 176 431 188 508 q 200 303 165 354 q 303 267 235 253 q 408 374 372 340 q 458 538 458 464 q 415 513 425 517 q 378 583 408 557 q 308 605 347 608 q 238 565 269 601 m 407 231 q 376 108 378 168 q 407 8 374 47 q 499 -21 440 -32 q 603 79 547 -12 q 658 253 660 171 q 615 226 628 232 q 572 300 607 274 q 497 315 538 326 l 407 231 z "},"&":{"ha":1240,"x_min":-299,"x_max":1307,"o":"m 1285 510 q 1294 401 1307 457 q 1250 306 1282 346 q 803 279 1022 258 q 708 131 768 203 q 1108 86 915 61 q 1072 -26 1103 33 q 981 -128 1042 -86 q 608 28 831 -118 q 359 -135 493 -74 q 108 -199 225 -196 q -83 -132 -8 -201 q 275 379 -299 88 q 322 665 215 544 q 632 775 428 785 q 792 689 768 769 q 732 532 813 615 q 543 422 661 460 q 397 363 454 390 q 428 311 403 339 q 642 157 499 219 q 738 288 694 217 q 654 313 672 303 q 707 393 668 360 q 994 407 806 361 q 1285 510 1182 453 m 138 -8 q 328 -40 218 -62 q 547 69 438 -18 q 374 222 442 149 q 303 315 331 269 q 156 203 211 261 q 89 90 100 146 q 138 -8 78 33 m 374 426 q 464 469 453 463 q 592 583 563 522 q 540 663 621 647 q 418 599 479 675 q 374 426 357 524 z "},"'":{"ha":294,"x_min":64,"x_max":286,"o":"m 286 849 q 199 702 240 800 q 161 532 158 604 q 88 522 135 514 q 72 585 79 544 q 64 697 64 625 q 79 839 64 769 q 286 849 192 919 z "},"(":{"ha":571,"x_min":69,"x_max":725,"o":"m 471 -231 q 368 -282 429 -279 q 112 65 154 -115 q 210 445 69 246 q 679 847 351 644 q 725 801 710 846 q 558 651 638 736 q 416 472 479 567 q 318 278 353 378 q 281 85 283 178 q 326 -90 278 -7 q 471 -231 374 -174 z "},")":{"ha":572,"x_min":-153,"x_max":503,"o":"m 101 794 q 204 847 142 844 q 460 499 418 681 q 362 119 503 318 q -107 -282 221 -79 q -153 -237 -137 -281 q 47 -51 -47 -158 q 203 178 140 56 q 289 415 267 300 q 265 633 311 531 q 101 794 219 735 z "},"*":{"ha":735,"x_min":18,"x_max":717,"o":"m 361 622 q 364 516 351 578 q 407 410 376 454 q 582 668 475 553 q 717 554 703 681 q 607 493 674 540 q 488 390 540 446 q 686 367 597 386 q 663 281 694 322 q 446 297 578 294 q 575 158 531 235 q 394 60 522 63 q 391 167 404 103 q 347 274 378 231 q 175 21 285 139 q 40 136 54 8 q 148 194 83 149 q 263 292 213 239 q 24 253 129 283 q 45 319 18 286 q 117 376 72 353 q 301 392 242 390 q 181 522 229 442 q 361 622 233 619 z "},"+":{"ha":811,"x_min":51,"x_max":728,"o":"m 536 554 q 479 338 510 429 q 719 313 621 336 q 696 226 728 267 q 450 243 589 243 q 333 -21 393 83 q 251 -21 279 -42 q 354 242 310 107 q 57 199 179 232 q 79 265 51 232 q 150 322 107 299 q 385 339 268 336 q 431 613 429 496 q 536 554 510 643 z "},",":{"ha":292,"x_min":7,"x_max":265,"o":"m 188 222 q 265 118 246 169 q 22 -108 206 -4 q 7 -81 7 -93 q 118 26 78 -31 q 50 85 69 56 q 188 222 96 169 z "},"-":{"ha":736,"x_min":93,"x_max":617,"o":"m 188 356 q 433 376 319 381 q 617 342 547 371 q 582 213 615 269 q 447 236 524 231 q 273 228 371 242 q 93 178 175 214 q 188 356 97 274 z "},".":{"ha":293,"x_min":36,"x_max":247,"o":"m 172 222 q 247 125 225 175 q 129 14 188 90 q 36 85 63 44 q 172 222 78 167 z "},"/":{"ha":697,"x_min":-193,"x_max":960,"o":"m 860 865 q 938 841 917 865 q 951 785 960 817 q 534 464 763 674 q 133 53 306 254 q -114 -279 -39 -147 q -193 -264 -185 -307 q 85 113 -78 -82 q 403 457 249 307 q 673 710 557 607 q 860 865 789 813 z "},":":{"ha":293,"x_min":-7,"x_max":289,"o":"m 131 222 q 206 125 183 175 q 145 78 179 111 q 88 14 111 46 q -7 85 22 43 q 131 222 38 168 m 76 393 q 213 529 118 475 q 289 432 268 479 q 169 321 231 400 q 76 393 104 350 z "},";":{"ha":293,"x_min":-35,"x_max":304,"o":"m 146 222 q 224 118 203 174 q -19 -108 165 -4 q -35 -81 -33 -94 q 78 25 21 -42 q 10 85 25 58 q 146 222 56 169 m 92 392 q 229 529 136 475 q 304 432 282 482 q 244 385 278 418 q 186 321 210 353 q 92 392 121 350 z "},"<":{"ha":567,"x_min":46,"x_max":568,"o":"m 319 -21 q 225 129 317 36 q 46 269 133 222 q 211 415 78 314 q 458 563 344 515 q 535 533 515 553 q 568 461 556 513 q 392 399 497 460 q 208 265 286 339 q 461 46 308 204 q 415 5 443 18 q 319 -21 386 -8 z "},"=":{"ha":846,"x_min":39,"x_max":771,"o":"m 138 267 q 460 283 308 286 q 707 257 613 279 q 683 171 715 211 q 503 188 606 183 q 273 181 400 192 q 44 143 146 171 q 67 210 39 176 q 138 267 94 243 m 100 351 q 122 418 94 385 q 193 475 150 451 q 516 491 364 494 q 763 465 668 488 q 739 379 771 419 q 558 396 661 392 q 328 390 456 400 q 100 351 201 379 z "},">":{"ha":568,"x_min":-1,"x_max":522,"o":"m 249 558 q 343 409 251 501 q 522 268 435 317 q 357 122 490 222 q 110 -25 224 22 q 32 5 53 -15 q -1 76 11 25 q 175 139 69 78 q 358 272 281 200 q 106 492 250 342 q 153 533 125 519 q 249 558 182 546 z "},"?":{"ha":556,"x_min":19,"x_max":626,"o":"m 156 222 q 231 125 211 172 q 113 14 167 88 q 19 86 49 42 q 156 222 61 168 m 85 626 q 238 857 93 753 q 485 957 361 946 q 622 889 603 965 q 625 865 625 878 q 603 754 626 806 q 540 666 579 703 q 453 597 501 629 q 358 535 406 565 q 272 475 311 506 q 210 404 233 444 q 188 318 186 364 q 140 314 160 307 q 156 424 128 375 q 232 509 183 474 q 331 578 281 544 q 419 662 381 613 q 458 771 457 711 q 396 867 460 857 q 279 821 338 876 q 225 678 218 761 q 85 626 150 626 z "},"@":{"ha":1072,"x_min":-81,"x_max":1021,"o":"m 619 757 q 915 694 808 767 q 1015 496 1021 621 q 984 353 1013 425 q 911 225 956 281 q 813 120 867 169 q 705 45 758 71 q 605 9 651 19 q 529 19 558 -1 q 513 70 514 29 q 517 156 511 111 q 413 63 464 94 q 324 31 361 32 q 258 53 286 31 q 220 113 231 75 q 219 203 210 151 q 258 310 228 256 q 465 521 339 451 q 688 567 590 590 q 622 476 678 517 q 456 440 532 485 q 346 313 379 396 q 338 249 335 281 q 360 196 340 218 q 403 161 379 174 q 460 155 428 149 q 524 186 493 161 q 574 333 539 263 q 654 439 610 403 q 706 451 707 482 q 653 342 703 424 q 660 199 643 254 q 750 154 681 133 q 874 261 821 175 q 922 453 928 349 q 826 631 915 563 q 594 699 738 699 q 250 539 413 699 q 67 232 111 401 q 119 -44 19 50 q 385 -115 206 -126 q 546 -87 469 -111 q 539 -129 551 -104 q 376 -154 461 -150 q -1 -6 96 -165 q -11 306 -79 122 q 226 615 56 488 q 619 757 403 746 z "},"A":{"ha":1376,"x_min":-154,"x_max":1424,"o":"m 60 -279 q -74 -255 -8 -290 q -154 -168 -139 -219 q 358 388 -6 56 q 35 350 190 385 q 99 485 32 408 q 450 471 210 510 q 1121 950 849 815 q 1153 897 1149 931 l 1114 874 q 1144 876 1133 876 q 963 407 1007 636 q 999 126 918 178 q 1192 154 1076 78 q 1381 372 1308 231 l 1424 343 q 1318 178 1381 251 q 1190 65 1256 106 q 1059 2 1125 24 q 938 -16 993 -19 q 847 13 883 -12 q 831 322 757 74 q 522 383 707 371 q 228 28 351 204 q 60 -279 104 -147 m 583 446 q 849 383 692 424 q 1057 839 915 579 q 583 446 821 683 z "},"B":{"ha":1394,"x_min":79,"x_max":1333,"o":"m 633 -168 q 444 -160 540 -178 q 265 -102 349 -143 q 131 16 182 -61 q 82 194 79 93 q 156 221 111 213 q 243 219 201 229 q 249 70 224 140 q 339 -47 275 0 q 503 -110 403 -93 q 732 -99 603 -126 q 914 -28 843 -75 q 1008 72 985 18 q 1024 183 1031 126 q 984 288 1018 239 q 899 367 950 336 q 640 365 771 346 q 510 -14 539 176 q 424 6 471 -19 q 367 65 376 32 q 433 222 381 129 q 544 403 485 315 q 676 625 604 492 q 792 885 747 758 q 861 882 817 889 q 928 864 906 875 q 873 735 913 804 q 767 570 833 667 q 664 408 701 474 q 829 402 751 394 q 966 440 907 410 q 1069 512 1025 471 q 1135 605 1114 553 q 1158 708 1157 657 q 1135 810 1160 760 q 1060 900 1110 861 q 279 701 813 1093 q 201 824 206 733 q 347 888 289 864 q 501 946 406 911 q 674 994 596 981 q 842 1016 751 1008 q 1021 1006 933 1024 q 1188 949 1108 989 q 1301 840 1268 908 q 1317 699 1333 771 q 1242 553 1301 626 q 1092 432 1183 481 q 1187 313 1164 385 q 1179 163 1210 240 q 1081 15 1149 86 q 896 -106 1014 -56 q 633 -168 778 -156 z "},"C":{"ha":1156,"x_min":13,"x_max":1206,"o":"m 226 -60 q 28 297 13 64 q 201 689 40 494 q 554 950 356 875 q 951 925 781 1036 q 1007 854 996 896 q 1003 766 1018 813 q 966 676 988 719 q 923 585 944 632 q 899 508 901 538 q 778 506 856 494 q 678 553 701 518 q 724 621 690 583 q 791 687 758 658 q 854 751 824 715 q 892 812 885 786 q 883 869 900 838 q 780 926 846 918 q 642 907 714 935 q 494 820 569 879 q 363 683 418 761 q 254 452 288 578 q 249 208 221 326 q 372 31 276 90 q 522 -13 435 -7 q 701 7 608 -19 q 883 82 794 33 q 1047 207 972 131 q 1163 372 1121 283 l 1206 344 q 1019 92 1140 201 q 760 -71 897 -17 q 478 -124 622 -125 q 226 -60 335 -124 z "},"D":{"ha":1529,"x_min":79,"x_max":1418,"o":"m 524 -14 q 438 6 485 -19 q 381 65 390 32 q 447 222 394 129 q 558 403 499 315 q 688 625 617 492 q 804 885 760 758 q 874 882 829 889 q 942 864 918 875 q 862 694 924 794 q 736 503 800 594 q 609 272 672 413 q 524 -14 546 131 m 82 194 q 156 221 111 213 q 244 219 201 229 q 250 70 225 140 q 339 -47 275 0 q 503 -110 403 -93 q 732 -99 603 -126 q 943 0 846 -75 q 1102 174 1040 75 q 1197 389 1164 274 q 1225 610 1229 504 q 1174 803 1221 715 q 1043 933 1128 890 q 908 972 981 965 q 763 959 836 979 q 626 915 689 939 q 490 844 564 890 q 376 771 417 799 q 279 701 336 743 q 201 824 206 733 q 347 888 289 864 q 501 946 406 911 q 674 994 596 981 q 842 1016 751 1008 q 1021 1006 933 1024 q 1188 949 1108 989 q 1361 791 1304 890 q 1415 580 1418 692 q 1360 348 1411 468 q 1221 127 1308 228 q 1009 -50 1133 26 q 747 -151 885 -126 q 401 -158 550 -185 q 165 -38 251 -131 q 82 194 79 54 z "},"E":{"ha":1135,"x_min":-28,"x_max":1183,"o":"m 157 -75 q 26 27 71 -33 q -24 149 -19 88 q -4 271 -28 210 q 64 378 19 332 q 167 452 108 424 q 283 479 225 481 q 231 635 235 560 q 262 768 226 711 q 356 872 297 825 q 492 943 415 918 q 647 978 569 968 q 800 974 725 988 q 928 925 875 960 q 994 840 982 889 q 990 749 1006 790 q 951 651 974 707 q 928 563 929 596 q 807 561 883 550 q 707 606 731 572 q 747 667 719 636 q 801 719 775 699 q 851 767 828 740 q 878 816 875 794 q 863 869 881 838 q 776 914 835 907 q 650 894 717 921 q 522 820 583 868 q 419 692 460 772 q 378 518 378 611 q 543 527 479 532 q 635 501 607 522 q 651 446 663 481 q 583 390 640 410 q 451 382 526 369 q 324 443 375 394 q 201 317 238 401 q 195 145 164 233 q 321 8 226 57 q 478 -26 386 -25 q 666 1 569 -28 q 854 79 763 29 q 1022 206 946 129 q 1140 371 1099 282 l 1183 344 q 1039 137 1132 231 q 833 -16 946 43 q 601 -105 721 -75 q 364 -127 481 -135 q 157 -75 247 -119 z "},"F":{"ha":1335,"x_min":117,"x_max":1538,"o":"m 1157 311 q 785 379 1047 358 q 509 51 625 214 q 353 -233 393 -111 q 234 -212 292 -243 q 163 -135 176 -181 q 646 386 303 76 q 117 350 329 397 q 182 485 117 413 q 724 456 308 514 q 1254 846 1024 715 q 747 872 1039 879 q 206 811 456 864 q 308 1004 200 897 q 763 998 468 1036 q 1342 897 1057 960 q 1519 929 1479 921 q 1517 790 1538 847 q 1344 832 1440 815 q 842 436 1107 697 q 1168 378 969 417 q 1157 311 1168 339 z "},"G":{"ha":1074,"x_min":-61,"x_max":1064,"o":"m 347 -644 q 304 -576 308 -608 q 476 -19 378 -261 q 267 -106 364 -86 q 103 -93 171 -126 q -19 213 -61 -7 q 199 624 19 411 q 593 932 381 839 q 1003 925 833 1036 q 1060 831 1056 889 q 1038 722 1064 774 q 983 606 1013 669 q 950 508 953 542 q 829 506 906 494 q 729 553 753 518 q 775 621 742 583 q 842 687 808 658 q 906 751 875 715 q 944 812 936 786 q 933 869 951 838 q 831 926 897 918 q 693 907 765 935 q 545 820 621 879 q 414 683 469 761 q 309 515 356 603 q 231 335 263 426 q 206 168 199 244 q 264 51 213 92 q 365 21 301 22 q 508 56 429 19 q 746 417 621 301 q 900 319 831 400 q 583 -84 758 215 q 347 -644 407 -383 z "},"H":{"ha":1465,"x_min":-171,"x_max":1514,"o":"m 47 -312 q -87 -291 -21 -325 q -171 -206 -153 -257 q 184 54 8 -99 q 492 388 360 207 q 129 350 304 390 q 193 485 126 408 q 547 469 301 510 q 743 964 707 718 q 882 931 807 976 q 661 450 826 728 q 899 396 793 422 q 1294 968 1003 707 q 1388 882 1344 954 q 1192 716 1276 811 q 1065 529 1107 621 q 1008 353 1024 438 q 1007 208 992 269 q 1063 125 1022 147 q 1269 154 1142 76 q 1471 372 1397 232 l 1514 343 q 1406 178 1471 251 q 1271 65 1340 106 q 1132 2 1201 24 q 1005 -16 1063 -19 q 911 13 947 -12 q 858 128 868 42 q 881 339 849 215 q 621 383 764 374 q 47 -312 365 -28 z "},"I":{"ha":729,"x_min":-87,"x_max":778,"o":"m -18 -151 q -80 -35 -72 -106 q -60 113 -87 35 q 17 296 -32 190 q 118 505 65 401 q 218 743 171 608 q 285 1000 265 878 q 463 897 347 982 q 417 745 450 831 q 343 581 383 660 q 256 414 303 501 q 172 256 210 326 q 108 117 135 185 q 78 9 81 49 q 100 -57 76 -31 q 296 -49 165 -110 q 550 132 426 11 q 735 372 674 253 l 778 343 q 627 131 731 244 q 405 -65 524 18 q 170 -180 286 -147 q -18 -151 54 -212 z "},"J":{"ha":1113,"x_min":-142,"x_max":1253,"o":"m 497 -239 q 262 -341 392 -326 q 22 -296 132 -356 q -142 -121 -87 -236 q -95 -35 -135 -74 q 1 25 -56 3 q 215 -142 83 -108 q 469 -92 346 -175 q 751 242 613 7 q 988 831 889 476 q 217 746 719 851 q 317 936 208 831 q 1013 893 735 951 q 1189 986 1065 951 q 1233 782 1253 888 q 1057 822 1142 811 q 810 171 954 440 q 497 -239 665 -99 z "},"K":{"ha":1049,"x_min":-103,"x_max":1244,"o":"m 124 -104 q -12 -96 57 -124 q -103 -18 -81 -68 q 49 103 -26 38 q 207 266 124 169 q 355 465 290 363 q 466 699 419 568 q 522 963 513 831 q 664 942 583 978 q 514 531 629 785 q 833 722 651 578 q 1140 1038 1015 865 q 1185 970 1165 1014 q 1206 875 1206 926 q 574 486 1090 717 q 824 31 635 289 q 1244 -408 1014 -228 q 1150 -474 1208 -446 q 1018 -500 1092 -503 q 756 -144 900 -410 q 478 454 611 122 q 124 -104 301 88 m 503 506 z "},"L":{"ha":1015,"x_min":-175,"x_max":1183,"o":"m 1118 -361 q 639 -237 896 -279 q 151 -197 382 -196 q 71 -237 125 -210 q -10 -277 17 -264 q -74 -306 -36 -290 q -143 -331 -112 -322 q -143 -119 -175 -249 l 108 -107 q 301 176 213 22 q 446 445 390 331 q 571 671 501 560 q 743 867 640 782 q 990 1006 846 951 q 1115 951 1049 1003 q 1183 846 1182 900 q 931 762 1040 815 q 752 646 821 708 q 615 493 683 583 q 497 317 547 403 q 361 115 446 232 q 185 -103 276 -3 l 194 -103 q 1044 -122 810 -36 q 1118 -361 1139 -264 z "},"M":{"ha":1721,"x_min":-172,"x_max":1769,"o":"m 42 -315 q -90 -293 -25 -328 q -172 -208 -156 -258 q 111 -8 -28 -122 q 385 256 250 107 q 615 588 519 404 q 740 961 711 772 q 833 956 794 976 l 821 911 q 831 923 824 915 q 843 935 839 931 q 924 439 904 704 q 1208 727 1047 588 q 1533 954 1368 867 l 1550 968 q 1643 882 1600 954 q 1447 716 1532 811 q 1321 529 1363 621 q 1263 353 1279 438 q 1263 208 1247 269 q 1318 125 1278 147 q 1525 154 1397 76 q 1726 372 1653 232 l 1769 343 q 1661 178 1726 251 q 1526 65 1596 106 q 1388 2 1457 24 q 1260 -16 1318 -19 q 1167 13 1203 -12 q 1117 115 1128 39 q 1125 294 1106 190 q 1210 530 1144 397 q 1376 788 1275 663 q 929 356 1157 632 q 875 58 939 115 q 761 33 800 -10 q 754 176 722 75 l 765 206 q 833 321 785 251 q 751 721 826 549 q 453 168 638 449 q 42 -315 269 -112 z "},"N":{"ha":1299,"x_min":-172,"x_max":1765,"o":"m 43 -315 q -90 -293 -24 -328 q -172 -208 -156 -258 q 52 -56 -58 -140 q 279 144 163 29 q 488 383 396 260 q 649 658 581 507 q 742 961 718 810 q 836 956 796 975 l 822 911 l 846 935 q 925 435 906 690 q 1269 790 1074 615 q 1643 1053 1465 965 q 1765 933 1700 1025 q 1507 838 1635 903 q 1274 690 1379 774 q 1085 526 1168 607 q 929 357 1003 446 q 875 58 939 115 q 761 33 800 -10 q 754 176 722 75 l 765 206 q 818 296 779 238 q 751 718 806 576 q 453 167 638 447 q 43 -315 269 -112 z "},"O":{"ha":1153,"x_min":4,"x_max":1056,"o":"m 358 29 q 509 1 435 -7 q 649 64 583 10 q 765 194 715 118 q 841 367 814 269 q 865 561 868 465 q 747 556 799 543 q 678 608 696 568 q 805 678 763 624 q 838 792 847 733 q 781 881 829 850 q 656 906 724 911 q 505 842 588 900 q 351 683 422 783 q 241 449 276 578 q 233 201 206 319 q 358 29 260 82 m 213 -62 q 39 156 74 8 q 67 466 4 304 q 260 756 129 628 q 516 935 378 872 q 781 982 654 999 q 990 817 929 963 q 986 451 1054 661 q 686 36 907 206 q 438 -104 575 -50 q 330 -101 394 -111 q 213 -62 265 -90 z "},"P":{"ha":1522,"x_min":176,"x_max":1479,"o":"m 588 -322 q 466 -344 532 -353 q 372 -297 400 -335 q 617 303 429 -50 q 1017 882 806 656 q 1071 861 1046 876 q 740 318 876 625 q 928 310 840 301 q 1084 353 1017 319 q 1202 434 1151 388 q 1277 540 1253 481 q 1303 657 1301 599 q 1277 774 1306 715 q 1192 876 1249 832 q 1010 946 1115 936 q 807 929 904 956 q 597 848 710 903 q 412 747 485 793 q 267 649 339 701 q 176 793 181 683 q 317 856 263 832 q 467 915 372 879 q 633 968 563 950 q 799 1002 704 986 q 974 1016 894 1018 q 1141 994 1053 1014 q 1308 936 1229 975 q 1467 719 1456 863 q 1363 453 1479 581 q 974 261 1219 297 q 717 263 851 244 q 588 -322 575 -83 z "},"Q":{"ha":1146,"x_min":4,"x_max":1086,"o":"m 1015 -435 q 535 -60 740 -343 q 436 -104 485 -85 q 328 -101 393 -111 q 211 -62 264 -90 q 39 156 74 8 q 66 466 4 304 q 258 756 128 628 q 515 935 376 872 q 781 982 654 999 q 910 928 856 972 q 990 817 964 885 q 1019 667 1015 750 q 997 490 1024 583 q 921 307 969 397 q 789 130 872 217 q 600 -22 706 43 q 1061 -225 794 -211 q 1071 -347 1086 -283 q 1015 -435 1056 -410 m 349 683 q 238 449 274 578 q 231 201 203 319 q 358 29 258 82 q 489 10 424 -6 q 400 168 446 75 q 425 218 407 192 q 549 32 476 118 q 748 253 658 93 q 864 540 838 413 q 869 753 889 671 q 779 881 849 836 q 656 906 724 911 q 504 842 588 900 q 349 683 421 783 z "},"R":{"ha":1308,"x_min":151,"x_max":1449,"o":"m 375 -185 q 240 -175 308 -203 q 151 -99 171 -147 q 606 383 436 108 l 600 382 q 506 401 556 383 q 431 447 457 418 q 433 513 406 475 q 529 540 468 547 q 667 494 590 533 q 774 883 760 688 q 915 863 838 901 q 760 435 885 706 q 797 403 772 425 q 744 401 763 403 l 743 400 q 983 437 879 386 q 1131 567 1088 488 q 1160 739 1175 646 q 1061 897 1144 832 q 279 700 815 1089 q 201 822 206 726 q 347 886 289 863 q 501 944 406 910 q 674 993 596 979 q 842 1015 751 1007 q 1021 1005 933 1022 q 1188 947 1108 988 q 1304 838 1269 907 q 1322 693 1339 768 q 1252 548 1304 618 q 1101 426 1200 478 q 881 360 1001 374 q 1089 -28 928 193 q 1449 -406 1250 -250 q 1260 -482 1372 -485 q 1035 -172 1158 -403 q 799 343 911 58 l 814 354 q 724 357 754 354 q 375 -185 544 -6 z "},"S":{"ha":1088,"x_min":-49,"x_max":1142,"o":"m 679 -206 q 542 -288 619 -260 q 387 -316 464 -317 q 233 -293 310 -315 q 97 -223 156 -271 q -1 -109 39 -175 q -45 44 -42 -43 q -15 233 -49 132 q 181 235 65 275 q 146 -28 93 122 q 294 -217 189 -149 q 532 -236 418 -297 q 615 -162 578 -211 q 678 -12 674 -89 q 656 121 683 64 q 589 269 629 178 q 535 435 549 360 q 539 592 519 515 q 601 728 558 669 q 703 831 643 786 q 828 896 764 875 q 959 913 893 917 q 1076 875 1025 908 q 1132 804 1122 846 q 1128 728 1142 763 q 1095 646 1114 693 q 1075 569 1076 599 q 974 568 1038 558 q 889 606 910 578 q 925 657 900 631 q 972 701 950 683 q 1015 742 994 718 q 1036 784 1035 765 q 1021 831 1038 803 q 883 858 979 886 q 719 738 782 829 q 699 449 631 608 q 770 250 746 338 q 799 78 794 163 q 773 -76 803 -6 q 679 -206 743 -147 z "},"T":{"ha":1032,"x_min":200,"x_max":1539,"o":"m 467 -299 q 343 -299 406 -319 q 260 -237 281 -279 q 590 334 358 -1 q 1049 867 822 669 q 206 811 604 893 q 308 1004 200 897 q 1157 935 567 1057 q 1500 968 1222 949 q 1517 790 1539 854 q 1133 860 1369 838 q 817 498 967 715 q 577 70 668 281 q 467 -299 486 -140 z "},"U":{"ha":1229,"x_min":-71,"x_max":1278,"o":"m -12 -22 q -66 54 -61 7 q -41 160 -71 101 q 36 288 -11 219 q 140 438 83 357 q 243 601 196 519 q 319 778 290 682 q 342 960 347 874 q 506 929 460 971 q 477 796 506 868 q 406 658 449 724 q 313 526 363 593 q 221 401 263 460 q 153 290 179 342 q 131 194 126 238 q 178 125 136 151 q 390 213 238 86 q 683 483 450 261 q 704 503 694 493 q 1058 968 824 758 q 1151 882 1108 954 q 956 716 1040 811 q 829 529 871 621 q 772 353 788 438 q 771 208 756 269 q 826 125 786 147 q 1033 154 906 76 q 1235 372 1161 232 l 1278 343 q 1169 178 1235 251 q 1035 65 1104 106 q 896 2 965 24 q 769 -16 826 -19 q 675 13 711 -12 q 621 151 625 46 q 665 404 617 257 q 553 290 604 340 q 442 185 501 239 q 335 92 383 131 q 235 22 286 54 q 141 -25 183 -10 q 58 -41 99 -40 q -12 -22 18 -42 z "},"V":{"ha":1136,"x_min":47,"x_max":1354,"o":"m 56 -78 q 172 197 121 38 q 247 500 222 356 q 271 762 272 644 q 238 917 269 879 q 443 1038 333 1025 q 478 901 489 1015 q 422 629 468 786 q 300 292 375 472 q 140 -42 225 111 q 760 503 457 164 q 1140 1076 1063 843 q 1274 1053 1210 1088 q 1354 967 1339 1018 q 790 364 1196 728 q 79 -153 385 0 q 47 -99 53 -133 l 89 -74 q 56 -78 72 -78 z "},"W":{"ha":1553,"x_min":46,"x_max":1881,"o":"m 54 -78 q 169 197 118 38 q 246 500 221 356 q 270 762 271 644 q 238 917 269 879 q 329 995 275 960 q 440 1038 383 1031 q 477 901 488 1015 q 421 630 467 786 q 299 293 375 474 q 139 -40 224 113 q 399 176 278 51 q 606 432 519 300 q 754 690 693 564 q 854 938 815 815 q 992 889 951 956 q 1027 836 1017 868 q 1033 761 1038 804 q 1017 669 1029 718 q 981 560 1006 621 q 928 442 956 500 q 863 312 901 383 q 790 178 824 240 q 713 39 756 117 q 668 -40 683 -14 q 1288 505 985 167 q 1667 1076 1590 843 q 1801 1053 1736 1088 q 1881 967 1867 1018 q 1563 596 1781 817 q 1077 162 1344 375 q 607 -153 810 -51 q 572 -99 579 -133 l 614 -75 q 581 -78 592 -78 q 760 292 678 88 q 868 643 842 496 q 707 419 785 521 q 528 204 629 318 q 312 -1 426 90 q 79 -153 197 -93 q 46 -99 51 -133 l 88 -74 q 54 -78 71 -78 z "},"X":{"ha":1251,"x_min":-165,"x_max":1300,"o":"m -6 -290 q -107 -256 -58 -289 q -165 -189 -156 -222 q -33 -117 -99 -160 q 106 -6 32 -74 q 228 110 179 61 q 367 253 276 158 q 499 390 457 347 q 524 883 444 629 q 672 868 588 906 q 585 476 564 667 q 1194 882 904 783 q 1242 849 1226 869 q 603 393 878 693 q 703 221 633 292 q 869 122 772 150 q 1073 163 961 97 q 1257 371 1185 228 l 1300 343 q 1195 182 1258 254 q 1065 68 1132 110 q 931 4 997 26 q 808 -15 864 -18 q 715 11 751 -12 q 612 122 665 44 q 524 303 558 199 q 371 113 483 256 q 175 -120 258 -29 q -6 -290 92 -211 z "},"Y":{"ha":964,"x_min":-71,"x_max":1099,"o":"m -11 -22 q -65 54 -60 7 q -41 160 -71 101 q 36 288 -11 219 q 140 438 83 357 q 242 601 196 519 q 317 778 289 682 q 340 960 346 874 q 506 929 458 971 q 477 796 506 868 q 406 658 449 724 q 313 526 363 593 q 221 401 263 460 q 153 290 179 342 q 131 194 126 238 q 178 125 136 151 q 324 161 229 92 q 603 407 419 231 q 938 876 776 725 q 1099 786 1035 868 q 669 260 921 644 q 308 -440 417 -125 q 268 -367 268 -406 q 532 268 394 -11 q 210 7 347 89 q -11 -22 74 -75 z "},"Z":{"ha":1206,"x_min":-75,"x_max":1361,"o":"m 676 11 q 628 51 654 26 q 582 97 601 76 q 535 141 563 118 q 481 174 507 164 q 417 190 456 185 q 336 181 378 196 q 82 -43 196 50 q -17 -7 31 -40 q -75 58 -65 26 q 144 183 32 104 q 358 348 257 261 q 562 522 460 435 q 786 694 664 610 q 1026 832 908 778 q 325 743 776 839 q 425 935 317 826 q 1117 893 839 950 q 1313 961 1193 929 q 1340 779 1361 879 q 1142 822 1244 810 q 1021 762 1079 794 q 901 684 963 729 q 799 610 839 639 q 690 518 758 581 q 595 431 622 456 q 489 328 568 406 q 388 231 410 251 q 528 230 464 244 q 681 177 592 215 q 832 122 769 139 q 1031 164 922 96 q 1211 372 1140 232 l 1254 343 q 1152 187 1214 257 q 1024 74 1090 117 q 892 8 958 31 q 768 -14 825 -15 q 676 11 711 -12 z "},"[":{"ha":322,"x_min":-4149,"x_max":-51,"o":"m -4137 -333 q -2581 -154 -3721 -199 q -51 -169 -1442 -110 q -79 -225 -53 -182 q -3976 -575 -3074 -135 q -3974 -500 -3964 -531 q -4006 -457 -3983 -469 q -4056 -433 -4029 -444 q -4106 -413 -4083 -421 q -4139 -385 -4129 -406 q -4137 -333 -4149 -364 z "},"\\":{"ha":869,"x_min":175,"x_max":693,"o":"m 175 743 q 249 814 210 794 q 318 826 289 833 q 432 216 306 551 q 693 -254 558 -119 q 621 -328 669 -326 q 426 -37 514 -204 q 288 286 339 131 q 210 557 238 442 q 175 743 183 672 z "},"]":{"ha":322,"x_min":-2640,"x_max":-56,"o":"m -2626 -306 q -2037 -178 -2436 -222 q -1237 -129 -1639 -133 q -503 -137 -835 -125 q -57 -168 -172 -149 q -85 -224 -56 -182 q -575 -199 -299 -200 q -1182 -224 -851 -197 q -1858 -333 -1512 -250 q -2467 -547 -2203 -417 q -2468 -463 -2453 -496 q -2515 -417 -2483 -431 q -2576 -393 -2546 -404 q -2624 -361 -2607 -382 q -2626 -306 -2640 -340 z "},"^":{"ha":467,"x_min":31,"x_max":406,"o":"m 31 593 q 217 768 144 671 q 290 742 276 758 q 317 674 293 707 q 406 582 340 640 q 340 517 378 533 q 254 688 310 589 q 71 517 207 638 q 31 593 36 551 z "},"_":{"ha":322,"x_min":-3369,"x_max":-65,"o":"m -3101 -211 q -2809 -273 -3010 -262 q -2359 -263 -2608 -283 q -1806 -215 -2110 -243 q -1204 -161 -1503 -187 q -606 -135 -906 -135 q -65 -168 -306 -135 q -93 -224 -65 -178 q -610 -186 -325 -186 q -1160 -215 -894 -186 q -1715 -285 -1426 -244 q -2243 -371 -2004 -326 q -2714 -445 -2482 -415 q -3098 -483 -2946 -475 q -3364 -458 -3250 -490 q -3297 -315 -3369 -392 q -3101 -211 -3225 -239 z "},"`":{"ha":378,"x_min":40,"x_max":317,"o":"m 317 708 q 299 671 317 683 q 40 764 104 693 q 83 838 50 804 q 154 875 117 872 q 317 708 189 789 z "},"a":{"ha":863,"x_min":-93,"x_max":913,"o":"m 133 26 q -34 43 25 -6 q -77 194 -93 92 q 29 407 -61 297 q 152 510 85 476 q 275 540 219 544 q 373 501 331 536 q 426 407 415 467 q 478 490 451 457 q 553 456 513 479 q 606 411 594 432 q 531 235 538 261 q 551 139 515 174 q 695 160 597 96 q 869 372 793 225 l 913 343 q 856 239 889 290 q 775 137 822 188 q 667 56 728 86 q 542 26 606 25 q 430 80 471 29 q 385 211 389 131 q 133 26 258 64 m 175 115 q 394 315 263 142 q 407 357 399 336 q 381 426 400 399 q 335 464 363 453 q 265 455 307 475 q 176 383 224 435 q 68 171 61 260 q 132 110 72 111 q 175 115 151 108 z "},"b":{"ha":693,"x_min":-18,"x_max":742,"o":"m 161 26 q -10 258 -17 49 q 154 735 -4 460 q 335 993 236 878 q 420 956 372 989 q 483 893 468 922 q 292 654 374 767 q 165 453 211 542 q 99 297 118 365 q 92 184 81 228 q 140 121 103 140 q 280 147 201 90 q 393 301 358 204 q 352 312 381 294 q 303 354 324 329 q 319 513 274 446 q 410 551 358 569 q 474 486 447 538 q 489 333 497 442 q 697 372 636 294 l 742 343 q 632 275 713 292 q 474 276 551 258 q 425 182 450 222 q 362 100 400 142 q 272 39 324 58 q 161 26 221 19 z "},"c":{"ha":711,"x_min":-64,"x_max":761,"o":"m 399 53 q 252 15 326 22 q 117 24 178 8 q 13 75 57 39 q -47 161 -31 111 q -44 279 -64 211 q 35 419 -25 347 q 144 513 83 479 q 260 547 206 546 q 365 535 314 549 q 459 438 444 508 q 406 313 474 367 q 306 356 319 301 q 385 425 368 376 q 360 483 400 468 q 349 486 354 485 q 183 396 274 496 q 99 255 118 324 q 108 143 81 186 q 199 83 136 100 q 360 99 261 67 q 563 207 458 129 q 717 372 667 285 l 761 344 q 618 191 725 281 q 399 53 511 101 z "},"d":{"ha":865,"x_min":-79,"x_max":917,"o":"m 136 26 q 21 19 69 10 q -51 66 -28 28 q -77 156 -75 104 q -51 274 -79 207 q 31 407 -24 340 q 159 513 89 479 q 286 540 229 546 q 385 492 343 533 q 432 385 426 451 q 570 714 474 540 q 789 1024 667 888 q 861 991 819 1015 q 917 946 903 967 q 532 121 378 211 q 691 158 586 89 q 872 372 796 226 l 915 343 q 858 240 892 292 q 778 139 825 189 q 669 58 731 89 q 543 26 607 26 q 404 231 393 26 q 136 26 271 67 m 179 115 q 411 335 269 142 q 391 413 408 381 q 345 461 374 446 q 273 458 317 476 q 179 383 229 439 q 69 172 67 260 q 135 110 72 111 q 179 115 154 108 z "},"e":{"ha":715,"x_min":-58,"x_max":765,"o":"m 403 53 q 258 15 332 22 q 123 24 183 8 q 19 75 63 39 q -42 161 -25 111 q -39 279 -58 211 q 40 419 -19 347 q 149 512 89 479 q 264 546 210 544 q 369 533 318 547 q 442 494 413 519 q 478 436 471 468 q 471 371 485 404 q 410 305 457 338 q 289 249 363 272 q 96 197 207 222 q 171 93 100 122 q 365 99 242 64 q 565 212 460 129 q 721 383 671 294 l 765 356 q 622 195 729 289 q 403 53 515 101 m 99 235 q 253 290 147 250 q 389 404 365 338 q 358 474 406 454 q 338 479 349 478 q 188 396 271 486 q 99 235 113 315 z "},"f":{"ha":522,"x_min":-87,"x_max":572,"o":"m 51 -362 q -55 -301 -22 -362 q -78 -134 -87 -239 q -35 96 -68 -29 q 56 363 -1 221 q 6 404 15 393 q 38 488 4 463 q 117 503 72 514 q 408 993 263 821 q 494 956 446 990 q 558 893 543 922 q 211 386 365 669 l 214 383 q 299 338 242 358 q 425 324 357 318 q 528 372 493 329 l 572 343 q 431 270 538 281 q 239 296 324 260 l 240 293 q 246 151 244 232 q 234 -21 247 69 q 201 -187 221 -111 q 141 -312 181 -262 q 51 -362 101 -362 m 32 -268 q 131 -172 86 -296 q 185 233 190 -10 q 183 286 185 260 q 163 294 179 283 q 16 -78 54 78 q 32 -268 -22 -235 z "},"g":{"ha":864,"x_min":-221,"x_max":914,"o":"m 158 -264 q -6 -310 71 -306 q -127 -292 -83 -314 q -185 -236 -171 -271 q -144 -83 -221 -139 q 75 -29 -67 -28 q 292 -10 190 -29 q 383 207 364 110 q 135 26 257 61 q -33 43 26 -6 q -76 194 -92 92 q 31 407 -60 297 q 155 510 88 476 q 278 540 222 544 q 376 501 333 536 q 428 404 418 465 q 481 490 449 447 q 555 456 514 479 q 607 411 596 432 q 576 341 594 382 q 551 288 557 300 q 422 19 486 129 q 599 81 507 42 q 747 191 676 113 q 871 372 817 269 l 914 343 q 821 192 881 268 q 689 67 761 115 q 381 -49 568 -12 q 158 -264 274 -210 m -60 -210 q 25 -243 -35 -246 q 139 -197 85 -240 q 256 -67 200 -150 q 60 -78 157 -78 q -42 -99 -6 -78 q -80 -149 -79 -119 q -60 -210 -81 -178 m 176 115 q 397 318 265 142 q 408 354 401 333 q 383 424 401 396 q 338 464 365 453 q 268 456 310 475 q 179 383 226 436 q 69 175 68 264 q 131 110 71 113 q 176 115 151 108 z "},"h":{"ha":710,"x_min":-161,"x_max":760,"o":"m -56 -6 q -161 50 -124 3 q 56 481 -92 142 q 207 931 203 821 q 331 889 271 947 q 260 649 333 840 q 93 264 186 457 q 318 485 239 401 l 319 483 q 325 490 324 488 q 401 455 360 478 q 451 411 442 432 q 376 232 385 263 q 399 139 363 174 q 542 160 444 96 q 715 372 640 225 l 760 343 q 703 239 736 290 q 622 137 669 188 q 513 56 575 86 q 388 26 451 25 q 247 132 285 31 q 253 356 208 233 q -26 38 117 240 q -56 -6 -40 14 z "},"i":{"ha":457,"x_min":-29,"x_max":507,"o":"m 135 26 q 29 75 69 29 q -20 188 -11 121 q -6 337 -29 254 q 71 490 17 419 q 147 456 106 479 q 199 411 188 432 q 177 364 190 392 q 158 321 164 336 q 142 284 151 306 q 129 251 133 263 q 122 224 125 239 q 118 199 118 208 q 120 177 118 189 q 128 156 122 165 q 144 139 135 147 q 289 160 192 96 q 463 372 386 225 l 507 343 q 450 239 483 290 q 369 137 417 188 q 260 56 322 86 q 135 26 199 25 m 117 463 q 102 477 117 463 q 88 536 88 492 q 117 610 88 581 q 190 639 147 639 q 264 610 235 639 q 293 536 293 581 q 264 463 293 492 q 190 433 235 433 q 117 463 146 433 z "},"j":{"ha":450,"x_min":-475,"x_max":500,"o":"m -347 -208 q -312 -220 -336 -221 q -256 -194 -287 -219 q -212 -131 -225 -169 q -295 -144 -260 -132 q -344 -174 -331 -157 q -347 -208 -357 -192 m -443 -247 q -402 -119 -475 -172 q -194 -67 -329 -65 l -181 -67 q -45 241 -131 28 q 64 490 40 454 q 138 456 97 479 q 193 411 179 432 q 138 288 142 299 q -6 -3 56 97 q 251 133 110 13 q 457 372 392 254 l 500 343 q 433 240 478 299 q 317 110 389 182 q 139 -25 246 38 q -86 -117 32 -87 q -178 -230 -129 -186 q -270 -287 -228 -274 q -349 -300 -312 -301 q -410 -283 -386 -299 q -443 -247 -435 -268 m 79 540 q 108 613 79 583 q 181 643 138 643 q 255 614 225 643 q 285 540 285 585 q 255 467 285 496 q 181 438 225 438 q 108 467 138 438 q 79 540 79 496 z "},"k":{"ha":724,"x_min":-162,"x_max":774,"o":"m -56 -6 q -162 50 -125 1 q 55 481 -93 142 q 207 931 203 821 q 328 889 269 947 q 180 458 333 814 q -56 -6 26 101 m 132 297 q 313 394 225 332 q 451 536 400 456 q 512 506 481 526 q 554 465 543 486 q 426 345 508 388 q 253 294 343 303 q 403 108 244 115 q 469 120 432 107 q 551 161 506 133 q 643 244 596 189 q 729 372 690 299 l 774 343 q 711 236 750 292 q 620 126 672 181 q 502 34 568 71 q 371 -7 436 -3 q 172 72 228 -15 q 132 297 117 158 z "},"l":{"ha":499,"x_min":-19,"x_max":549,"o":"m 161 26 q -11 260 -18 49 q 154 736 -4 461 q 335 993 236 879 q 421 956 372 990 q 485 893 469 922 q 293 654 375 767 q 165 453 211 542 q 99 297 118 365 q 92 184 81 228 q 140 121 103 140 q 320 154 213 86 q 506 372 428 222 l 549 343 q 488 236 525 290 q 401 130 451 182 q 288 48 351 78 q 161 26 225 18 z "},"m":{"ha":1022,"x_min":-115,"x_max":1072,"o":"m -10 -6 q -115 50 -78 3 q -19 251 -62 113 q 22 490 24 390 q 143 447 88 504 q 125 288 151 392 q 276 456 213 388 l 285 454 l 285 460 q 406 417 347 474 q 390 238 417 340 q 628 485 551 403 l 629 483 q 635 490 633 488 q 709 456 668 479 q 763 411 750 432 q 738 358 753 389 q 717 310 724 326 q 701 272 710 294 q 688 236 692 249 q 683 208 685 224 q 683 181 681 192 q 692 160 686 171 q 710 139 699 149 q 853 160 756 96 q 1028 372 951 225 l 1072 343 q 1015 239 1049 290 q 933 137 981 188 q 824 56 886 86 q 699 26 763 25 q 556 138 593 31 q 569 371 519 244 q 431 207 496 310 q 338 -6 367 104 q 233 53 271 4 q 286 390 283 222 q 67 121 199 319 q -10 -6 29 40 z "},"n":{"ha":786,"x_min":-83,"x_max":836,"o":"m 21 -6 q -83 50 -49 3 q -10 249 -37 111 q 14 494 18 386 q 135 451 79 508 q 117 215 150 358 q 394 483 301 385 l 396 482 q 399 486 397 483 q 401 490 400 489 q 477 455 436 478 q 529 411 518 432 q 508 363 521 392 q 488 320 494 335 q 472 284 481 306 q 458 251 463 263 q 451 224 454 239 q 447 199 447 208 q 449 177 447 189 q 458 156 451 165 q 474 139 464 147 q 619 160 521 96 q 793 372 718 225 l 836 343 q 780 240 814 292 q 699 137 746 188 q 591 56 653 86 q 465 26 529 25 q 324 133 363 31 q 331 357 285 235 q 53 42 201 249 q 21 -6 38 15 z "},"o":{"ha":690,"x_min":-50,"x_max":740,"o":"m 158 26 q -24 172 7 44 q 22 410 -50 283 q 194 563 90 529 q 256 572 225 572 q 310 501 288 572 q 384 555 339 554 q 469 486 429 556 q 486 333 494 443 q 696 372 633 294 l 740 343 q 630 275 711 292 q 471 276 549 258 q 421 182 446 222 q 358 99 396 142 q 269 38 319 57 q 158 26 218 19 m 136 121 q 276 148 197 90 q 390 301 354 206 q 347 313 375 296 q 300 354 319 329 q 292 446 285 399 q 197 405 240 436 q 127 333 153 374 q 90 251 101 293 q 91 174 79 210 q 136 121 103 138 z "},"p":{"ha":753,"x_min":-329,"x_max":803,"o":"m -224 -424 q -329 -368 -292 -415 q -112 65 -260 -276 q 40 515 36 406 q 161 471 104 528 q 150 401 163 451 q 458 472 340 563 q 509 284 536 411 q 378 81 482 157 q 575 166 457 82 q 758 372 693 250 l 803 343 q 728 237 778 294 q 608 126 678 179 q 449 44 539 72 q 274 32 360 17 q 235 25 261 28 q 35 90 99 11 q -224 -424 -132 -306 m 90 228 q 131 199 117 217 q 126 155 128 181 q 141 105 125 129 q 189 79 157 81 q 278 113 233 75 q 349 203 324 150 q 381 313 375 257 q 350 401 386 368 q 121 310 269 474 q 106 269 115 296 q 90 228 96 242 z "},"q":{"ha":806,"x_min":-86,"x_max":854,"o":"m 264 -511 q 229 -497 253 -506 q 197 -483 206 -487 q 172 -470 188 -478 q 149 -456 156 -462 q 135 -439 143 -449 q 126 -418 128 -429 q 126 -393 125 -407 l 135 -387 l 126 -379 q 168 -215 122 -343 q -65 -237 46 -247 q -50 -107 -86 -193 q 204 -118 72 -149 q 310 133 243 -17 q 133 25 219 51 q 18 17 67 8 q -54 65 -31 26 q -80 155 -78 104 q -54 273 -82 206 q 28 406 -26 340 q 200 528 107 501 q 358 513 293 556 q 429 381 422 471 q 511 515 482 478 q 617 460 582 507 q 506 260 581 413 q 365 -54 432 107 q 810 372 592 68 l 854 344 q 638 77 764 204 q 367 -132 513 -50 q 468 -258 449 -189 q 456 -380 488 -326 q 371 -471 425 -433 q 264 -511 317 -508 m 176 115 q 397 319 265 140 l 407 338 q 385 415 403 383 q 340 462 368 447 q 269 458 313 476 q 176 383 226 439 q 68 171 64 260 q 132 110 71 111 q 176 115 153 110 m 233 -425 q 257 -450 240 -433 q 375 -382 333 -431 q 408 -274 417 -333 q 340 -167 400 -214 q 340 -147 338 -158 l 325 -154 q 247 -424 251 -347 l 233 -425 z "},"r":{"ha":613,"x_min":8,"x_max":663,"o":"m 14 389 q 54 475 51 467 q 14 538 28 507 q 43 653 8 607 q 124 685 78 700 q 160 603 163 665 q 128 499 157 542 l 122 483 q 215 488 157 467 l 219 481 q 223 485 221 482 q 226 489 225 488 q 301 455 260 479 q 354 408 343 431 q 327 349 344 385 q 303 297 310 313 q 286 256 296 281 q 275 218 276 231 q 274 189 274 206 q 281 160 274 172 q 300 138 288 149 q 444 160 346 94 q 618 371 542 225 l 663 343 q 605 239 639 290 q 524 136 571 188 q 415 54 476 85 q 289 25 353 24 q 169 89 211 28 q 132 242 128 150 q 185 424 136 333 q 104 442 149 424 q 60 361 89 406 l 21 350 l 14 389 z "},"s":{"ha":497,"x_min":-228,"x_max":293,"o":"m 278 82 q 157 -4 251 10 q -42 12 63 -18 q -228 93 -147 42 q -192 140 -215 119 q -109 92 -162 111 q 4 81 -56 74 q 94 133 64 89 q 108 201 118 160 q 80 273 99 242 q 38 347 61 304 q 10 417 14 389 q 15 533 -3 478 q 69 618 33 589 q 149 656 104 647 q 236 635 194 665 q 265 560 274 603 q 201 482 256 518 q 83 447 147 446 q 104 359 85 399 q 150 296 124 319 q 206 247 176 272 q 256 202 235 222 q 285 150 276 182 q 278 82 293 118 z "},"t":{"ha":500,"x_min":-219,"x_max":875,"o":"m 161 29 q 23 110 65 40 q -8 283 -19 179 q 47 506 3 386 q 163 750 90 626 q -219 799 -118 768 l -201 856 q 197 808 -68 811 q 336 997 261 910 q 422 959 374 993 q 485 896 469 925 q 418 818 458 865 q 818 919 693 842 q 859 868 843 904 q 871 800 875 832 q 358 743 711 738 q 196 510 260 617 q 108 325 132 403 q 92 196 83 247 q 142 124 100 144 q 322 158 214 89 q 506 375 429 226 l 550 347 q 490 240 526 294 q 403 133 453 186 q 289 51 353 81 q 161 29 225 22 z "},"u":{"ha":850,"x_min":-35,"x_max":900,"o":"m 99 29 q 13 73 46 36 q -27 165 -19 110 q -24 285 -35 221 q 24 416 -12 349 q 114 539 60 483 q 190 498 150 531 q 243 438 229 465 q 129 307 172 368 q 77 197 86 246 q 107 126 68 149 q 244 171 160 97 q 408 396 329 244 q 465 493 428 442 q 540 459 499 483 q 593 413 582 435 q 573 370 585 396 q 555 331 561 344 q 540 297 549 317 q 528 266 532 276 q 519 240 524 256 q 514 216 514 225 q 513 195 514 207 q 516 176 513 183 q 525 159 519 168 q 539 142 531 150 q 682 163 585 99 q 856 375 779 228 l 900 347 q 842 243 876 294 q 762 140 808 192 q 653 58 715 89 q 528 29 592 28 q 408 94 449 32 q 372 250 367 157 q 247 82 313 144 q 99 29 182 19 z "},"v":{"ha":750,"x_min":-28,"x_max":800,"o":"m 90 -6 q -28 42 4 4 q 15 261 10 131 q -6 475 21 392 q 158 451 108 499 q 160 308 167 406 q 131 119 153 211 q 244 209 150 136 q 389 333 339 282 q 350 438 338 365 q 490 589 410 564 q 571 565 547 607 q 561 457 594 524 q 489 354 535 404 q 579 326 532 335 q 677 328 626 318 q 756 372 728 338 l 800 343 q 710 281 775 299 q 572 270 644 263 q 442 304 500 278 q 280 164 396 260 q 113 15 164 68 l 113 57 q 90 -6 96 8 z "},"w":{"ha":1075,"x_min":-28,"x_max":1125,"o":"m 89 -3 q -28 44 4 7 q 15 265 10 135 q -6 478 21 396 q 158 456 106 506 q 160 313 167 410 q 131 125 153 217 q 201 179 153 143 q 290 248 250 215 q 365 315 331 281 q 357 447 372 390 q 519 424 469 472 q 467 133 532 331 q 540 190 488 150 q 635 265 593 229 q 714 338 678 300 q 675 442 661 368 q 815 593 735 568 q 897 568 874 611 q 886 460 919 526 q 814 357 860 410 q 903 328 856 338 q 1001 330 950 319 q 1079 376 1051 340 l 1125 347 q 968 273 1086 281 q 768 308 850 265 q 605 166 721 263 q 438 17 489 69 l 438 51 q 427 25 435 43 q 415 -3 419 7 q 297 44 329 7 q 353 229 335 136 q 292 178 333 213 q 226 122 250 143 q 169 72 201 101 q 111 18 136 43 l 111 58 q 89 -3 97 17 z "},"x":{"ha":688,"x_min":-381,"x_max":738,"o":"m -240 -222 q -317 -187 -271 -221 q -381 -121 -362 -153 q 43 272 -283 36 q -1 494 0 372 q 84 533 18 525 q 161 518 150 540 q 165 356 156 431 q 483 539 383 501 l 504 482 q 178 299 358 433 q 376 111 226 125 q 530 169 439 104 q 694 375 621 235 l 738 347 q 681 243 714 294 q 600 140 647 192 q 491 58 553 89 q 364 29 429 28 q 201 80 278 32 q 72 214 124 128 q -240 -222 -176 -3 z "},"y":{"ha":850,"x_min":-236,"x_max":900,"o":"m 143 -261 q -22 -307 56 -303 q -142 -290 -99 -311 q -199 -232 -185 -268 q -159 -80 -236 -136 q 61 -26 -82 -24 q 276 -7 175 -26 q 372 242 369 150 l 372 247 q 100 29 242 11 q 1 94 35 39 q -30 222 -32 149 q 10 383 -28 296 q 115 539 47 471 q 192 499 153 531 q 246 438 232 467 q 132 306 175 368 q 81 197 89 244 q 110 126 72 149 q 243 167 161 97 q 400 381 325 238 q 464 493 424 440 q 539 459 497 483 q 592 413 581 435 q 536 290 542 304 q 408 22 483 151 q 583 85 494 47 q 732 194 661 117 q 856 375 803 272 l 900 347 q 806 194 865 271 q 674 69 746 118 q 365 -46 549 -10 q 143 -261 258 -207 m -75 -207 q 10 -240 -49 -243 q 124 -194 69 -236 q 240 -64 183 -147 q 44 -75 142 -75 q -57 -96 -19 -75 q -96 -146 -94 -117 q -75 -207 -97 -175 z "},"z":{"ha":711,"x_min":-29,"x_max":761,"o":"m 14 392 q 51 468 42 446 q 72 538 61 490 q 82 633 83 585 q 144 632 119 660 q 144 553 154 601 q 270 521 217 531 q 385 515 324 511 q 507 538 446 518 q 535 449 522 493 q 161 158 189 371 q 212 173 185 169 q 256 175 239 176 q 324 167 274 174 q 400 158 375 161 q 579 187 517 146 q 718 375 642 228 l 761 347 q 703 244 738 294 q 623 142 669 193 q 515 60 576 92 q 389 29 453 29 q 308 44 358 29 q 219 72 258 60 q 126 78 181 85 q 22 32 72 71 q -17 74 -4 44 q -19 133 -29 104 q 105 256 42 185 q 224 374 168 328 q 374 458 279 419 q 108 453 260 429 q 60 365 90 414 l 21 354 l 14 392 z "},"{":{"ha":558,"x_min":-3617,"x_max":85,"o":"m 4 414 q 41 388 17 410 q 76 354 65 367 q -57 -169 -83 149 q 38 -199 13 -175 q 51 -281 83 -237 q -35 -314 21 -319 q -97 -285 -69 -310 q -121 -221 -118 -264 q -1204 -195 -719 -192 q -2051 -222 -1689 -199 q -2694 -298 -2412 -246 q -3166 -416 -2975 -350 q -3501 -571 -3357 -482 q -3601 -453 -3585 -524 q -3578 -289 -3617 -383 q -2392 -148 -3276 -182 q -108 -169 -1507 -114 q -116 126 -156 -60 q 4 414 -76 313 z "},"|":{"ha":417,"x_min":19,"x_max":506,"o":"m 363 888 q 459 916 426 918 q 506 890 492 914 q 217 229 333 631 q 110 -379 100 -172 q 19 -414 51 -437 q 64 -18 22 -232 q 165 377 106 196 q 275 686 225 558 q 363 888 325 814 z "},"}":{"ha":560,"x_min":-2547,"x_max":85,"o":"m 4 414 q 41 388 17 410 q 76 354 65 367 q -57 -169 -83 149 q 38 -199 13 -175 q 51 -281 83 -237 q -35 -314 21 -319 q -97 -285 -69 -310 q -121 -222 -119 -262 q -1450 -252 -822 -154 q -2432 -571 -2078 -350 q -2531 -453 -2515 -524 q -2508 -289 -2547 -383 q -1451 -147 -2215 -185 q -107 -171 -686 -110 q -116 126 -156 -61 q 4 414 -76 313 z "},"~":{"ha":782,"x_min":36,"x_max":711,"o":"m 46 318 q 167 409 115 379 q 251 440 219 439 q 306 427 283 440 q 342 390 328 414 q 367 345 356 367 q 395 313 379 324 q 433 310 411 301 q 538 422 510 340 q 621 438 581 436 q 686 417 661 440 q 706 350 711 394 q 507 203 617 250 q 347 168 397 157 q 313 218 324 174 q 291 302 301 263 q 260 339 281 342 q 198 278 229 336 q 157 164 167 221 q 70 210 104 156 q 46 318 36 265 z "}," ":{"ha":414,"x_min":0,"x_max":0,"o":""},"¡":{"ha":375,"x_min":-74,"x_max":358,"o":"m 221 446 q 147 543 167 494 q 264 654 208 579 q 358 583 329 625 q 221 446 313 499 m -74 -229 q 72 35 -6 -129 q 178 333 149 199 q 218 351 199 350 q 100 -260 233 85 q 8 -267 58 -276 q -74 -229 -42 -257 z "},"¢":{"ha":693,"x_min":6,"x_max":681,"o":"m 556 675 q 681 658 650 699 q 596 572 632 613 q 630 494 629 542 q 604 412 631 447 q 540 376 578 376 q 504 394 511 376 q 504 454 497 413 q 292 58 379 278 q 601 136 449 28 q 607 92 611 128 q 263 -26 476 -21 q 238 -157 239 -118 q 158 -167 185 -186 q 188 -24 167 -94 q 25 117 43 -4 q 103 371 7 232 q 354 575 204 518 q 499 601 428 601 q 556 675 539 657 m 224 90 q 469 560 311 331 q 322 499 393 557 q 213 367 251 442 q 173 213 174 292 q 224 90 172 133 z "},"£":{"ha":942,"x_min":-58,"x_max":947,"o":"m 653 251 q 619 163 661 201 q 569 208 600 188 q 494 57 536 118 q 643 15 558 8 q 778 61 728 22 q 799 1 800 35 q 782 -67 797 -33 q 599 -112 700 -132 q 446 6 499 -93 q 183 -76 331 -94 q 8 17 65 -61 q 22 218 -58 110 q 40 240 31 229 q 181 308 104 313 q 331 252 258 304 q 451 119 403 200 q 522 243 486 150 q 378 297 454 279 q 415 350 386 322 q 544 313 472 343 l 563 385 q 454 440 497 396 q 397 529 411 485 q 386 611 383 574 q 501 663 463 679 q 505 519 482 578 q 581 442 528 461 q 623 557 603 511 q 674 649 643 603 q 746 715 704 694 q 840 733 788 736 q 938 656 928 729 q 872 499 946 581 q 628 381 775 389 q 619 381 624 381 q 594 289 607 324 q 653 251 625 272 m 169 172 q 182 79 138 121 q 319 54 232 31 q 404 96 364 67 q 318 186 367 157 q 230 210 269 215 q 169 172 190 204 m 635 433 q 783 525 733 433 q 803 636 821 590 q 774 660 794 660 q 692 603 722 660 q 635 433 663 546 z "},"¤":{"ha":742,"x_min":1,"x_max":760,"o":"m 353 542 q 485 582 425 583 q 574 536 546 581 q 630 597 583 547 q 694 671 676 647 q 751 615 743 661 q 736 517 760 569 q 628 418 724 503 q 569 229 624 338 q 635 78 618 133 q 582 22 606 39 q 524 -1 558 6 q 476 101 499 57 q 372 38 426 50 q 215 56 278 11 q 74 -39 108 -19 q 21 -14 35 -28 q 1 28 7 0 q 157 143 115 108 q 208 399 124 263 q 232 433 210 401 q 113 568 172 517 q 197 637 150 617 q 281 646 243 657 q 311 602 282 643 q 353 542 340 561 m 301 446 q 263 333 268 394 q 277 224 258 271 q 338 155 296 178 q 435 151 381 132 q 529 274 486 171 q 554 458 572 376 q 532 442 547 453 q 511 428 517 432 q 413 503 482 496 q 301 446 343 511 z "},"¥":{"ha":854,"x_min":43,"x_max":886,"o":"m 278 50 q 451 119 367 92 q 470 172 457 135 q 490 226 483 210 q 510 272 496 243 q 540 331 524 301 q 392 190 456 233 q 294 156 328 146 q 263 236 253 165 q 304 385 272 307 q 358 538 336 464 q 361 626 379 611 q 296 617 339 644 q 197 544 253 590 q 107 485 140 499 q 65 606 43 546 q 181 633 119 613 q 277 669 242 654 q 359 692 313 685 q 431 679 406 699 q 461 479 497 643 q 449 426 457 461 q 438 317 424 329 q 483 328 449 306 q 575 421 514 346 q 758 850 743 807 q 836 957 790 936 q 878 933 871 974 q 831 772 885 879 q 668 511 760 638 q 578 160 596 275 q 749 194 671 188 q 756 126 769 163 q 569 81 654 107 q 635 -83 568 -17 q 542 -205 596 -146 q 460 -282 488 -264 q 421 26 340 -251 q 238 -67 326 -10 q 278 50 211 -19 z "},"¦":{"ha":417,"x_min":19,"x_max":506,"o":"m 242 194 q 206 67 233 164 q 166 -73 178 -31 q 138 -185 154 -115 q 115 -301 121 -256 q 110 -379 108 -346 q 19 -414 51 -437 q 40 -244 21 -337 q 94 -18 58 -150 q 140 156 131 114 l 242 194 m 165 290 q 363 888 313 783 q 459 916 426 918 q 506 890 492 914 q 460 808 483 856 q 419 725 436 761 q 378 622 403 689 q 344 529 354 556 q 308 424 335 503 q 276 331 281 344 l 165 290 z "},"§":{"ha":826,"x_min":-19,"x_max":803,"o":"m 110 -56 q 213 -146 135 -122 q 361 -140 292 -169 q 435 -46 431 -111 q 405 15 436 -12 q 326 61 374 43 q 226 101 279 79 q 133 147 174 124 q 76 209 93 169 q 82 300 58 249 q 254 503 132 415 q 200 572 211 536 q 213 669 189 607 q 342 778 244 738 q 567 818 439 819 q 803 767 694 817 q 748 710 788 742 q 672 668 708 679 q 601 744 654 718 q 494 767 549 769 q 396 736 440 765 q 349 658 351 707 q 390 588 346 618 q 496 535 435 557 q 615 487 557 513 q 700 417 672 461 q 701 314 728 374 q 526 111 650 194 q 571 -56 617 44 q 335 -194 519 -161 q -19 -154 150 -228 q 37 -98 -1 -129 q 110 -56 75 -67 m 246 392 q 218 338 225 363 q 220 294 211 314 q 242 260 229 275 q 284 229 256 244 q 335 203 313 214 q 393 178 357 193 q 450 153 429 163 q 538 221 504 181 q 565 273 558 249 q 562 317 571 297 q 540 351 553 336 q 498 382 526 367 q 447 408 469 397 q 388 433 424 418 q 332 458 353 449 q 246 392 278 432 z "},"¨":{"ha":553,"x_min":44,"x_max":514,"o":"m 400 881 q 514 800 446 829 q 356 660 433 706 q 272 751 301 708 q 139 640 193 672 q 44 751 74 700 q 69 768 49 754 q 103 793 89 782 q 140 823 117 804 q 183 861 163 842 q 283 786 222 817 q 400 881 368 850 z "},"©":{"ha":1164,"x_min":-81,"x_max":1126,"o":"m 653 757 q 1038 615 929 771 q 1071 310 1125 490 q 846 -1 1015 128 q 411 -154 660 -144 q 6 -6 113 -165 q -14 300 -79 121 q 225 607 50 479 q 653 757 414 744 m 400 -3 q 222 118 246 3 q 289 353 200 222 q 521 542 381 489 q 657 565 589 568 q 735 540 708 563 q 778 576 744 551 q 806 551 804 579 q 753 519 778 539 q 757 418 781 472 q 688 364 733 364 q 654 415 642 364 q 701 504 664 454 q 629 529 674 529 q 435 425 522 529 q 351 207 349 321 q 465 71 353 93 q 744 142 607 43 q 747 103 754 131 q 400 -3 615 -12 m 419 -115 q 861 75 699 -100 q 989 374 986 210 q 876 624 993 533 q 629 699 782 699 q 267 540 438 699 q 76 239 124 406 q 126 -36 28 61 q 419 -115 218 -126 z "},"ª":{"ha":669,"x_min":10,"x_max":629,"o":"m 385 799 q 239 767 308 806 q 135 657 169 729 q 131 570 113 613 q 191 519 150 528 q 283 546 232 511 q 414 764 325 696 q 454 774 458 799 q 401 682 449 750 q 397 558 381 601 q 491 537 417 508 q 629 642 565 565 q 628 639 629 640 q 531 519 579 571 q 442 438 482 467 q 369 394 403 408 q 313 383 336 379 q 278 404 289 386 q 278 532 256 438 q 78 419 161 404 q 17 499 22 431 q 64 653 10 569 q 253 832 142 772 q 446 872 364 892 q 385 799 429 831 z "},"«":{"ha":857,"x_min":46,"x_max":858,"o":"m 319 -21 q 225 128 317 36 q 46 269 133 221 q 211 415 78 315 q 458 563 344 515 q 535 533 514 553 q 569 463 556 513 q 747 563 674 531 q 825 532 804 553 q 858 461 846 511 q 681 399 788 460 q 497 265 575 339 q 751 46 600 201 q 703 5 732 18 q 608 -21 675 -8 q 514 128 606 36 q 335 269 422 221 q 421 351 354 294 q 565 461 488 408 q 390 397 494 457 q 208 265 286 338 q 463 46 300 208 q 415 5 443 18 q 319 -21 386 -8 z "},"¬":{"ha":929,"x_min":100,"x_max":853,"o":"m 626 165 q 660 238 636 201 q 106 197 342 264 q 128 265 100 232 q 199 322 156 299 q 733 319 511 361 q 769 340 756 333 q 853 299 826 321 q 767 205 804 263 q 732 85 731 147 q 626 165 658 113 z "},"­":{"ha":736,"x_min":93,"x_max":617,"o":"m 188 356 q 433 376 319 381 q 617 342 547 371 q 582 213 615 269 q 447 236 524 231 q 273 228 371 242 q 93 178 175 214 q 188 356 97 274 z "},"®":{"ha":1164,"x_min":-79,"x_max":1126,"o":"m 653 757 q 1038 615 929 771 q 1071 310 1125 490 q 846 -1 1015 128 q 411 -154 660 -144 q 6 -6 113 -165 q -14 300 -79 121 q 225 607 50 479 q 653 757 414 744 m 249 0 q 254 74 247 33 q 269 144 261 114 q 300 226 278 174 q 333 299 322 278 q 375 383 343 321 q 414 461 407 446 q 439 472 433 472 q 379 13 333 200 q 249 0 325 -12 m 343 518 q 379 549 350 539 q 467 556 397 550 q 800 467 814 589 q 706 372 794 418 q 529 314 617 326 q 624 178 549 271 q 735 22 700 85 q 579 6 685 -11 q 528 148 572 51 q 481 314 485 244 q 464 315 467 314 q 446 361 426 329 q 489 389 463 390 q 515 361 510 389 q 519 345 515 354 q 522 332 522 336 q 646 376 599 342 q 699 454 693 411 q 649 521 704 503 q 453 529 594 539 q 343 518 408 525 m 419 -115 q 861 75 699 -100 q 989 374 986 210 q 876 624 993 533 q 629 699 782 699 q 267 540 438 699 q 76 239 124 406 q 126 -36 28 61 q 419 -115 218 -126 z "},"¯":{"ha":464,"x_min":40,"x_max":431,"o":"m 75 801 q 421 800 303 778 q 424 749 431 779 q 401 693 417 718 q 251 688 335 676 q 122 710 168 699 q 40 735 75 721 q 75 801 46 761 z "},"°":{"ha":486,"x_min":10,"x_max":496,"o":"m 317 788 q 469 743 442 815 q 432 592 496 679 q 206 446 351 481 q 189 442 197 443 q 32 489 57 415 q 79 640 10 553 q 311 786 165 751 q 317 788 314 788 m 200 478 q 299 561 243 482 q 347 706 361 651 q 275 742 336 747 q 163 647 204 735 q 146 511 125 567 q 200 478 161 475 z "},"±":{"ha":811,"x_min":-40,"x_max":758,"o":"m 568 732 q 511 515 542 607 q 750 490 654 514 q 728 404 758 444 q 481 421 618 421 q 365 157 431 275 q 282 157 310 138 q 386 419 339 276 q 89 375 210 410 q 182 500 78 443 q 417 517 300 514 q 463 790 458 675 q 530 788 503 806 q 568 732 557 771 m -35 -83 q -12 -17 -40 -50 q 58 40 15 17 q 381 56 228 60 q 628 31 533 53 q 604 -56 635 -18 q 424 -39 526 -43 q 194 -45 321 -35 q -35 -83 67 -56 z "},"²":{"ha":488,"x_min":-29,"x_max":529,"o":"m 110 269 q 393 317 296 329 q 374 262 390 293 q 333 214 357 231 q 107 250 203 264 q -17 224 11 204 q -17 244 -28 231 q -3 258 -11 251 q 10 268 4 264 q 27 276 17 272 q 42 281 38 279 q 59 284 46 282 q 75 287 72 286 q 92 289 78 288 l 107 290 q 332 481 253 381 q 372 625 411 581 q 285 628 347 658 q 153 508 224 597 q 125 592 104 533 q 234 685 178 647 q 338 739 290 724 q 424 750 386 754 q 479 719 461 746 q 415 508 529 650 q 110 269 300 365 z "},"³":{"ha":472,"x_min":7,"x_max":500,"o":"m 158 744 q 400 715 315 713 q 472 746 440 742 q 499 736 500 750 q 450 703 497 718 l 404 693 q 386 692 399 692 q 256 565 258 567 q 414 503 410 592 q 306 309 415 408 q 101 222 196 210 q 31 258 56 229 q 8 317 7 286 q 15 375 10 349 q 121 433 64 421 q 96 333 96 375 q 114 275 96 292 q 158 260 132 258 q 250 317 203 261 q 297 454 297 374 q 225 538 297 515 q 201 522 211 526 q 142 508 156 499 q 165 536 131 518 q 203 551 181 544 l 221 557 l 356 686 q 273 672 332 682 q 180 657 214 661 q 125 653 146 653 q 158 744 125 690 z "},"´":{"ha":374,"x_min":4,"x_max":347,"o":"m 19 678 q 279 911 194 789 q 332 874 317 913 q 333 781 347 835 q 13 629 228 676 q 19 678 4 643 z "},"µ":{"ha":668,"x_min":-340,"x_max":707,"o":"m 704 261 q 707 250 707 256 q 511 63 629 138 q 326 22 393 -12 q 299 168 275 49 q 160 42 233 83 q 49 26 86 1 q 11 74 25 43 q -175 -274 -112 -128 q -281 -263 -236 -294 q -340 -178 -326 -232 q -175 -43 -286 -149 q 11 161 -64 63 q 90 369 25 253 q 264 600 156 486 q 281 567 278 594 q 276 515 285 539 q 167 337 200 432 q 169 211 133 242 q 308 207 222 161 q 493 510 356 379 q 529 469 525 506 q 469 366 494 425 q 441 255 444 307 q 472 181 438 203 q 588 174 522 151 q 704 261 653 196 z "},"¶":{"ha":846,"x_min":115,"x_max":992,"o":"m 410 913 q 443 904 426 906 q 718 929 522 926 q 992 910 914 932 q 933 789 983 872 q 783 819 839 811 q 524 183 626 553 q 432 -379 422 -187 q 342 -414 374 -437 q 405 69 343 -199 q 529 513 467 338 q 656 829 592 688 q 563 831 615 833 q 299 189 403 564 q 206 -379 196 -186 q 115 -414 147 -437 q 339 606 118 17 q 229 757 268 676 q 410 913 347 846 z "},"·":{"ha":589,"x_min":150,"x_max":403,"o":"m 289 433 q 403 353 335 382 q 244 213 322 258 q 150 324 183 268 q 174 340 154 326 q 208 365 193 354 q 245 394 222 375 q 289 433 268 414 z "},"¸":{"ha":469,"x_min":3,"x_max":419,"o":"m 208 -94 q 326 -111 276 -92 q 398 -162 376 -131 q 417 -235 419 -194 q 382 -314 414 -275 q 202 -397 322 -385 q 3 -349 82 -408 q 18 -321 6 -333 q 140 -331 81 -344 q 238 -269 199 -317 q 247 -174 278 -221 q 125 -126 217 -126 l 140 -99 l 279 -10 l 297 -22 l 208 -94 z "},"¹":{"ha":444,"x_min":69,"x_max":363,"o":"m 247 732 q 319 751 283 750 q 363 738 354 753 q 244 460 299 611 q 183 231 190 308 q 119 213 158 207 q 201 640 143 450 q 96 521 151 568 q 72 588 69 536 q 221 682 132 603 q 231 701 225 690 q 240 719 236 713 q 247 732 244 726 z "},"º":{"ha":556,"x_min":-3,"x_max":499,"o":"m 126 601 q 351 729 238 718 q 458 681 436 738 q 464 632 467 660 l 489 632 q 450 488 499 579 q 319 319 401 396 q 161 236 236 242 q 35 285 72 229 q 22 429 -3 340 q 126 601 47 518 m 210 631 q 138 499 156 575 q 149 370 119 422 q 246 331 178 318 q 359 431 294 339 q 428 604 424 522 q 382 578 390 582 q 319 666 375 647 q 210 631 263 685 z "},"»":{"ha":857,"x_min":-1,"x_max":811,"o":"m 538 558 q 632 409 540 501 q 811 268 724 317 q 645 124 779 224 q 399 -25 511 24 q 322 4 342 -15 q 288 75 301 24 q 110 -25 201 17 q 32 5 53 -15 q -1 76 11 25 q 174 138 68 78 q 358 272 279 199 q 106 492 253 338 q 152 533 124 519 q 249 558 181 546 q 342 410 250 503 q 521 268 433 317 q 435 188 501 243 q 292 78 369 132 q 466 140 360 79 q 647 272 572 200 q 394 492 539 342 q 442 533 414 519 q 538 558 471 546 z "},"¼":{"ha":907,"x_min":33,"x_max":886,"o":"m 776 663 q 850 632 826 654 q 874 586 874 610 q 460 251 699 475 q 106 -129 222 26 q 33 -106 47 -140 q 415 348 169 107 q 776 663 660 589 m 122 588 q 271 682 181 601 q 297 732 288 717 q 369 751 333 750 q 413 738 406 753 q 294 460 349 611 q 233 231 240 308 q 169 213 208 207 q 253 638 194 465 q 146 521 174 543 q 122 588 121 538 m 382 -51 q 346 -43 347 -62 q 394 11 343 -17 q 417 22 406 17 q 484 159 456 86 q 518 264 513 232 q 609 322 560 304 q 683 336 658 340 q 621 235 660 299 q 551 124 582 171 q 493 42 521 76 q 632 43 549 51 q 776 388 706 290 q 848 399 814 403 q 886 376 882 396 q 707 31 792 226 q 774 8 753 19 q 738 -43 769 -15 q 685 -26 708 -32 q 646 -146 656 -100 q 582 -157 621 -165 q 618 -10 601 -65 q 463 6 544 6 q 382 -51 425 -35 z "},"½":{"ha":929,"x_min":33,"x_max":921,"o":"m 778 663 q 850 632 826 654 q 874 586 874 610 q 461 252 699 476 q 106 -129 224 28 q 33 -106 47 -140 q 415 348 169 107 q 778 663 661 589 m 122 588 q 271 682 182 603 q 281 701 275 690 q 290 719 286 713 q 297 732 294 726 q 369 751 333 750 q 413 738 406 753 q 294 458 349 610 q 233 231 240 307 q 169 213 208 207 q 254 635 196 474 q 219 597 242 622 q 181 553 197 571 q 146 521 164 535 q 122 588 119 536 m 376 -129 q 390 -116 382 -122 q 403 -106 397 -110 q 419 -98 408 -101 q 434 -93 429 -94 q 452 -90 439 -92 q 468 -87 465 -87 q 485 -85 471 -86 q 500 -83 499 -83 q 725 107 646 7 q 765 251 804 207 q 678 253 740 285 q 546 133 617 222 q 515 217 497 161 q 662 333 586 290 q 790 377 738 376 q 871 346 842 378 q 806 134 921 276 q 504 -104 692 -8 q 786 -57 693 -43 q 766 -112 783 -81 q 726 -160 749 -144 q 500 -124 597 -111 q 376 -151 406 -169 q 376 -129 364 -143 z "},"¾":{"ha":931,"x_min":58,"x_max":913,"o":"m 706 335 q 621 197 686 306 q 519 42 556 88 q 657 43 576 53 q 800 388 732 294 q 872 399 839 403 q 910 376 906 396 q 731 31 810 215 q 797 8 775 21 q 761 -43 793 -15 q 708 -26 735 -33 q 671 -146 679 -106 q 606 -157 646 -165 q 640 -10 613 -126 q 488 6 567 6 q 406 -51 447 -35 q 369 -43 372 -62 q 419 11 368 -17 q 442 22 431 17 q 517 182 486 97 q 550 299 547 267 q 143 -129 276 49 q 71 -106 85 -140 q 452 347 206 107 q 815 663 699 588 q 889 632 865 654 q 913 586 913 610 q 582 326 771 494 q 636 331 606 328 q 682 335 667 333 q 706 335 697 336 m 65 375 q 120 413 88 397 q 172 433 153 429 q 147 333 147 375 q 165 275 147 292 q 210 260 183 258 q 301 317 253 261 q 350 454 349 374 q 278 538 350 515 q 200 513 218 504 q 218 536 186 518 q 271 557 239 547 l 408 686 q 325 672 379 682 q 234 658 271 663 q 176 653 197 653 q 210 744 176 696 q 451 715 363 713 q 543 739 515 757 q 538 711 560 726 q 461 692 514 693 q 393 627 438 671 q 329 565 349 583 q 432 565 401 578 q 464 503 463 551 q 415 372 465 442 q 289 258 364 303 q 153 222 214 214 q 83 258 107 229 q 59 317 58 286 q 65 375 60 349 z "},"¿":{"ha":600,"x_min":-94,"x_max":513,"o":"m 376 474 q 301 571 321 524 q 419 682 365 608 q 513 610 483 654 q 376 474 471 528 m -93 -169 q -71 -58 -94 -110 q -8 30 -47 -7 q 78 99 31 67 q 174 160 126 131 q 260 221 221 190 q 322 292 299 251 q 344 378 346 332 q 392 382 372 389 q 376 272 404 321 q 300 187 349 222 q 201 117 251 151 q 113 34 151 83 q 74 -75 75 -15 q 136 -171 72 -161 q 253 -125 194 -181 q 307 18 314 -65 q 447 69 382 69 q 294 -161 439 -57 q 47 -261 171 -250 q -90 -193 -71 -269 q -93 -169 -93 -182 z "},"À":{"ha":1376,"x_min":-154,"x_max":1424,"o":"m 60 -279 q -74 -255 -8 -290 q -154 -168 -139 -219 q 358 388 -6 56 q 35 350 190 385 q 99 485 32 408 q 450 471 210 510 q 1121 950 849 815 q 1153 897 1149 931 l 1114 874 q 1144 876 1133 876 q 963 407 1007 636 q 999 126 918 178 q 1192 154 1076 78 q 1381 372 1308 231 l 1424 343 q 1318 178 1381 251 q 1190 65 1256 106 q 1059 2 1125 24 q 938 -16 993 -19 q 847 13 883 -12 q 831 322 757 74 q 522 383 707 371 q 228 28 351 204 q 60 -279 104 -147 m 583 446 q 849 383 692 424 q 1057 839 915 579 q 583 446 821 683 m 1064 1125 q 1107 1199 1074 1165 q 1178 1236 1140 1233 q 1340 1069 1213 1150 q 1322 1032 1340 1044 q 1064 1125 1128 1054 z "},"Á":{"ha":1376,"x_min":-154,"x_max":1424,"o":"m 60 -279 q -74 -255 -8 -290 q -154 -168 -139 -219 q 358 388 -6 56 q 35 350 190 385 q 99 485 32 408 q 450 471 210 510 q 1121 950 849 815 q 1153 897 1149 931 l 1114 874 q 1144 876 1133 876 q 963 407 1007 636 q 999 126 918 178 q 1192 154 1076 78 q 1381 372 1308 231 l 1424 343 q 1318 178 1381 251 q 1190 65 1256 106 q 1059 2 1125 24 q 938 -16 993 -19 q 847 13 883 -12 q 831 322 757 74 q 522 383 707 371 q 228 28 351 204 q 60 -279 104 -147 m 583 446 q 849 383 692 424 q 1057 839 915 579 q 583 446 821 683 m 1053 1022 q 1060 1071 1044 1036 q 1319 1304 1235 1182 q 1372 1267 1357 1306 q 1374 1174 1388 1228 q 1053 1022 1268 1069 z "},"Â":{"ha":1376,"x_min":-154,"x_max":1424,"o":"m 60 -279 q -74 -255 -8 -290 q -154 -168 -139 -219 q 358 388 -6 56 q 35 350 190 385 q 99 485 32 408 q 450 471 210 510 q 1121 950 849 815 q 1153 897 1149 931 l 1114 874 q 1144 876 1133 876 q 963 407 1007 636 q 999 126 918 178 q 1192 154 1076 78 q 1381 372 1308 231 l 1424 343 q 1318 178 1381 251 q 1190 65 1256 106 q 1059 2 1125 24 q 938 -16 993 -19 q 847 13 883 -12 q 831 322 757 74 q 522 383 707 371 q 228 28 351 204 q 60 -279 104 -147 m 583 446 q 849 383 692 424 q 1057 839 915 579 q 583 446 821 683 m 996 1065 q 1182 1240 1110 1143 q 1256 1214 1242 1231 q 1282 1146 1258 1179 q 1371 1054 1306 1113 q 1306 989 1343 1006 q 1219 1160 1275 1061 q 1036 989 1172 1110 q 996 1065 1001 1024 z "},"Ã":{"ha":1376,"x_min":-154,"x_max":1450,"o":"m 60 -279 q -74 -255 -8 -290 q -154 -168 -139 -219 q 358 388 -6 56 q 35 350 190 385 q 99 485 32 408 q 450 471 210 510 q 1121 950 849 815 q 1153 897 1149 931 l 1114 874 q 1144 876 1133 876 q 963 407 1007 636 q 999 126 918 178 q 1192 154 1076 78 q 1381 372 1308 231 l 1424 343 q 1318 178 1381 251 q 1190 65 1256 106 q 1059 2 1125 24 q 938 -16 993 -19 q 847 13 883 -12 q 831 322 757 74 q 522 383 707 371 q 228 28 351 204 q 60 -279 104 -147 m 583 446 q 849 383 692 424 q 1057 839 915 579 q 583 446 821 683 m 985 1147 q 1094 1222 1050 1206 q 1158 1224 1138 1239 q 1190 1187 1178 1210 q 1219 1147 1203 1164 q 1257 1139 1235 1131 q 1332 1218 1313 1160 q 1413 1227 1376 1238 q 1444 1172 1450 1217 q 1306 1071 1382 1103 q 1196 1047 1231 1039 q 1174 1069 1182 1050 q 1163 1112 1165 1089 q 1153 1152 1160 1135 q 1133 1168 1146 1169 q 1085 1125 1108 1165 q 1056 1043 1063 1085 q 1001 1076 1022 1040 q 985 1147 981 1111 z "},"Ä":{"ha":1376,"x_min":-154,"x_max":1433,"o":"m 60 -279 q -74 -255 -8 -290 q -154 -168 -139 -219 q 358 388 -6 56 q 35 350 190 385 q 99 485 32 408 q 450 471 210 510 q 1121 950 849 815 q 1153 897 1149 931 l 1114 874 q 1144 876 1133 876 q 963 407 1007 636 q 999 126 918 178 q 1192 154 1076 78 q 1381 372 1308 231 l 1424 343 q 1318 178 1381 251 q 1190 65 1256 106 q 1059 2 1125 24 q 938 -16 993 -19 q 847 13 883 -12 q 831 322 757 74 q 522 383 707 371 q 228 28 351 204 q 60 -279 104 -147 m 583 446 q 849 383 692 424 q 1057 839 915 579 q 583 446 821 683 m 964 1121 q 988 1138 968 1124 q 1022 1163 1008 1151 q 1059 1192 1036 1174 q 1103 1231 1082 1211 q 1203 1156 1142 1186 q 1319 1250 1288 1219 q 1433 1169 1365 1199 q 1275 1029 1353 1075 q 1192 1121 1221 1078 q 1058 1010 1113 1042 q 964 1121 993 1069 z "},"Å":{"ha":1376,"x_min":-154,"x_max":1483,"o":"m 60 -279 q -74 -255 -8 -290 q -154 -168 -139 -219 q 358 388 -6 56 q 35 350 190 385 q 99 485 32 408 q 450 471 210 510 q 1121 950 849 815 q 1153 897 1149 931 l 1114 874 q 1144 876 1133 876 q 963 407 1007 636 q 999 126 918 178 q 1192 154 1076 78 q 1381 372 1308 231 l 1424 343 q 1318 178 1381 251 q 1190 65 1256 106 q 1059 2 1125 24 q 938 -16 993 -19 q 847 13 883 -12 q 831 322 757 74 q 522 383 707 371 q 228 28 351 204 q 60 -279 104 -147 m 583 446 q 849 383 692 424 q 1057 839 915 579 q 583 446 821 683 m 1188 1039 q 1026 1068 1049 1011 q 1082 1181 1008 1115 q 1303 1286 1165 1256 q 1463 1260 1436 1315 q 1418 1149 1483 1213 q 1188 1039 1335 1068 m 1200 1075 q 1300 1138 1244 1079 q 1331 1228 1358 1200 q 1261 1240 1314 1244 q 1149 1171 1185 1233 q 1147 1090 1119 1121 q 1200 1075 1164 1072 z "},"Æ":{"ha":1872,"x_min":-154,"x_max":1925,"o":"m 60 -279 q -74 -255 -8 -290 q -154 -168 -139 -219 q 358 388 -6 56 q 35 350 190 385 q 99 485 32 408 q 450 471 210 510 q 1121 950 849 815 q 1151 906 1144 932 q 1422 981 1274 974 q 1669 925 1569 988 q 1735 840 1724 889 q 1731 749 1747 790 q 1693 651 1715 707 q 1669 563 1671 596 q 1549 561 1625 550 q 1449 606 1472 572 q 1489 667 1461 636 q 1543 719 1517 699 q 1593 767 1569 740 q 1619 816 1617 794 q 1604 869 1622 838 q 1517 914 1576 907 q 1392 894 1458 921 q 1263 820 1325 868 q 1160 692 1201 772 q 1119 518 1119 611 q 1285 527 1221 532 q 1376 501 1349 522 q 1393 446 1404 481 q 1325 390 1382 410 q 1192 382 1268 369 q 1065 443 1117 394 q 942 317 979 401 q 937 145 906 233 q 1063 8 968 57 q 1219 -26 1128 -25 q 1408 1 1311 -28 q 1596 79 1504 29 q 1764 206 1688 129 q 1882 371 1840 282 l 1925 344 q 1781 137 1874 231 q 1575 -16 1688 43 q 1342 -105 1463 -75 q 1106 -127 1222 -135 q 899 -75 989 -119 q 776 17 821 -36 q 722 127 731 71 q 728 238 714 183 q 776 342 742 293 q 522 383 661 374 q 228 28 351 204 q 60 -279 104 -147 m 583 446 q 819 392 668 429 q 1025 479 915 483 q 974 684 961 596 q 1064 843 988 772 q 583 446 825 686 z "},"Ç":{"ha":1156,"x_min":13,"x_max":1206,"o":"m 226 -60 q 28 297 13 64 q 201 689 40 494 q 554 950 356 875 q 951 925 781 1036 q 1007 854 996 896 q 1003 766 1018 813 q 966 676 988 719 q 923 585 944 632 q 899 508 901 538 q 778 506 856 494 q 678 553 701 518 q 724 621 690 583 q 791 687 758 658 q 854 751 824 715 q 892 812 885 786 q 883 869 900 838 q 780 926 846 918 q 642 907 714 935 q 494 820 569 879 q 363 683 418 761 q 254 452 288 578 q 249 208 221 326 q 372 31 276 90 q 522 -13 435 -7 q 701 7 608 -19 q 883 82 794 33 q 1047 207 972 131 q 1163 372 1121 283 l 1206 344 q 988 65 1132 182 q 678 -98 843 -53 q 365 -112 513 -143 l 276 -185 q 394 -201 344 -182 q 466 -253 444 -221 q 485 -325 488 -285 q 450 -404 482 -365 q 270 -487 390 -475 q 71 -439 150 -499 q 86 -411 72 -425 q 208 -421 149 -435 q 306 -360 267 -407 q 315 -264 346 -311 q 193 -217 285 -217 l 208 -189 l 338 -106 q 226 -60 278 -90 z "},"È":{"ha":1135,"x_min":-28,"x_max":1183,"o":"m 157 -75 q 26 27 71 -33 q -24 149 -19 88 q -4 271 -28 210 q 64 378 19 332 q 167 452 108 424 q 283 479 225 481 q 231 635 235 560 q 262 768 226 711 q 356 872 297 825 q 492 943 415 918 q 647 978 569 968 q 800 974 725 988 q 928 925 875 960 q 994 840 982 889 q 990 749 1006 790 q 951 651 974 707 q 928 563 929 596 q 807 561 883 550 q 707 606 731 572 q 747 667 719 636 q 801 719 775 699 q 851 767 828 740 q 878 816 875 794 q 863 869 881 838 q 776 914 835 907 q 650 894 717 921 q 522 820 583 868 q 419 692 460 772 q 378 518 378 611 q 543 527 479 532 q 635 501 607 522 q 651 446 663 481 q 583 390 640 410 q 451 382 526 369 q 324 443 375 394 q 201 317 238 401 q 195 145 164 233 q 321 8 226 57 q 478 -26 386 -25 q 666 1 569 -28 q 854 79 763 29 q 1022 206 946 129 q 1140 371 1099 282 l 1183 344 q 1039 137 1132 231 q 833 -16 946 43 q 601 -105 721 -75 q 364 -127 481 -135 q 157 -75 247 -119 m 679 1150 q 722 1224 689 1190 q 793 1261 756 1258 q 956 1094 828 1175 q 938 1057 956 1069 q 679 1150 743 1079 z "},"É":{"ha":1135,"x_min":-28,"x_max":1183,"o":"m 157 -75 q 26 27 71 -33 q -24 149 -19 88 q -4 271 -28 210 q 64 378 19 332 q 167 452 108 424 q 283 479 225 481 q 231 635 235 560 q 262 768 226 711 q 356 872 297 825 q 492 943 415 918 q 647 978 569 968 q 800 974 725 988 q 928 925 875 960 q 994 840 982 889 q 990 749 1006 790 q 951 651 974 707 q 928 563 929 596 q 807 561 883 550 q 707 606 731 572 q 747 667 719 636 q 801 719 775 699 q 851 767 828 740 q 878 816 875 794 q 863 869 881 838 q 776 914 835 907 q 650 894 717 921 q 522 820 583 868 q 419 692 460 772 q 378 518 378 611 q 543 527 479 532 q 635 501 607 522 q 651 446 663 481 q 583 390 640 410 q 451 382 526 369 q 324 443 375 394 q 201 317 238 401 q 195 145 164 233 q 321 8 226 57 q 478 -26 386 -25 q 666 1 569 -28 q 854 79 763 29 q 1022 206 946 129 q 1140 371 1099 282 l 1183 344 q 1039 137 1132 231 q 833 -16 946 43 q 601 -105 721 -75 q 364 -127 481 -135 q 157 -75 247 -119 m 668 1047 q 675 1096 660 1061 q 935 1329 850 1207 q 988 1292 972 1331 q 989 1199 1003 1253 q 668 1047 883 1094 z "},"Ê":{"ha":1135,"x_min":-28,"x_max":1183,"o":"m 157 -75 q 26 27 71 -33 q -24 149 -19 88 q -4 271 -28 210 q 64 378 19 332 q 167 452 108 424 q 283 479 225 481 q 231 635 235 560 q 262 768 226 711 q 356 872 297 825 q 492 943 415 918 q 647 978 569 968 q 800 974 725 988 q 928 925 875 960 q 994 840 982 889 q 990 749 1006 790 q 951 651 974 707 q 928 563 929 596 q 807 561 883 550 q 707 606 731 572 q 747 667 719 636 q 801 719 775 699 q 851 767 828 740 q 878 816 875 794 q 863 869 881 838 q 776 914 835 907 q 650 894 717 921 q 522 820 583 868 q 419 692 460 772 q 378 518 378 611 q 543 527 479 532 q 635 501 607 522 q 651 446 663 481 q 583 390 640 410 q 451 382 526 369 q 324 443 375 394 q 201 317 238 401 q 195 145 164 233 q 321 8 226 57 q 478 -26 386 -25 q 666 1 569 -28 q 854 79 763 29 q 1022 206 946 129 q 1140 371 1099 282 l 1183 344 q 1039 137 1132 231 q 833 -16 946 43 q 601 -105 721 -75 q 364 -127 481 -135 q 157 -75 247 -119 m 611 1090 q 797 1265 725 1168 q 871 1239 857 1256 q 897 1171 874 1204 q 986 1079 921 1138 q 921 1014 958 1031 q 835 1185 890 1086 q 651 1014 788 1135 q 611 1090 617 1049 z "},"Ë":{"ha":1135,"x_min":-28,"x_max":1183,"o":"m 157 -75 q 26 27 71 -33 q -24 149 -19 88 q -4 271 -28 210 q 64 378 19 332 q 167 452 108 424 q 283 479 225 481 q 231 635 235 560 q 262 768 226 711 q 356 872 297 825 q 492 943 415 918 q 647 978 569 968 q 800 974 725 988 q 928 925 875 960 q 994 840 982 889 q 990 749 1006 790 q 951 651 974 707 q 928 563 929 596 q 807 561 883 550 q 707 606 731 572 q 747 667 719 636 q 801 719 775 699 q 851 767 828 740 q 878 816 875 794 q 863 869 881 838 q 776 914 835 907 q 650 894 717 921 q 522 820 583 868 q 419 692 460 772 q 378 518 378 611 q 543 527 479 532 q 635 501 607 522 q 651 446 663 481 q 583 390 640 410 q 451 382 526 369 q 324 443 375 394 q 201 317 238 401 q 195 145 164 233 q 321 8 226 57 q 478 -26 386 -25 q 666 1 569 -28 q 854 79 763 29 q 1022 206 946 129 q 1140 371 1099 282 l 1183 344 q 1039 137 1132 231 q 833 -16 946 43 q 601 -105 721 -75 q 364 -127 481 -135 q 157 -75 247 -119 m 579 1146 q 603 1163 583 1149 q 638 1188 624 1176 q 674 1217 651 1199 q 718 1256 697 1236 q 818 1181 757 1211 q 935 1275 903 1244 q 1049 1194 981 1224 q 890 1054 968 1100 q 807 1146 836 1103 q 674 1035 728 1067 q 579 1146 608 1094 z "},"Ì":{"ha":729,"x_min":-87,"x_max":778,"o":"m -18 -151 q -80 -35 -72 -106 q -60 113 -87 35 q 17 296 -32 190 q 118 505 65 401 q 218 743 171 608 q 285 1000 265 878 q 463 897 347 982 q 417 745 450 831 q 343 581 383 660 q 256 414 303 501 q 172 256 210 326 q 108 117 135 185 q 78 9 81 49 q 100 -57 76 -31 q 296 -49 165 -110 q 550 132 426 11 q 735 372 674 253 l 778 343 q 627 131 731 244 q 405 -65 524 18 q 170 -180 286 -147 q -18 -151 54 -212 m 310 1138 q 353 1212 319 1178 q 424 1249 386 1246 q 586 1082 458 1163 q 568 1044 586 1057 q 310 1138 374 1067 z "},"Í":{"ha":729,"x_min":-87,"x_max":778,"o":"m -18 -151 q -80 -35 -72 -106 q -60 113 -87 35 q 17 296 -32 190 q 118 505 65 401 q 218 743 171 608 q 285 1000 265 878 q 463 897 347 982 q 417 745 450 831 q 343 581 383 660 q 256 414 303 501 q 172 256 210 326 q 108 117 135 185 q 78 9 81 49 q 100 -57 76 -31 q 296 -49 165 -110 q 550 132 426 11 q 735 372 674 253 l 778 343 q 627 131 731 244 q 405 -65 524 18 q 170 -180 286 -147 q -18 -151 54 -212 m 299 1035 q 306 1083 290 1049 q 565 1317 481 1194 q 618 1279 603 1318 q 619 1186 633 1240 q 299 1035 514 1082 z "},"Î":{"ha":729,"x_min":-87,"x_max":778,"o":"m -18 -151 q -80 -35 -72 -106 q -60 113 -87 35 q 17 296 -32 190 q 118 505 65 401 q 218 743 171 608 q 285 1000 265 878 q 463 897 347 982 q 417 745 450 831 q 343 581 383 660 q 256 414 303 501 q 172 256 210 326 q 108 117 135 185 q 78 9 81 49 q 100 -57 76 -31 q 296 -49 165 -110 q 550 132 426 11 q 735 372 674 253 l 778 343 q 627 131 731 244 q 405 -65 524 18 q 170 -180 286 -147 q -18 -151 54 -212 m 242 1078 q 428 1253 356 1156 q 501 1226 488 1243 q 528 1158 504 1192 q 617 1067 551 1125 q 551 1001 589 1018 q 465 1172 521 1074 q 282 1001 418 1122 q 242 1078 247 1036 z "},"Ï":{"ha":729,"x_min":-87,"x_max":778,"o":"m -18 -151 q -80 -35 -72 -106 q -60 113 -87 35 q 17 296 -32 190 q 118 505 65 401 q 218 743 171 608 q 285 1000 265 878 q 463 897 347 982 q 417 745 450 831 q 343 581 383 660 q 256 414 303 501 q 172 256 210 326 q 108 117 135 185 q 78 9 81 49 q 100 -57 76 -31 q 296 -49 165 -110 q 550 132 426 11 q 735 372 674 253 l 778 343 q 627 131 731 244 q 405 -65 524 18 q 170 -180 286 -147 q -18 -151 54 -212 m 210 1133 q 234 1150 214 1136 q 268 1175 254 1164 q 305 1205 282 1186 q 349 1243 328 1224 q 449 1168 388 1199 q 565 1263 533 1232 q 679 1182 611 1211 q 521 1042 599 1088 q 438 1133 467 1090 q 304 1022 358 1054 q 210 1133 239 1082 z "},"Ð":{"ha":1529,"x_min":79,"x_max":1418,"o":"m 524 -14 q 438 6 485 -19 q 381 65 390 32 q 538 372 400 154 q 365 322 440 356 q 460 500 369 418 q 629 521 547 517 q 804 885 740 706 q 874 882 829 889 q 942 864 918 875 q 908 779 932 826 q 869 706 885 732 q 806 608 854 679 q 746 518 758 536 q 889 486 833 510 q 854 357 888 414 q 663 381 768 382 q 524 -14 554 183 m 82 194 q 156 221 111 213 q 244 219 201 229 q 250 70 225 140 q 339 -47 275 0 q 503 -110 403 -93 q 732 -99 603 -126 q 943 0 846 -75 q 1102 174 1040 75 q 1197 389 1164 274 q 1225 610 1229 504 q 1174 803 1221 715 q 1043 933 1128 890 q 908 972 981 965 q 763 959 836 979 q 626 915 689 939 q 490 844 564 890 q 376 771 417 799 q 279 701 336 743 q 201 824 206 733 q 347 888 289 864 q 501 946 406 911 q 674 994 596 981 q 842 1016 751 1008 q 1021 1006 933 1024 q 1188 949 1108 989 q 1361 791 1304 890 q 1415 580 1418 692 q 1360 348 1411 468 q 1221 127 1308 228 q 1009 -50 1133 26 q 747 -151 885 -126 q 401 -158 550 -185 q 165 -38 251 -131 q 82 194 79 54 z "},"Ñ":{"ha":1299,"x_min":-172,"x_max":1765,"o":"m 43 -315 q -90 -293 -24 -328 q -172 -208 -156 -258 q 52 -56 -58 -140 q 279 144 163 29 q 488 383 396 260 q 649 658 581 507 q 742 961 718 810 q 836 956 796 975 l 822 911 l 846 935 q 925 435 906 690 q 1269 790 1074 615 q 1643 1053 1465 965 q 1765 933 1700 1025 q 1507 838 1635 903 q 1274 690 1379 774 q 1085 526 1168 607 q 929 357 1003 446 q 875 58 939 115 q 761 33 800 -10 q 754 176 722 75 l 765 206 q 818 296 779 238 q 751 718 806 576 q 453 167 638 447 q 43 -315 269 -112 m 956 1054 q 1065 1129 1021 1113 q 1128 1131 1108 1146 q 1161 1094 1149 1117 q 1190 1054 1174 1071 q 1228 1046 1206 1038 q 1303 1125 1283 1067 q 1384 1134 1347 1144 q 1415 1079 1421 1124 q 1277 978 1353 1010 q 1167 954 1201 946 q 1144 976 1153 957 q 1133 1019 1136 996 q 1124 1059 1131 1042 q 1104 1075 1117 1076 q 1056 1032 1079 1072 q 1026 950 1033 992 q 972 983 993 947 q 956 1054 951 1018 z "},"Ò":{"ha":1153,"x_min":4,"x_max":1056,"o":"m 358 29 q 509 1 435 -7 q 649 64 583 10 q 765 194 715 118 q 841 367 814 269 q 865 561 868 465 q 747 556 799 543 q 678 608 696 568 q 805 678 763 624 q 838 792 847 733 q 781 881 829 850 q 656 906 724 911 q 505 842 588 900 q 351 683 422 783 q 241 449 276 578 q 233 201 206 319 q 358 29 260 82 m 213 -62 q 39 156 74 8 q 67 466 4 304 q 260 756 129 628 q 516 935 378 872 q 781 982 654 999 q 990 817 929 963 q 986 451 1054 661 q 686 36 907 206 q 438 -104 575 -50 q 330 -101 394 -111 q 213 -62 265 -90 m 678 1158 q 721 1233 688 1199 q 792 1269 754 1267 q 954 1103 826 1183 q 936 1065 954 1078 q 678 1158 742 1088 z "},"Ó":{"ha":1153,"x_min":4,"x_max":1056,"o":"m 358 29 q 509 1 435 -7 q 649 64 583 10 q 765 194 715 118 q 841 367 814 269 q 865 561 868 465 q 747 556 799 543 q 678 608 696 568 q 805 678 763 624 q 838 792 847 733 q 781 881 829 850 q 656 906 724 911 q 505 842 588 900 q 351 683 422 783 q 241 449 276 578 q 233 201 206 319 q 358 29 260 82 m 213 -62 q 39 156 74 8 q 67 466 4 304 q 260 756 129 628 q 516 935 378 872 q 781 982 654 999 q 990 817 929 963 q 986 451 1054 661 q 686 36 907 206 q 438 -104 575 -50 q 330 -101 394 -111 q 213 -62 265 -90 m 667 1056 q 674 1104 658 1069 q 933 1338 849 1215 q 986 1300 971 1339 q 988 1207 1001 1261 q 667 1056 882 1103 z "},"Ô":{"ha":1153,"x_min":4,"x_max":1056,"o":"m 358 29 q 509 1 435 -7 q 649 64 583 10 q 765 194 715 118 q 841 367 814 269 q 865 561 868 465 q 747 556 799 543 q 678 608 696 568 q 805 678 763 624 q 838 792 847 733 q 781 881 829 850 q 656 906 724 911 q 505 842 588 900 q 351 683 422 783 q 241 449 276 578 q 233 201 206 319 q 358 29 260 82 m 213 -62 q 39 156 74 8 q 67 466 4 304 q 260 756 129 628 q 516 935 378 872 q 781 982 654 999 q 990 817 929 963 q 986 451 1054 661 q 686 36 907 206 q 438 -104 575 -50 q 330 -101 394 -111 q 213 -62 265 -90 m 610 1099 q 796 1274 724 1176 q 869 1247 856 1264 q 896 1179 872 1213 q 985 1088 919 1146 q 919 1022 957 1039 q 833 1193 889 1094 q 650 1022 786 1143 q 610 1099 615 1057 z "},"Õ":{"ha":1153,"x_min":4,"x_max":1064,"o":"m 358 29 q 509 1 435 -7 q 649 64 583 10 q 765 194 715 118 q 841 367 814 269 q 865 561 868 465 q 747 556 799 543 q 678 608 696 568 q 805 678 763 624 q 838 792 847 733 q 781 881 829 850 q 656 906 724 911 q 505 842 588 900 q 351 683 422 783 q 241 449 276 578 q 233 201 206 319 q 358 29 260 82 m 213 -62 q 39 156 74 8 q 67 466 4 304 q 260 756 129 628 q 516 935 378 872 q 781 982 654 999 q 990 817 929 963 q 986 451 1054 661 q 686 36 907 206 q 438 -104 575 -50 q 330 -101 394 -111 q 213 -62 265 -90 m 599 1181 q 708 1256 664 1239 q 772 1258 751 1272 q 804 1220 792 1243 q 833 1181 817 1197 q 871 1172 849 1164 q 946 1251 926 1193 q 1027 1260 990 1271 q 1058 1206 1064 1250 q 920 1104 996 1136 q 810 1081 844 1072 q 788 1103 796 1083 q 776 1145 779 1122 q 767 1185 774 1168 q 747 1201 760 1203 q 699 1158 722 1199 q 669 1076 676 1118 q 615 1109 636 1074 q 599 1181 594 1144 z "},"Ö":{"ha":1153,"x_min":4,"x_max":1056,"o":"m 358 29 q 509 1 435 -7 q 649 64 583 10 q 765 194 715 118 q 841 367 814 269 q 865 561 868 465 q 747 556 799 543 q 678 608 696 568 q 805 678 763 624 q 838 792 847 733 q 781 881 829 850 q 656 906 724 911 q 505 842 588 900 q 351 683 422 783 q 241 449 276 578 q 233 201 206 319 q 358 29 260 82 m 213 -62 q 39 156 74 8 q 67 466 4 304 q 260 756 129 628 q 516 935 378 872 q 781 982 654 999 q 990 817 929 963 q 986 451 1054 661 q 686 36 907 206 q 438 -104 575 -50 q 330 -101 394 -111 q 213 -62 265 -90 m 578 1154 q 602 1171 582 1157 q 636 1196 622 1185 q 673 1226 650 1207 q 717 1264 696 1244 q 817 1189 756 1219 q 933 1283 901 1253 q 1047 1203 979 1232 q 889 1063 967 1108 q 806 1154 835 1111 q 672 1043 726 1075 q 578 1154 607 1103 z "},"×":{"ha":785,"x_min":89,"x_max":672,"o":"m 635 453 q 488 303 547 358 q 593 75 564 168 q 555 31 572 43 q 511 13 538 18 q 404 225 467 122 q 140 17 249 85 q 102 35 113 25 q 89 67 92 46 q 360 294 217 158 q 156 532 254 451 q 301 571 201 606 q 443 376 389 465 q 610 575 546 482 q 635 453 672 556 z "},"Ø":{"ha":1153,"x_min":-7,"x_max":1153,"o":"m 358 29 q 509 1 435 -7 q 649 64 583 10 q 765 194 715 118 q 841 367 814 269 q 865 561 868 465 q 713 569 768 535 q 272 106 467 343 q 358 29 308 56 m 0 -146 q 111 17 46 -74 q 40 373 -7 160 q 260 756 88 586 q 516 935 378 872 q 781 982 654 999 q 943 894 881 969 q 1053 983 1015 956 q 1131 959 1110 983 q 1144 903 1153 935 q 996 804 1074 860 q 1020 661 1019 740 q 1000 497 1021 582 q 932 325 979 413 q 818 159 885 238 q 653 11 751 81 q 438 -104 554 -58 q 330 -101 394 -111 q 213 -62 265 -90 q 164 -33 203 -58 q 79 -161 113 -103 q 0 -146 8 -189 m 238 181 q 835 801 499 501 q 781 881 824 854 q 656 906 724 911 q 505 842 588 900 q 351 683 422 783 q 238 431 272 571 q 238 181 204 290 z "},"Ù":{"ha":1229,"x_min":-71,"x_max":1278,"o":"m -12 -22 q -66 54 -61 7 q -41 160 -71 101 q 36 288 -11 219 q 140 438 83 357 q 243 601 196 519 q 319 778 290 682 q 342 960 347 874 q 506 929 460 971 q 477 796 506 868 q 406 658 449 724 q 313 526 363 593 q 221 401 263 460 q 153 290 179 342 q 131 194 126 238 q 178 125 136 151 q 390 213 238 86 q 683 483 450 261 q 704 503 694 493 q 1058 968 824 758 q 1151 882 1108 954 q 956 716 1040 811 q 829 529 871 621 q 772 353 788 438 q 771 208 756 269 q 826 125 786 147 q 1033 154 906 76 q 1235 372 1161 232 l 1278 343 q 1169 178 1235 251 q 1035 65 1104 106 q 896 2 965 24 q 769 -16 826 -19 q 675 13 711 -12 q 621 151 625 46 q 665 404 617 257 q 553 290 604 340 q 442 185 501 239 q 335 92 383 131 q 235 22 286 54 q 141 -25 183 -10 q 58 -41 99 -40 q -12 -22 18 -42 m 653 1075 q 696 1149 663 1115 q 767 1186 729 1183 q 929 1019 801 1100 q 911 982 929 994 q 653 1075 717 1004 z "},"Ú":{"ha":1229,"x_min":-71,"x_max":1278,"o":"m -12 -22 q -66 54 -61 7 q -41 160 -71 101 q 36 288 -11 219 q 140 438 83 357 q 243 601 196 519 q 319 778 290 682 q 342 960 347 874 q 506 929 460 971 q 477 796 506 868 q 406 658 449 724 q 313 526 363 593 q 221 401 263 460 q 153 290 179 342 q 131 194 126 238 q 178 125 136 151 q 390 213 238 86 q 683 483 450 261 q 704 503 694 493 q 1058 968 824 758 q 1151 882 1108 954 q 956 716 1040 811 q 829 529 871 621 q 772 353 788 438 q 771 208 756 269 q 826 125 786 147 q 1033 154 906 76 q 1235 372 1161 232 l 1278 343 q 1169 178 1235 251 q 1035 65 1104 106 q 896 2 965 24 q 769 -16 826 -19 q 675 13 711 -12 q 621 151 625 46 q 665 404 617 257 q 553 290 604 340 q 442 185 501 239 q 335 92 383 131 q 235 22 286 54 q 141 -25 183 -10 q 58 -41 99 -40 q -12 -22 18 -42 m 642 972 q 649 1021 633 986 q 908 1254 824 1132 q 961 1217 946 1256 q 963 1124 976 1178 q 642 972 857 1019 z "},"Û":{"ha":1229,"x_min":-71,"x_max":1278,"o":"m -12 -22 q -66 54 -61 7 q -41 160 -71 101 q 36 288 -11 219 q 140 438 83 357 q 243 601 196 519 q 319 778 290 682 q 342 960 347 874 q 506 929 460 971 q 477 796 506 868 q 406 658 449 724 q 313 526 363 593 q 221 401 263 460 q 153 290 179 342 q 131 194 126 238 q 178 125 136 151 q 390 213 238 86 q 683 483 450 261 q 704 503 694 493 q 1058 968 824 758 q 1151 882 1108 954 q 956 716 1040 811 q 829 529 871 621 q 772 353 788 438 q 771 208 756 269 q 826 125 786 147 q 1033 154 906 76 q 1235 372 1161 232 l 1278 343 q 1169 178 1235 251 q 1035 65 1104 106 q 896 2 965 24 q 769 -16 826 -19 q 675 13 711 -12 q 621 151 625 46 q 665 404 617 257 q 553 290 604 340 q 442 185 501 239 q 335 92 383 131 q 235 22 286 54 q 141 -25 183 -10 q 58 -41 99 -40 q -12 -22 18 -42 m 585 1015 q 771 1190 699 1093 q 844 1164 831 1181 q 871 1096 847 1129 q 960 1004 894 1063 q 894 939 932 956 q 808 1110 864 1011 q 625 939 761 1060 q 585 1015 590 974 z "},"Ü":{"ha":1229,"x_min":-71,"x_max":1278,"o":"m -12 -22 q -66 54 -61 7 q -41 160 -71 101 q 36 288 -11 219 q 140 438 83 357 q 243 601 196 519 q 319 778 290 682 q 342 960 347 874 q 506 929 460 971 q 477 796 506 868 q 406 658 449 724 q 313 526 363 593 q 221 401 263 460 q 153 290 179 342 q 131 194 126 238 q 178 125 136 151 q 390 213 238 86 q 683 483 450 261 q 704 503 694 493 q 1058 968 824 758 q 1151 882 1108 954 q 956 716 1040 811 q 829 529 871 621 q 772 353 788 438 q 771 208 756 269 q 826 125 786 147 q 1033 154 906 76 q 1235 372 1161 232 l 1278 343 q 1169 178 1235 251 q 1035 65 1104 106 q 896 2 965 24 q 769 -16 826 -19 q 675 13 711 -12 q 621 151 625 46 q 665 404 617 257 q 553 290 604 340 q 442 185 501 239 q 335 92 383 131 q 235 22 286 54 q 141 -25 183 -10 q 58 -41 99 -40 q -12 -22 18 -42 m 553 1071 q 577 1088 557 1074 q 611 1113 597 1101 q 648 1142 625 1124 q 692 1181 671 1161 q 792 1106 731 1136 q 908 1200 876 1169 q 1022 1119 954 1149 q 864 979 942 1025 q 781 1071 810 1028 q 647 960 701 992 q 553 1071 582 1019 z "},"Ý":{"ha":964,"x_min":-71,"x_max":1099,"o":"m -11 -22 q -65 54 -60 7 q -41 160 -71 101 q 36 288 -11 219 q 140 438 83 357 q 242 601 196 519 q 317 778 289 682 q 340 960 346 874 q 506 929 458 971 q 477 796 506 868 q 406 658 449 724 q 313 526 363 593 q 221 401 263 460 q 153 290 179 342 q 131 194 126 238 q 178 125 136 151 q 324 161 229 92 q 603 407 419 231 q 938 876 776 725 q 1099 786 1035 868 q 669 260 921 644 q 308 -440 417 -125 q 268 -367 268 -406 q 532 268 394 -11 q 210 7 347 89 q -11 -22 74 -75 m 619 1006 q 626 1054 611 1019 q 886 1288 801 1165 q 939 1250 924 1289 q 940 1157 954 1211 q 619 1006 835 1053 z "},"Þ":{"ha":1522,"x_min":64,"x_max":1367,"o":"m 588 -322 q 466 -344 532 -353 q 372 -297 400 -335 q 544 163 414 -115 q 835 678 675 440 q 154 378 554 668 q 64 522 68 413 q 251 603 176 574 q 441 673 325 633 q 667 731 557 713 q 881 744 776 749 q 1046 950 964 861 q 1100 929 1075 944 q 961 738 1036 853 q 1196 665 1089 719 q 1354 449 1343 593 q 1250 182 1367 310 q 863 -8 1107 26 q 628 -11 750 -25 q 588 -322 582 -196 m 643 44 q 827 41 742 31 q 979 86 913 51 q 1094 167 1046 121 q 1167 272 1143 214 q 1192 389 1190 331 q 1165 504 1193 447 q 1079 606 1136 561 q 921 674 1014 658 q 643 44 736 368 z "},"ß":{"ha":654,"x_min":-293,"x_max":703,"o":"m -293 -175 q -47 271 -214 -61 q 158 663 121 603 q 351 838 225 774 q 583 899 476 903 q 602 846 596 868 q 612 784 608 824 q 606 710 615 744 q 571 626 597 676 q 501 528 544 576 q 383 419 457 481 q 210 294 308 358 q 320 313 276 311 q 381 303 364 315 q 401 272 399 292 q 389 223 404 253 q 353 164 374 193 q 304 99 333 135 l 292 86 q 490 183 381 104 q 660 372 600 263 l 703 343 q 479 119 653 246 q 175 -24 306 -8 q 71 -96 132 -56 q 78 42 18 -64 q 177 112 132 71 q 237 189 222 153 q 208 241 251 225 q 43 236 165 257 q -112 -210 -43 35 q -221 -222 -150 -229 q -293 -175 -292 -214 m 72 304 q 260 413 171 332 q 397 590 350 493 q 428 760 443 686 q 258 637 350 761 q 72 304 165 513 z "},"à":{"ha":863,"x_min":-93,"x_max":913,"o":"m 133 26 q -34 43 25 -6 q -77 194 -93 92 q 29 407 -61 297 q 152 510 85 476 q 275 540 219 544 q 373 501 331 536 q 426 407 415 467 q 478 490 451 457 q 553 456 513 479 q 606 411 594 432 q 531 235 538 261 q 551 139 515 174 q 695 160 597 96 q 869 372 793 225 l 913 343 q 856 239 889 290 q 775 137 822 188 q 667 56 728 86 q 542 26 606 25 q 430 80 471 29 q 385 211 389 131 q 133 26 258 64 m 175 115 q 394 315 263 142 q 407 357 399 336 q 381 426 400 399 q 335 464 363 453 q 265 455 307 475 q 176 383 224 435 q 68 171 61 260 q 132 110 72 111 q 175 115 151 108 m 297 758 q 340 833 307 799 q 411 869 374 867 q 574 703 446 783 q 556 665 574 678 q 297 758 361 688 z "},"á":{"ha":863,"x_min":-93,"x_max":913,"o":"m 133 26 q -34 43 25 -6 q -77 194 -93 92 q 29 407 -61 297 q 152 510 85 476 q 275 540 219 544 q 373 501 331 536 q 426 407 415 467 q 478 490 451 457 q 553 456 513 479 q 606 411 594 432 q 531 235 538 261 q 551 139 515 174 q 695 160 597 96 q 869 372 793 225 l 913 343 q 856 239 889 290 q 775 137 822 188 q 667 56 728 86 q 542 26 606 25 q 430 80 471 29 q 385 211 389 131 q 133 26 258 64 m 175 115 q 394 315 263 142 q 407 357 399 336 q 381 426 400 399 q 335 464 363 453 q 265 455 307 475 q 176 383 224 435 q 68 171 61 260 q 132 110 72 111 q 175 115 151 108 m 286 656 q 293 704 278 669 q 553 938 468 815 q 606 900 590 939 q 607 807 621 861 q 286 656 501 703 z "},"â":{"ha":863,"x_min":-93,"x_max":913,"o":"m 133 26 q -34 43 25 -6 q -77 194 -93 92 q 29 407 -61 297 q 152 510 85 476 q 275 540 219 544 q 373 501 331 536 q 426 407 415 467 q 478 490 451 457 q 553 456 513 479 q 606 411 594 432 q 531 235 538 261 q 551 139 515 174 q 695 160 597 96 q 869 372 793 225 l 913 343 q 856 239 889 290 q 775 137 822 188 q 667 56 728 86 q 542 26 606 25 q 430 80 471 29 q 385 211 389 131 q 133 26 258 64 m 175 115 q 394 315 263 142 q 407 357 399 336 q 381 426 400 399 q 335 464 363 453 q 265 455 307 475 q 176 383 224 435 q 68 171 61 260 q 132 110 72 111 q 175 115 151 108 m 229 699 q 415 874 343 776 q 489 847 475 864 q 515 779 492 813 q 604 688 539 746 q 539 622 576 639 q 453 793 508 694 q 269 622 406 743 q 229 699 235 657 z "},"ã":{"ha":863,"x_min":-93,"x_max":913,"o":"m 133 26 q -34 43 25 -6 q -77 194 -93 92 q 29 407 -61 297 q 152 510 85 476 q 275 540 219 544 q 373 501 331 536 q 426 407 415 467 q 478 490 451 457 q 553 456 513 479 q 606 411 594 432 q 531 235 538 261 q 551 139 515 174 q 695 160 597 96 q 869 372 793 225 l 913 343 q 856 239 889 290 q 775 137 822 188 q 667 56 728 86 q 542 26 606 25 q 430 80 471 29 q 385 211 389 131 q 133 26 258 64 m 175 115 q 394 315 263 142 q 407 357 399 336 q 381 426 400 399 q 335 464 363 453 q 265 455 307 475 q 176 383 224 435 q 68 171 61 260 q 132 110 72 111 q 175 115 151 108 m 218 781 q 327 856 283 839 q 391 858 371 872 q 424 820 411 843 q 452 781 436 797 q 490 772 468 764 q 565 851 546 793 q 647 860 610 871 q 678 806 683 850 q 540 704 615 736 q 429 681 464 672 q 407 703 415 683 q 396 745 399 722 q 386 785 393 768 q 367 801 379 803 q 319 758 342 799 q 289 676 296 718 q 235 709 256 674 q 218 781 214 744 z "},"ä":{"ha":863,"x_min":-93,"x_max":913,"o":"m 133 26 q -34 43 25 -6 q -77 194 -93 92 q 29 407 -61 297 q 152 510 85 476 q 275 540 219 544 q 373 501 331 536 q 426 407 415 467 q 478 490 451 457 q 553 456 513 479 q 606 411 594 432 q 531 235 538 261 q 551 139 515 174 q 695 160 597 96 q 869 372 793 225 l 913 343 q 856 239 889 290 q 775 137 822 188 q 667 56 728 86 q 542 26 606 25 q 430 80 471 29 q 385 211 389 131 q 133 26 258 64 m 175 115 q 394 315 263 142 q 407 357 399 336 q 381 426 400 399 q 335 464 363 453 q 265 455 307 475 q 176 383 224 435 q 68 171 61 260 q 132 110 72 111 q 175 115 151 108 m 197 754 q 222 771 201 757 q 256 796 242 785 q 292 826 269 807 q 336 864 315 844 q 436 789 375 819 q 553 883 521 853 q 667 803 599 832 q 508 663 586 708 q 425 754 454 711 q 292 643 346 675 q 197 754 226 703 z "},"å":{"ha":863,"x_min":-93,"x_max":913,"o":"m 133 26 q -34 43 25 -6 q -77 194 -93 92 q 29 407 -61 297 q 152 510 85 476 q 275 540 219 544 q 373 501 331 536 q 426 407 415 467 q 478 490 451 457 q 553 456 513 479 q 606 411 594 432 q 531 235 538 261 q 551 139 515 174 q 695 160 597 96 q 869 372 793 225 l 913 343 q 856 239 889 290 q 775 137 822 188 q 667 56 728 86 q 542 26 606 25 q 430 80 471 29 q 385 211 389 131 q 133 26 258 64 m 175 115 q 394 315 263 142 q 407 357 399 336 q 381 426 400 399 q 335 464 363 453 q 265 455 307 475 q 176 383 224 435 q 68 171 61 260 q 132 110 72 111 q 175 115 151 108 m 421 672 q 260 701 282 644 q 315 814 242 749 q 536 919 399 889 q 696 893 669 949 q 651 782 717 846 q 421 672 568 701 m 433 708 q 533 771 478 713 q 564 861 592 833 q 494 874 547 878 q 382 804 418 867 q 381 724 353 754 q 433 708 397 706 z "},"æ":{"ha":1135,"x_min":-93,"x_max":1192,"o":"m 133 26 q -34 43 25 -6 q -77 194 -93 92 q 29 407 -61 297 q 161 514 89 481 q 291 539 233 547 q 389 486 349 531 q 431 369 429 442 q 467 419 443 392 q 576 512 515 479 q 690 546 636 544 q 796 533 744 547 q 868 494 839 519 q 904 436 897 468 q 897 371 911 404 q 836 305 883 338 q 715 249 789 272 q 522 197 633 222 q 597 93 526 122 q 792 99 668 64 q 992 212 886 129 q 1147 383 1097 294 l 1192 356 q 1049 195 1156 289 q 829 53 942 101 q 619 13 718 10 q 451 69 521 17 q 378 203 382 121 q 133 26 257 63 m 175 115 q 408 336 271 144 q 388 415 406 382 q 342 462 371 447 q 270 458 314 476 q 176 383 226 439 q 68 171 61 260 q 132 110 72 111 q 175 115 151 108 m 525 235 q 679 290 574 250 q 815 404 792 338 q 785 474 832 454 q 764 479 775 478 q 614 396 697 486 q 525 235 539 315 z "},"ç":{"ha":711,"x_min":-114,"x_max":761,"o":"m 399 53 q 172 14 282 3 l 181 8 l 92 -64 q 210 -81 160 -61 q 281 -132 260 -100 q 300 -204 303 -164 q 265 -283 297 -244 q 85 -366 206 -354 q -114 -318 -35 -378 q -99 -290 -111 -303 q 23 -300 -36 -314 q 121 -239 82 -286 q 131 -143 161 -190 q 8 -96 100 -96 l 24 -68 l 156 17 q 33 60 85 26 q -42 146 -18 94 q -47 269 -65 197 q 35 419 -29 342 q 144 513 83 479 q 260 547 206 546 q 365 535 314 549 q 459 438 444 508 q 406 313 474 367 q 306 356 319 301 q 385 425 368 376 q 360 483 400 468 q 349 486 354 485 q 183 396 274 496 q 99 255 118 324 q 108 143 81 186 q 199 83 136 100 q 360 99 261 67 q 563 207 458 129 q 717 372 667 285 l 761 344 q 618 191 725 281 q 399 53 511 101 z "},"è":{"ha":715,"x_min":-58,"x_max":765,"o":"m 403 53 q 258 15 332 22 q 123 24 183 8 q 19 75 63 39 q -42 161 -25 111 q -39 279 -58 211 q 40 419 -19 347 q 149 512 89 479 q 264 546 210 544 q 369 533 318 547 q 442 494 413 519 q 478 436 471 468 q 471 371 485 404 q 410 305 457 338 q 289 249 363 272 q 96 197 207 222 q 171 93 100 122 q 365 99 242 64 q 565 212 460 129 q 721 383 671 294 l 765 356 q 622 195 729 289 q 403 53 515 101 m 99 235 q 253 290 147 250 q 389 404 365 338 q 358 474 406 454 q 338 479 349 478 q 188 396 271 486 q 99 235 113 315 m 282 765 q 325 840 292 806 q 396 876 358 874 q 558 710 431 790 q 540 672 558 685 q 282 765 346 694 z "},"é":{"ha":715,"x_min":-58,"x_max":765,"o":"m 403 53 q 258 15 332 22 q 123 24 183 8 q 19 75 63 39 q -42 161 -25 111 q -39 279 -58 211 q 40 419 -19 347 q 149 512 89 479 q 264 546 210 544 q 369 533 318 547 q 442 494 413 519 q 478 436 471 468 q 471 371 485 404 q 410 305 457 338 q 289 249 363 272 q 96 197 207 222 q 171 93 100 122 q 365 99 242 64 q 565 212 460 129 q 721 383 671 294 l 765 356 q 622 195 729 289 q 403 53 515 101 m 99 235 q 253 290 147 250 q 389 404 365 338 q 358 474 406 454 q 338 479 349 478 q 188 396 271 486 q 99 235 113 315 m 271 663 q 278 711 263 676 q 538 944 453 822 q 590 907 575 946 q 592 814 606 868 q 271 663 486 710 z "},"ê":{"ha":715,"x_min":-58,"x_max":765,"o":"m 403 53 q 258 15 332 22 q 123 24 183 8 q 19 75 63 39 q -42 161 -25 111 q -39 279 -58 211 q 40 419 -19 347 q 149 512 89 479 q 264 546 210 544 q 369 533 318 547 q 442 494 413 519 q 478 436 471 468 q 471 371 485 404 q 410 305 457 338 q 289 249 363 272 q 96 197 207 222 q 171 93 100 122 q 365 99 242 64 q 565 212 460 129 q 721 383 671 294 l 765 356 q 622 195 729 289 q 403 53 515 101 m 99 235 q 253 290 147 250 q 389 404 365 338 q 358 474 406 454 q 338 479 349 478 q 188 396 271 486 q 99 235 113 315 m 214 706 q 400 881 328 783 q 474 854 460 871 q 500 786 476 819 q 589 694 524 753 q 524 629 561 646 q 438 800 493 701 q 254 629 390 750 q 214 706 219 664 z "},"ë":{"ha":715,"x_min":-58,"x_max":765,"o":"m 403 53 q 258 15 332 22 q 123 24 183 8 q 19 75 63 39 q -42 161 -25 111 q -39 279 -58 211 q 40 419 -19 347 q 149 512 89 479 q 264 546 210 544 q 369 533 318 547 q 442 494 413 519 q 478 436 471 468 q 471 371 485 404 q 410 305 457 338 q 289 249 363 272 q 96 197 207 222 q 171 93 100 122 q 365 99 242 64 q 565 212 460 129 q 721 383 671 294 l 765 356 q 622 195 729 289 q 403 53 515 101 m 99 235 q 253 290 147 250 q 389 404 365 338 q 358 474 406 454 q 338 479 349 478 q 188 396 271 486 q 99 235 113 315 m 182 761 q 206 778 186 764 q 240 803 226 792 q 277 833 254 814 q 321 871 300 851 q 421 796 360 826 q 538 890 506 860 q 651 810 583 839 q 493 669 571 715 q 410 761 439 718 q 276 650 331 682 q 182 761 211 710 z "},"ì":{"ha":457,"x_min":-29,"x_max":507,"o":"m 135 26 q 29 75 69 29 q -20 188 -11 121 q -6 337 -29 254 q 71 490 17 419 q 147 456 106 479 q 199 411 188 432 q 177 364 190 392 q 158 321 164 336 q 142 284 151 306 q 129 251 133 263 q 122 224 125 239 q 118 199 118 208 q 120 177 118 189 q 128 156 122 165 q 144 139 135 147 q 289 160 192 96 q 463 372 386 225 l 507 343 q 450 239 483 290 q 369 137 417 188 q 260 56 322 86 q 135 26 199 25 m 85 689 q 128 763 94 729 q 199 800 161 797 q 361 633 233 714 q 343 596 361 608 q 85 689 149 618 z "},"í":{"ha":457,"x_min":-29,"x_max":507,"o":"m 135 26 q 29 75 69 29 q -20 188 -11 121 q -6 337 -29 254 q 71 490 17 419 q 147 456 106 479 q 199 411 188 432 q 177 364 190 392 q 158 321 164 336 q 142 284 151 306 q 129 251 133 263 q 122 224 125 239 q 118 199 118 208 q 120 177 118 189 q 128 156 122 165 q 144 139 135 147 q 289 160 192 96 q 463 372 386 225 l 507 343 q 450 239 483 290 q 369 137 417 188 q 260 56 322 86 q 135 26 199 25 m 74 586 q 81 635 65 600 q 340 868 256 746 q 393 831 378 869 q 394 738 408 792 q 74 586 289 633 z "},"î":{"ha":457,"x_min":-29,"x_max":507,"o":"m 135 26 q 29 75 69 29 q -20 188 -11 121 q -6 337 -29 254 q 71 490 17 419 q 147 456 106 479 q 199 411 188 432 q 177 364 190 392 q 158 321 164 336 q 142 284 151 306 q 129 251 133 263 q 122 224 125 239 q 118 199 118 208 q 120 177 118 189 q 128 156 122 165 q 144 139 135 147 q 289 160 192 96 q 463 372 386 225 l 507 343 q 450 239 483 290 q 369 137 417 188 q 260 56 322 86 q 135 26 199 25 m 17 629 q 203 804 131 707 q 276 778 263 794 q 303 710 279 743 q 392 618 326 676 q 326 553 364 569 q 240 724 296 625 q 57 553 193 674 q 17 629 22 588 z "},"ï":{"ha":457,"x_min":-29,"x_max":507,"o":"m 135 26 q 29 75 69 29 q -20 188 -11 121 q -6 337 -29 254 q 71 490 17 419 q 147 456 106 479 q 199 411 188 432 q 177 364 190 392 q 158 321 164 336 q 142 284 151 306 q 129 251 133 263 q 122 224 125 239 q 118 199 118 208 q 120 177 118 189 q 128 156 122 165 q 144 139 135 147 q 289 160 192 96 q 463 372 386 225 l 507 343 q 450 239 483 290 q 369 137 417 188 q 260 56 322 86 q 135 26 199 25 m -15 685 q 9 701 -11 688 q 43 726 29 715 q 80 756 57 738 q 124 794 103 775 q 224 719 163 750 q 340 814 308 783 q 454 733 386 763 q 296 593 374 639 q 213 685 242 642 q 79 574 133 606 q -15 685 14 633 z "},"ð":{"ha":654,"x_min":-76,"x_max":703,"o":"m 242 69 q 86 -31 156 -18 q -6 8 40 -37 q -64 131 -51 54 q -26 307 -76 207 q 263 571 71 485 q 319 538 283 569 q 76 321 138 456 q 71 172 35 229 q 136 140 93 139 q 261 268 200 143 q 319 538 322 393 q 293 683 315 622 q 144 629 200 644 q 139 686 136 647 q 263 750 140 686 q 185 846 232 803 q 203 873 185 857 q 242 897 222 889 q 329 789 288 851 q 490 899 438 856 q 539 826 539 875 q 371 719 474 772 q 328 200 489 479 q 503 220 407 181 q 660 372 599 260 l 703 343 q 583 201 664 260 q 419 118 501 142 q 261 96 336 94 l 242 69 z "},"ñ":{"ha":786,"x_min":-83,"x_max":836,"o":"m 21 -6 q -83 50 -49 3 q -10 249 -37 111 q 14 494 18 386 q 135 451 79 508 q 117 215 150 358 q 394 483 301 385 l 396 482 q 399 486 397 483 q 401 490 400 489 q 477 455 436 478 q 529 411 518 432 q 508 363 521 392 q 488 320 494 335 q 472 284 481 306 q 458 251 463 263 q 451 224 454 239 q 447 199 447 208 q 449 177 447 189 q 458 156 451 165 q 474 139 464 147 q 619 160 521 96 q 793 372 718 225 l 836 343 q 780 240 814 292 q 699 137 746 188 q 591 56 653 86 q 465 26 529 25 q 324 133 363 31 q 331 357 285 235 q 53 42 201 249 q 21 -6 38 15 m 131 689 q 240 764 196 747 q 303 766 283 781 q 336 728 324 751 q 365 689 349 706 q 403 681 381 672 q 478 760 458 701 q 559 769 522 779 q 590 714 596 758 q 452 613 528 644 q 342 589 376 581 q 319 611 328 592 q 308 653 311 631 q 299 694 306 676 q 279 710 292 711 q 231 667 254 707 q 201 585 208 626 q 147 617 168 582 q 131 689 126 653 z "},"ò":{"ha":690,"x_min":-50,"x_max":740,"o":"m 158 26 q -24 172 7 44 q 22 410 -50 283 q 194 563 90 529 q 256 572 225 572 q 310 501 288 572 q 384 555 339 554 q 469 486 429 556 q 486 333 494 443 q 696 372 633 294 l 740 343 q 630 275 711 292 q 471 276 549 258 q 421 182 446 222 q 358 99 396 142 q 269 38 319 57 q 158 26 218 19 m 136 121 q 276 148 197 90 q 390 301 354 206 q 347 313 375 296 q 300 354 319 329 q 292 446 285 399 q 197 405 240 436 q 127 333 153 374 q 90 251 101 293 q 91 174 79 210 q 136 121 103 138 m 244 771 q 288 845 254 811 q 358 882 321 879 q 521 715 393 796 q 503 678 521 690 q 244 771 308 700 z "},"ó":{"ha":690,"x_min":-50,"x_max":740,"o":"m 158 26 q -24 172 7 44 q 22 410 -50 283 q 194 563 90 529 q 256 572 225 572 q 310 501 288 572 q 384 555 339 554 q 469 486 429 556 q 486 333 494 443 q 696 372 633 294 l 740 343 q 630 275 711 292 q 471 276 549 258 q 421 182 446 222 q 358 99 396 142 q 269 38 319 57 q 158 26 218 19 m 136 121 q 276 148 197 90 q 390 301 354 206 q 347 313 375 296 q 300 354 319 329 q 292 446 285 399 q 197 405 240 436 q 127 333 153 374 q 90 251 101 293 q 91 174 79 210 q 136 121 103 138 m 233 668 q 240 717 225 682 q 500 950 415 828 q 553 913 538 951 q 554 819 568 874 q 233 668 449 715 z "},"ô":{"ha":690,"x_min":-50,"x_max":740,"o":"m 158 26 q -24 172 7 44 q 22 410 -50 283 q 194 563 90 529 q 256 572 225 572 q 310 501 288 572 q 384 555 339 554 q 469 486 429 556 q 486 333 494 443 q 696 372 633 294 l 740 343 q 630 275 711 292 q 471 276 549 258 q 421 182 446 222 q 358 99 396 142 q 269 38 319 57 q 158 26 218 19 m 136 121 q 276 148 197 90 q 390 301 354 206 q 347 313 375 296 q 300 354 319 329 q 292 446 285 399 q 197 405 240 436 q 127 333 153 374 q 90 251 101 293 q 91 174 79 210 q 136 121 103 138 m 176 711 q 363 886 290 789 q 436 860 422 876 q 463 792 439 825 q 551 700 486 758 q 486 635 524 651 q 400 806 456 707 q 217 635 353 756 q 176 711 182 669 z "},"õ":{"ha":690,"x_min":-50,"x_max":740,"o":"m 158 26 q -24 172 7 44 q 22 410 -50 283 q 194 563 90 529 q 256 572 225 572 q 310 501 288 572 q 384 555 339 554 q 469 486 429 556 q 486 333 494 443 q 696 372 633 294 l 740 343 q 630 275 711 292 q 471 276 549 258 q 421 182 446 222 q 358 99 396 142 q 269 38 319 57 q 158 26 218 19 m 136 121 q 276 148 197 90 q 390 301 354 206 q 347 313 375 296 q 300 354 319 329 q 292 446 285 399 q 197 405 240 436 q 127 333 153 374 q 90 251 101 293 q 91 174 79 210 q 136 121 103 138 m 165 793 q 274 868 231 851 q 338 870 318 885 q 371 833 358 856 q 399 793 383 810 q 438 785 415 776 q 513 864 493 806 q 594 873 557 883 q 625 818 631 863 q 487 717 563 749 q 376 693 411 685 q 354 715 363 696 q 343 758 346 735 q 333 798 340 781 q 314 814 326 815 q 266 771 289 811 q 236 689 243 731 q 182 722 203 686 q 165 793 161 757 z "},"ö":{"ha":690,"x_min":-50,"x_max":740,"o":"m 158 26 q -24 172 7 44 q 22 410 -50 283 q 194 563 90 529 q 256 572 225 572 q 310 501 288 572 q 384 555 339 554 q 469 486 429 556 q 486 333 494 443 q 696 372 633 294 l 740 343 q 630 275 711 292 q 471 276 549 258 q 421 182 446 222 q 358 99 396 142 q 269 38 319 57 q 158 26 218 19 m 136 121 q 276 148 197 90 q 390 301 354 206 q 347 313 375 296 q 300 354 319 329 q 292 446 285 399 q 197 405 240 436 q 127 333 153 374 q 90 251 101 293 q 91 174 79 210 q 136 121 103 138 m 144 767 q 169 783 149 769 q 203 808 189 797 q 240 838 217 819 q 283 876 263 857 q 383 801 322 832 q 500 896 468 865 q 614 815 546 844 q 456 675 533 721 q 372 767 401 724 q 239 656 293 688 q 144 767 174 715 z "},"÷":{"ha":806,"x_min":47,"x_max":724,"o":"m 356 181 q 432 83 411 131 q 372 37 406 69 q 314 -28 338 4 q 219 43 249 1 q 356 181 264 126 m 53 199 q 75 265 47 232 q 146 322 103 299 q 469 338 317 342 q 715 313 621 335 q 692 226 724 267 q 511 243 614 239 q 281 237 408 247 q 53 199 154 226 m 339 489 q 475 626 383 572 q 551 529 531 576 q 491 483 525 515 q 433 418 457 450 q 339 489 368 447 z "},"ø":{"ha":690,"x_min":-196,"x_max":754,"o":"m 158 26 q 74 50 111 32 q -131 -237 -65 -121 q -196 -224 -187 -260 q 22 88 -108 -78 q -28 224 -28 139 q 8 385 -29 308 q 113 517 46 461 q 256 572 181 572 q 310 501 288 572 q 363 551 331 539 q 429 538 396 563 q 672 757 579 683 q 737 735 719 757 q 749 688 754 714 q 475 475 631 615 q 486 333 492 431 q 696 372 633 294 l 740 343 q 630 275 711 292 q 471 276 549 258 q 421 182 446 222 q 358 99 396 142 q 269 38 319 57 q 158 26 218 19 m 92 172 q 290 396 192 293 q 292 446 288 425 q 171 383 224 432 q 97 276 118 335 q 92 172 76 218 m 133 122 l 136 121 q 276 148 197 90 q 390 301 354 206 q 324 329 368 293 q 133 122 240 244 z "},"ù":{"ha":850,"x_min":-35,"x_max":900,"o":"m 99 29 q 13 73 46 36 q -27 165 -19 110 q -24 285 -35 221 q 24 416 -12 349 q 114 539 60 483 q 190 498 150 531 q 243 438 229 465 q 129 307 172 368 q 77 197 86 246 q 107 126 68 149 q 244 171 160 97 q 408 396 329 244 q 465 493 428 442 q 540 459 499 483 q 593 413 582 435 q 573 370 585 396 q 555 331 561 344 q 540 297 549 317 q 528 266 532 276 q 519 240 524 256 q 514 216 514 225 q 513 195 514 207 q 516 176 513 183 q 525 159 519 168 q 539 142 531 150 q 682 163 585 99 q 856 375 779 228 l 900 347 q 842 243 876 294 q 762 140 808 192 q 653 58 715 89 q 528 29 592 28 q 408 94 449 32 q 372 250 367 157 q 247 82 313 144 q 99 29 182 19 m 254 706 q 297 780 264 746 q 368 817 331 814 q 531 650 403 731 q 513 613 531 625 q 254 706 318 635 z "},"ú":{"ha":850,"x_min":-35,"x_max":900,"o":"m 99 29 q 13 73 46 36 q -27 165 -19 110 q -24 285 -35 221 q 24 416 -12 349 q 114 539 60 483 q 190 498 150 531 q 243 438 229 465 q 129 307 172 368 q 77 197 86 246 q 107 126 68 149 q 244 171 160 97 q 408 396 329 244 q 465 493 428 442 q 540 459 499 483 q 593 413 582 435 q 573 370 585 396 q 555 331 561 344 q 540 297 549 317 q 528 266 532 276 q 519 240 524 256 q 514 216 514 225 q 513 195 514 207 q 516 176 513 183 q 525 159 519 168 q 539 142 531 150 q 682 163 585 99 q 856 375 779 228 l 900 347 q 842 243 876 294 q 762 140 808 192 q 653 58 715 89 q 528 29 592 28 q 408 94 449 32 q 372 250 367 157 q 247 82 313 144 q 99 29 182 19 m 243 603 q 250 651 235 617 q 510 885 425 763 q 563 847 547 886 q 564 754 578 808 q 243 603 458 650 z "},"û":{"ha":850,"x_min":-35,"x_max":900,"o":"m 99 29 q 13 73 46 36 q -27 165 -19 110 q -24 285 -35 221 q 24 416 -12 349 q 114 539 60 483 q 190 498 150 531 q 243 438 229 465 q 129 307 172 368 q 77 197 86 246 q 107 126 68 149 q 244 171 160 97 q 408 396 329 244 q 465 493 428 442 q 540 459 499 483 q 593 413 582 435 q 573 370 585 396 q 555 331 561 344 q 540 297 549 317 q 528 266 532 276 q 519 240 524 256 q 514 216 514 225 q 513 195 514 207 q 516 176 513 183 q 525 159 519 168 q 539 142 531 150 q 682 163 585 99 q 856 375 779 228 l 900 347 q 842 243 876 294 q 762 140 808 192 q 653 58 715 89 q 528 29 592 28 q 408 94 449 32 q 372 250 367 157 q 247 82 313 144 q 99 29 182 19 m 186 646 q 372 821 300 724 q 446 794 432 811 q 472 726 449 760 q 561 635 496 693 q 496 569 533 586 q 410 740 465 642 q 226 569 363 690 q 186 646 192 604 z "},"ü":{"ha":850,"x_min":-35,"x_max":900,"o":"m 99 29 q 13 73 46 36 q -27 165 -19 110 q -24 285 -35 221 q 24 416 -12 349 q 114 539 60 483 q 190 498 150 531 q 243 438 229 465 q 129 307 172 368 q 77 197 86 246 q 107 126 68 149 q 244 171 160 97 q 408 396 329 244 q 465 493 428 442 q 540 459 499 483 q 593 413 582 435 q 573 370 585 396 q 555 331 561 344 q 540 297 549 317 q 528 266 532 276 q 519 240 524 256 q 514 216 514 225 q 513 195 514 207 q 516 176 513 183 q 525 159 519 168 q 539 142 531 150 q 682 163 585 99 q 856 375 779 228 l 900 347 q 842 243 876 294 q 762 140 808 192 q 653 58 715 89 q 528 29 592 28 q 408 94 449 32 q 372 250 367 157 q 247 82 313 144 q 99 29 182 19 m 154 701 q 178 718 158 704 q 213 743 199 732 q 249 773 226 754 q 293 811 272 792 q 393 736 332 767 q 510 831 478 800 q 624 750 556 779 q 465 610 543 656 q 382 701 411 658 q 249 590 303 622 q 154 701 183 650 z "},"ý":{"ha":850,"x_min":-236,"x_max":900,"o":"m 143 -261 q -22 -307 56 -303 q -142 -290 -99 -311 q -199 -232 -185 -268 q -159 -80 -236 -136 q 61 -26 -82 -24 q 276 -7 175 -26 q 372 242 369 150 l 372 247 q 100 29 242 11 q 1 94 35 39 q -30 222 -32 149 q 10 383 -28 296 q 115 539 47 471 q 192 499 153 531 q 246 438 232 467 q 132 306 175 368 q 81 197 89 244 q 110 126 72 149 q 243 167 161 97 q 400 381 325 238 q 464 493 424 440 q 539 459 497 483 q 592 413 581 435 q 536 290 542 304 q 408 22 483 151 q 583 85 494 47 q 732 194 661 117 q 856 375 803 272 l 900 347 q 806 194 865 271 q 674 69 746 118 q 365 -46 549 -10 q 143 -261 258 -207 m -75 -207 q 10 -240 -49 -243 q 124 -194 69 -236 q 240 -64 183 -147 q 44 -75 142 -75 q -57 -96 -19 -75 q -96 -146 -94 -117 q -75 -207 -97 -175 m 236 610 q 243 658 228 624 q 503 892 418 769 q 556 854 540 893 q 557 761 571 815 q 236 610 451 657 z "},"þ":{"ha":753,"x_min":-331,"x_max":803,"o":"m -224 -424 q -331 -368 -294 -415 q -20 310 -256 -260 q 226 1007 215 881 q 346 963 290 1019 q 156 406 350 893 q 458 472 340 561 q 509 284 536 411 q 378 81 482 157 q 575 166 457 82 q 758 372 693 250 l 803 343 q 728 237 778 294 q 608 126 678 179 q 449 44 539 72 q 274 32 360 17 q 235 25 261 28 q 28 99 90 11 q -224 -424 -157 -335 m 83 229 q 131 199 113 221 q 126 155 128 181 q 141 105 125 129 q 189 79 157 81 q 278 113 233 75 q 349 203 324 150 q 381 313 375 257 q 350 401 386 368 q 113 301 268 475 l 83 229 z "},"ÿ":{"ha":850,"x_min":-236,"x_max":900,"o":"m 143 -261 q -22 -307 56 -303 q -142 -290 -99 -311 q -199 -232 -185 -268 q -159 -80 -236 -136 q 61 -26 -82 -24 q 276 -7 175 -26 q 372 242 369 150 l 372 247 q 100 29 242 11 q 1 94 35 39 q -30 222 -32 149 q 10 383 -28 296 q 115 539 47 471 q 192 499 153 531 q 246 438 232 467 q 132 306 175 368 q 81 197 89 244 q 110 126 72 149 q 243 167 161 97 q 400 381 325 238 q 464 493 424 440 q 539 459 497 483 q 592 413 581 435 q 536 290 542 304 q 408 22 483 151 q 583 85 494 47 q 732 194 661 117 q 856 375 803 272 l 900 347 q 806 194 865 271 q 674 69 746 118 q 365 -46 549 -10 q 143 -261 258 -207 m -75 -207 q 10 -240 -49 -243 q 124 -194 69 -236 q 240 -64 183 -147 q 44 -75 142 -75 q -57 -96 -19 -75 q -96 -146 -94 -117 q -75 -207 -97 -175 m 147 708 q 172 725 151 711 q 206 750 192 739 q 242 780 219 761 q 286 818 265 799 q 386 743 325 774 q 503 838 471 807 q 617 757 549 786 q 458 617 536 663 q 375 708 404 665 q 242 597 296 629 q 147 708 176 657 z "},"Ā":{"ha":1376,"x_min":-154,"x_max":1424,"o":"m 60 -279 q -74 -255 -8 -290 q -154 -168 -139 -219 q 358 388 -6 56 q 35 350 190 385 q 99 485 32 408 q 450 471 210 510 q 1121 950 849 815 q 1153 897 1149 931 l 1114 874 q 1144 876 1133 876 q 963 407 1007 636 q 999 126 918 178 q 1192 154 1076 78 q 1381 372 1308 231 l 1424 343 q 1318 178 1381 251 q 1190 65 1256 106 q 1059 2 1125 24 q 938 -16 993 -19 q 847 13 883 -12 q 831 322 757 74 q 522 383 707 371 q 228 28 351 204 q 60 -279 104 -147 m 583 446 q 849 383 692 424 q 1057 839 915 579 q 583 446 821 683 m 968 1078 q 1003 1144 974 1104 q 1349 1143 1231 1121 q 1351 1092 1358 1122 q 1329 1036 1344 1061 q 1179 1031 1263 1019 q 1049 1053 1096 1042 q 968 1078 1003 1064 z "},"ā":{"ha":863,"x_min":-93,"x_max":913,"o":"m 133 26 q -34 43 25 -6 q -77 194 -93 92 q 29 407 -61 297 q 152 510 85 476 q 275 540 219 544 q 373 501 331 536 q 426 407 415 467 q 478 490 451 457 q 553 456 513 479 q 606 411 594 432 q 531 235 538 261 q 551 139 515 174 q 695 160 597 96 q 869 372 793 225 l 913 343 q 856 239 889 290 q 775 137 822 188 q 667 56 728 86 q 542 26 606 25 q 430 80 471 29 q 385 211 389 131 q 133 26 258 64 m 175 115 q 394 315 263 142 q 407 357 399 336 q 381 426 400 399 q 335 464 363 453 q 265 455 307 475 q 176 383 224 435 q 68 171 61 260 q 132 110 72 111 q 175 115 151 108 m 201 711 q 236 778 207 738 q 582 776 464 754 q 585 725 592 756 q 563 669 578 694 q 413 664 496 653 q 283 686 329 675 q 201 711 236 697 z "},"Ă":{"ha":1376,"x_min":-154,"x_max":1426,"o":"m 60 -279 q -74 -255 -8 -290 q -154 -168 -139 -219 q 358 388 -6 56 q 35 350 190 385 q 99 485 32 408 q 450 471 210 510 q 1121 950 849 815 q 1153 897 1149 931 l 1114 874 q 1144 876 1133 876 q 963 407 1007 636 q 999 126 918 178 q 1192 154 1076 78 q 1381 372 1308 231 l 1424 343 q 1318 178 1381 251 q 1190 65 1256 106 q 1059 2 1125 24 q 938 -16 993 -19 q 847 13 883 -12 q 831 322 757 74 q 522 383 707 371 q 228 28 351 204 q 60 -279 104 -147 m 583 446 q 849 383 692 424 q 1057 839 915 579 q 583 446 821 683 m 974 1171 q 1045 1214 1007 1201 q 1108 1222 1083 1226 q 1135 1203 1132 1217 q 1163 1097 1131 1131 q 1245 1088 1194 1064 q 1338 1193 1296 1113 q 1383 1207 1361 1206 q 1415 1201 1404 1208 q 1424 1185 1426 1194 q 1272 1044 1371 1088 q 1085 1035 1174 1001 q 974 1171 996 1068 z "},"ă":{"ha":863,"x_min":-93,"x_max":913,"o":"m 133 26 q -34 43 25 -6 q -77 194 -93 92 q 29 407 -61 297 q 152 510 85 476 q 275 540 219 544 q 373 501 331 536 q 426 407 415 467 q 478 490 451 457 q 553 456 513 479 q 606 411 594 432 q 531 235 538 261 q 551 139 515 174 q 695 160 597 96 q 869 372 793 225 l 913 343 q 856 239 889 290 q 775 137 822 188 q 667 56 728 86 q 542 26 606 25 q 430 80 471 29 q 385 211 389 131 q 133 26 258 64 m 175 115 q 394 315 263 142 q 407 357 399 336 q 381 426 400 399 q 335 464 363 453 q 265 455 307 475 q 176 383 224 435 q 68 171 61 260 q 132 110 72 111 q 175 115 151 108 m 207 804 q 278 847 240 835 q 341 855 317 860 q 368 836 365 850 q 396 731 364 764 q 478 722 428 697 q 571 826 529 746 q 616 840 594 839 q 649 835 638 842 q 657 818 660 828 q 506 678 604 721 q 318 668 407 635 q 207 804 229 701 z "},"Ą":{"ha":1376,"x_min":-154,"x_max":1424,"o":"m 60 -279 q -74 -255 -8 -290 q -154 -168 -139 -219 q 358 388 -6 56 q 35 350 190 385 q 99 485 32 408 q 450 471 210 510 q 1121 950 849 815 q 1153 897 1149 931 l 1114 874 q 1144 876 1133 876 q 963 407 1007 636 q 999 126 918 178 q 1192 154 1076 78 q 1381 372 1308 231 l 1424 343 q 1238 99 1353 189 q 1007 -11 1122 8 q 831 -142 881 -65 q 813 -258 781 -218 q 936 -278 857 -310 q 939 -293 943 -282 q 783 -377 860 -364 q 668 -343 707 -390 q 648 -293 650 -322 q 663 -228 646 -264 q 712 -157 679 -193 q 803 -83 744 -121 q 939 -15 863 -46 q 847 13 881 -11 q 831 322 757 74 q 522 383 707 371 q 228 28 351 204 q 60 -279 104 -147 m 583 446 q 849 383 692 424 q 1057 839 915 579 q 583 446 821 683 z "},"ą":{"ha":863,"x_min":-93,"x_max":913,"o":"m 133 26 q -34 43 25 -6 q -77 194 -93 92 q 29 407 -61 297 q 152 510 85 476 q 275 540 219 544 q 373 501 331 536 q 426 407 415 467 q 478 490 451 457 q 553 456 513 479 q 606 411 594 432 q 531 235 538 261 q 551 139 515 174 q 695 160 597 96 q 869 372 793 225 l 913 343 q 767 128 861 226 q 556 26 672 31 q 395 -101 440 -29 q 381 -212 350 -174 q 504 -232 425 -264 q 507 -247 511 -236 q 351 -331 428 -318 q 236 -297 275 -344 q 216 -247 218 -276 q 231 -183 214 -218 q 281 -111 247 -147 q 373 -37 314 -75 q 508 31 432 0 q 421 93 453 44 q 385 211 389 142 q 133 26 258 64 m 175 115 q 394 315 263 142 q 407 357 399 336 q 381 426 400 399 q 335 464 363 453 q 265 455 307 475 q 176 383 224 435 q 68 171 61 260 q 132 110 72 111 q 175 115 151 108 z "},"Ć":{"ha":1156,"x_min":13,"x_max":1206,"o":"m 226 -60 q 28 297 13 64 q 201 689 40 494 q 554 950 356 875 q 951 925 781 1036 q 1007 854 996 896 q 1003 766 1018 813 q 966 676 988 719 q 923 585 944 632 q 899 508 901 538 q 778 506 856 494 q 678 553 701 518 q 724 621 690 583 q 791 687 758 658 q 854 751 824 715 q 892 812 885 786 q 883 869 900 838 q 780 926 846 918 q 642 907 714 935 q 494 820 569 879 q 363 683 418 761 q 254 452 288 578 q 249 208 221 326 q 372 31 276 90 q 522 -13 435 -7 q 701 7 608 -19 q 883 82 794 33 q 1047 207 972 131 q 1163 372 1121 283 l 1206 344 q 1019 92 1140 201 q 760 -71 897 -17 q 478 -124 622 -125 q 226 -60 335 -124 m 715 1028 q 722 1076 707 1042 q 982 1310 897 1188 q 1035 1272 1019 1311 q 1036 1179 1050 1233 q 715 1028 931 1075 z "},"ć":{"ha":711,"x_min":-64,"x_max":761,"o":"m 399 53 q 252 15 326 22 q 117 24 178 8 q 13 75 57 39 q -47 161 -31 111 q -44 279 -64 211 q 35 419 -25 347 q 144 513 83 479 q 260 547 206 546 q 365 535 314 549 q 459 438 444 508 q 406 313 474 367 q 306 356 319 301 q 385 425 368 376 q 360 483 400 468 q 349 486 354 485 q 183 396 274 496 q 99 255 118 324 q 108 143 81 186 q 199 83 136 100 q 360 99 261 67 q 563 207 458 129 q 717 372 667 285 l 761 344 q 618 191 725 281 q 399 53 511 101 m 217 622 q 224 671 208 636 q 483 904 399 782 q 536 867 521 906 q 538 774 551 828 q 217 622 432 669 z "},"Ĉ":{"ha":1156,"x_min":13,"x_max":1206,"o":"m 226 -60 q 28 297 13 64 q 201 689 40 494 q 554 950 356 875 q 951 925 781 1036 q 1007 854 996 896 q 1003 766 1018 813 q 966 676 988 719 q 923 585 944 632 q 899 508 901 538 q 778 506 856 494 q 678 553 701 518 q 724 621 690 583 q 791 687 758 658 q 854 751 824 715 q 892 812 885 786 q 883 869 900 838 q 780 926 846 918 q 642 907 714 935 q 494 820 569 879 q 363 683 418 761 q 254 452 288 578 q 249 208 221 326 q 372 31 276 90 q 522 -13 435 -7 q 701 7 608 -19 q 883 82 794 33 q 1047 207 972 131 q 1163 372 1121 283 l 1206 344 q 1019 92 1140 201 q 760 -71 897 -17 q 478 -124 622 -125 q 226 -60 335 -124 m 658 1071 q 844 1246 772 1149 q 918 1219 904 1236 q 944 1151 921 1185 q 1033 1060 968 1118 q 968 994 1006 1011 q 882 1165 938 1067 q 699 994 835 1115 q 658 1071 664 1029 z "},"ĉ":{"ha":711,"x_min":-64,"x_max":761,"o":"m 399 53 q 252 15 326 22 q 117 24 178 8 q 13 75 57 39 q -47 161 -31 111 q -44 279 -64 211 q 35 419 -25 347 q 144 513 83 479 q 260 547 206 546 q 365 535 314 549 q 459 438 444 508 q 406 313 474 367 q 306 356 319 301 q 385 425 368 376 q 360 483 400 468 q 349 486 354 485 q 183 396 274 496 q 99 255 118 324 q 108 143 81 186 q 199 83 136 100 q 360 99 261 67 q 563 207 458 129 q 717 372 667 285 l 761 344 q 618 191 725 281 q 399 53 511 101 m 160 665 q 346 840 274 743 q 419 814 406 831 q 446 746 422 779 q 535 654 469 713 q 469 589 507 606 q 383 760 439 661 q 200 589 336 710 q 160 665 165 624 z "},"Ċ":{"ha":1156,"x_min":13,"x_max":1206,"o":"m 226 -60 q 28 297 13 64 q 201 689 40 494 q 554 950 356 875 q 951 925 781 1036 q 1007 854 996 896 q 1003 766 1018 813 q 966 676 988 719 q 923 585 944 632 q 899 508 901 538 q 778 506 856 494 q 678 553 701 518 q 724 621 690 583 q 791 687 758 658 q 854 751 824 715 q 892 812 885 786 q 883 869 900 838 q 780 926 846 918 q 642 907 714 935 q 494 820 569 879 q 363 683 418 761 q 254 452 288 578 q 249 208 221 326 q 372 31 276 90 q 522 -13 435 -7 q 701 7 608 -19 q 883 82 794 33 q 1047 207 972 131 q 1163 372 1121 283 l 1206 344 q 1019 92 1140 201 q 760 -71 897 -17 q 478 -124 622 -125 q 226 -60 335 -124 m 746 1154 q 769 1171 750 1157 q 803 1195 789 1185 q 841 1225 818 1206 q 885 1264 864 1244 q 999 1183 931 1213 q 840 1043 918 1089 q 746 1154 779 1099 z "},"ċ":{"ha":711,"x_min":-64,"x_max":761,"o":"m 399 53 q 252 15 326 22 q 117 24 178 8 q 13 75 57 39 q -47 161 -31 111 q -44 279 -64 211 q 35 419 -25 347 q 144 513 83 479 q 260 547 206 546 q 365 535 314 549 q 459 438 444 508 q 406 313 474 367 q 306 356 319 301 q 385 425 368 376 q 360 483 400 468 q 349 486 354 485 q 183 396 274 496 q 99 255 118 324 q 108 143 81 186 q 199 83 136 100 q 360 99 261 67 q 563 207 458 129 q 717 372 667 285 l 761 344 q 618 191 725 281 q 399 53 511 101 m 247 749 q 271 765 251 751 q 305 790 290 779 q 342 819 319 800 q 386 858 365 839 q 500 778 432 807 q 342 638 419 683 q 247 749 281 693 z "},"Č":{"ha":1156,"x_min":13,"x_max":1206,"o":"m 226 -60 q 28 297 13 64 q 201 689 40 494 q 554 950 356 875 q 951 925 781 1036 q 1007 854 996 896 q 1003 766 1018 813 q 966 676 988 719 q 923 585 944 632 q 899 508 901 538 q 778 506 856 494 q 678 553 701 518 q 724 621 690 583 q 791 687 758 658 q 854 751 824 715 q 892 812 885 786 q 883 869 900 838 q 780 926 846 918 q 642 907 714 935 q 494 820 569 879 q 363 683 418 761 q 254 452 288 578 q 249 208 221 326 q 372 31 276 90 q 522 -13 435 -7 q 701 7 608 -19 q 883 82 794 33 q 1047 207 972 131 q 1163 372 1121 283 l 1206 344 q 1019 92 1140 201 q 760 -71 897 -17 q 478 -124 622 -125 q 226 -60 335 -124 m 663 1201 q 729 1267 692 1253 q 815 1094 758 1200 q 999 1267 858 1142 q 1039 1190 1033 1232 q 853 1015 925 1113 q 779 1042 793 1025 q 751 1110 775 1076 q 663 1201 728 1143 z "},"č":{"ha":711,"x_min":-64,"x_max":761,"o":"m 399 53 q 252 15 326 22 q 117 24 178 8 q 13 75 57 39 q -47 161 -31 111 q -44 279 -64 211 q 35 419 -25 347 q 144 513 83 479 q 260 547 206 546 q 365 535 314 549 q 459 438 444 508 q 406 313 474 367 q 306 356 319 301 q 385 425 368 376 q 360 483 400 468 q 349 486 354 485 q 183 396 274 496 q 99 255 118 324 q 108 143 81 186 q 199 83 136 100 q 360 99 261 67 q 563 207 458 129 q 717 372 667 285 l 761 344 q 618 191 725 281 q 399 53 511 101 m 164 796 q 231 861 193 847 q 317 689 260 794 q 500 861 360 736 q 540 785 535 826 q 354 610 426 707 q 281 636 294 619 q 253 704 276 671 q 164 796 229 738 z "},"Ď":{"ha":1529,"x_min":79,"x_max":1418,"o":"m 524 -14 q 438 6 485 -19 q 381 65 390 32 q 447 222 394 129 q 558 403 499 315 q 688 625 617 492 q 804 885 760 758 q 874 882 829 889 q 942 864 918 875 q 862 694 924 794 q 736 503 800 594 q 609 272 672 413 q 524 -14 546 131 m 82 194 q 156 221 111 213 q 244 219 201 229 q 250 70 225 140 q 339 -47 275 0 q 503 -110 403 -93 q 732 -99 603 -126 q 943 0 846 -75 q 1102 174 1040 75 q 1197 389 1164 274 q 1225 610 1229 504 q 1174 803 1221 715 q 1043 933 1128 890 q 908 972 981 965 q 763 959 836 979 q 626 915 689 939 q 490 844 564 890 q 376 771 417 799 q 279 701 336 743 q 201 824 206 733 q 347 888 289 864 q 501 946 406 911 q 674 994 596 981 q 842 1016 751 1008 q 1021 1006 933 1024 q 1188 949 1108 989 q 1361 791 1304 890 q 1415 580 1418 692 q 1360 348 1411 468 q 1221 127 1308 228 q 1009 -50 1133 26 q 747 -151 885 -126 q 401 -158 550 -185 q 165 -38 251 -131 q 82 194 79 54 m 928 1204 q 994 1269 957 1256 q 1081 1097 1024 1203 q 1264 1269 1124 1144 q 1304 1193 1299 1235 q 1118 1018 1190 1115 q 1044 1044 1058 1028 q 1017 1113 1040 1079 q 928 1204 993 1146 z "},"ď":{"ha":865,"x_min":-79,"x_max":1200,"o":"m 136 26 q 21 19 69 10 q -51 66 -28 28 q -77 156 -75 104 q -51 274 -79 207 q 31 407 -24 340 q 159 513 89 479 q 286 540 229 546 q 385 492 343 533 q 432 385 426 451 q 570 714 474 540 q 789 1024 667 888 q 861 991 819 1015 q 917 946 903 967 q 532 121 378 211 q 691 158 586 89 q 872 372 796 226 l 915 343 q 858 240 892 292 q 778 139 825 189 q 669 58 731 89 q 543 26 607 26 q 404 231 393 26 q 136 26 271 67 m 179 115 q 411 335 269 142 q 391 413 408 381 q 345 461 374 446 q 273 458 317 476 q 179 383 229 439 q 69 172 67 260 q 135 110 72 111 q 179 115 154 108 m 993 981 q 1200 990 1106 1061 q 1113 844 1154 942 q 1075 674 1072 746 q 1001 664 1049 656 q 985 726 993 686 q 978 839 978 767 q 993 981 978 911 z "},"Đ":{"ha":1529,"x_min":79,"x_max":1418,"o":"m 524 -14 q 438 6 485 -19 q 381 65 390 32 q 538 372 400 154 q 365 322 440 356 q 460 500 369 418 q 629 521 547 517 q 804 885 740 706 q 874 882 829 889 q 942 864 918 875 q 908 779 932 826 q 869 706 885 732 q 806 608 854 679 q 746 518 758 536 q 889 486 833 510 q 854 357 888 414 q 663 381 768 382 q 524 -14 554 183 m 82 194 q 156 221 111 213 q 244 219 201 229 q 250 70 225 140 q 339 -47 275 0 q 503 -110 403 -93 q 732 -99 603 -126 q 943 0 846 -75 q 1102 174 1040 75 q 1197 389 1164 274 q 1225 610 1229 504 q 1174 803 1221 715 q 1043 933 1128 890 q 908 972 981 965 q 763 959 836 979 q 626 915 689 939 q 490 844 564 890 q 376 771 417 799 q 279 701 336 743 q 201 824 206 733 q 347 888 289 864 q 501 946 406 911 q 674 994 596 981 q 842 1016 751 1008 q 1021 1006 933 1024 q 1188 949 1108 989 q 1361 791 1304 890 q 1415 580 1418 692 q 1360 348 1411 468 q 1221 127 1308 228 q 1009 -50 1133 26 q 747 -151 885 -126 q 401 -158 550 -185 q 165 -38 251 -131 q 82 194 79 54 z "},"đ":{"ha":865,"x_min":-79,"x_max":917,"o":"m 136 26 q 21 19 69 10 q -51 66 -28 28 q -77 156 -75 104 q -51 274 -79 207 q 31 407 -24 340 q 159 513 89 479 q 286 540 229 546 q 385 492 343 533 q 432 385 426 451 q 567 707 475 538 q 349 651 443 694 q 443 829 353 747 q 654 850 543 850 q 789 1024 721 947 q 861 991 819 1015 q 917 946 903 967 q 879 894 911 938 q 832 829 847 851 q 872 815 856 822 q 838 686 871 743 q 747 704 792 699 q 532 121 406 194 q 691 158 586 89 q 872 372 796 226 l 915 343 q 858 240 892 292 q 778 139 825 189 q 669 58 731 89 q 543 26 607 26 q 404 231 393 26 q 136 26 271 67 m 179 115 q 411 335 269 142 q 391 413 408 381 q 345 461 374 446 q 273 458 317 476 q 179 383 229 439 q 69 172 67 260 q 135 110 72 111 q 179 115 154 108 z "},"Ē":{"ha":1135,"x_min":-28,"x_max":1183,"o":"m 157 -75 q 26 27 71 -33 q -24 149 -19 88 q -4 271 -28 210 q 64 378 19 332 q 167 452 108 424 q 283 479 225 481 q 231 635 235 560 q 262 768 226 711 q 356 872 297 825 q 492 943 415 918 q 647 978 569 968 q 800 974 725 988 q 928 925 875 960 q 994 840 982 889 q 990 749 1006 790 q 951 651 974 707 q 928 563 929 596 q 807 561 883 550 q 707 606 731 572 q 747 667 719 636 q 801 719 775 699 q 851 767 828 740 q 878 816 875 794 q 863 869 881 838 q 776 914 835 907 q 650 894 717 921 q 522 820 583 868 q 419 692 460 772 q 378 518 378 611 q 543 527 479 532 q 635 501 607 522 q 651 446 663 481 q 583 390 640 410 q 451 382 526 369 q 324 443 375 394 q 201 317 238 401 q 195 145 164 233 q 321 8 226 57 q 478 -26 386 -25 q 666 1 569 -28 q 854 79 763 29 q 1022 206 946 129 q 1140 371 1099 282 l 1183 344 q 1039 137 1132 231 q 833 -16 946 43 q 601 -105 721 -75 q 364 -127 481 -135 q 157 -75 247 -119 m 583 1103 q 618 1169 589 1129 q 964 1168 846 1146 q 967 1117 974 1147 q 944 1061 960 1086 q 794 1056 878 1044 q 665 1078 711 1067 q 583 1103 618 1089 z "},"ē":{"ha":715,"x_min":-58,"x_max":765,"o":"m 403 53 q 258 15 332 22 q 123 24 183 8 q 19 75 63 39 q -42 161 -25 111 q -39 279 -58 211 q 40 419 -19 347 q 149 512 89 479 q 264 546 210 544 q 369 533 318 547 q 442 494 413 519 q 478 436 471 468 q 471 371 485 404 q 410 305 457 338 q 289 249 363 272 q 96 197 207 222 q 171 93 100 122 q 365 99 242 64 q 565 212 460 129 q 721 383 671 294 l 765 356 q 622 195 729 289 q 403 53 515 101 m 99 235 q 253 290 147 250 q 389 404 365 338 q 358 474 406 454 q 338 479 349 478 q 188 396 271 486 q 99 235 113 315 m 186 718 q 221 785 192 744 q 567 783 449 761 q 569 732 576 763 q 547 676 563 701 q 397 671 481 660 q 267 693 314 682 q 186 718 221 704 z "},"Ė":{"ha":1135,"x_min":-28,"x_max":1183,"o":"m 157 -75 q 26 27 71 -33 q -24 149 -19 88 q -4 271 -28 210 q 64 378 19 332 q 167 452 108 424 q 283 479 225 481 q 231 635 235 560 q 262 768 226 711 q 356 872 297 825 q 492 943 415 918 q 647 978 569 968 q 800 974 725 988 q 928 925 875 960 q 994 840 982 889 q 990 749 1006 790 q 951 651 974 707 q 928 563 929 596 q 807 561 883 550 q 707 606 731 572 q 747 667 719 636 q 801 719 775 699 q 851 767 828 740 q 878 816 875 794 q 863 869 881 838 q 776 914 835 907 q 650 894 717 921 q 522 820 583 868 q 419 692 460 772 q 378 518 378 611 q 543 527 479 532 q 635 501 607 522 q 651 446 663 481 q 583 390 640 410 q 451 382 526 369 q 324 443 375 394 q 201 317 238 401 q 195 145 164 233 q 321 8 226 57 q 478 -26 386 -25 q 666 1 569 -28 q 854 79 763 29 q 1022 206 946 129 q 1140 371 1099 282 l 1183 344 q 1039 137 1132 231 q 833 -16 946 43 q 601 -105 721 -75 q 364 -127 481 -135 q 157 -75 247 -119 m 699 1174 q 722 1190 703 1176 q 756 1215 742 1204 q 794 1244 771 1225 q 838 1283 817 1264 q 951 1203 883 1232 q 793 1063 871 1108 q 699 1174 732 1118 z "},"ė":{"ha":715,"x_min":-58,"x_max":765,"o":"m 403 53 q 258 15 332 22 q 123 24 183 8 q 19 75 63 39 q -42 161 -25 111 q -39 279 -58 211 q 40 419 -19 347 q 149 512 89 479 q 264 546 210 544 q 369 533 318 547 q 442 494 413 519 q 478 436 471 468 q 471 371 485 404 q 410 305 457 338 q 289 249 363 272 q 96 197 207 222 q 171 93 100 122 q 365 99 242 64 q 565 212 460 129 q 721 383 671 294 l 765 356 q 622 195 729 289 q 403 53 515 101 m 99 235 q 253 290 147 250 q 389 404 365 338 q 358 474 406 454 q 338 479 349 478 q 188 396 271 486 q 99 235 113 315 m 301 789 q 325 806 306 792 q 359 830 344 819 q 397 860 374 840 q 440 899 419 879 q 554 818 486 847 q 396 678 474 724 q 301 789 335 733 z "},"Ę":{"ha":1135,"x_min":-28,"x_max":1183,"o":"m 157 -75 q 26 27 71 -33 q -24 149 -19 88 q -4 271 -28 210 q 64 378 19 332 q 167 452 108 424 q 283 479 225 481 q 231 635 235 560 q 262 768 226 711 q 356 872 297 825 q 492 943 415 918 q 647 978 569 968 q 800 974 725 988 q 928 925 875 960 q 994 840 982 889 q 990 749 1006 790 q 951 651 974 707 q 928 563 929 596 q 807 561 883 550 q 707 606 731 572 q 747 667 719 636 q 801 719 775 699 q 851 767 828 740 q 878 816 875 794 q 863 869 881 838 q 776 914 835 907 q 650 894 717 921 q 522 820 583 868 q 419 692 460 772 q 378 518 378 611 q 543 527 479 532 q 635 501 607 522 q 651 446 663 481 q 583 390 640 410 q 451 382 526 369 q 324 443 375 394 q 201 317 238 401 q 195 145 164 233 q 321 8 226 57 q 478 -26 386 -25 q 666 1 569 -28 q 854 79 763 29 q 1022 206 946 129 q 1140 371 1099 282 l 1183 344 q 1003 104 1122 210 q 744 -59 883 -1 q 461 -126 604 -117 q 345 -192 394 -154 q 276 -263 296 -229 q 249 -328 256 -297 q 261 -376 243 -360 q 385 -396 306 -428 q 388 -411 392 -400 q 232 -495 308 -482 q 117 -461 156 -508 q 97 -410 99 -440 q 112 -344 94 -381 q 163 -272 129 -308 q 259 -197 197 -235 q 400 -128 321 -158 q 157 -75 265 -128 z "},"ę":{"ha":715,"x_min":-133,"x_max":765,"o":"m 403 53 q 235 13 321 17 q 118 -53 168 -15 q 49 -124 68 -90 q 22 -189 29 -157 q 33 -237 15 -221 q 157 -257 78 -289 q 160 -272 164 -261 q 4 -356 81 -343 q -111 -322 -72 -369 q -131 -270 -129 -300 q -116 -204 -133 -240 q -62 -131 -99 -168 q 36 -56 -26 -94 q 181 14 99 -17 q 72 41 121 19 q -7 100 24 63 q -47 185 -37 138 q -35 293 -57 232 q 40 419 -14 354 q 149 512 89 479 q 264 546 210 544 q 369 533 318 547 q 442 494 413 519 q 478 436 471 468 q 471 371 485 404 q 410 305 457 338 q 289 249 363 272 q 96 197 207 222 q 171 93 100 122 q 365 99 242 64 q 565 212 460 129 q 721 383 671 294 l 765 356 q 622 195 729 289 q 403 53 515 101 m 99 235 q 253 290 147 250 q 389 404 365 338 q 358 474 406 454 q 338 479 349 478 q 188 396 271 486 q 99 235 113 315 z "},"Ě":{"ha":1135,"x_min":-28,"x_max":1183,"o":"m 157 -75 q 26 27 71 -33 q -24 149 -19 88 q -4 271 -28 210 q 64 378 19 332 q 167 452 108 424 q 283 479 225 481 q 231 635 235 560 q 262 768 226 711 q 356 872 297 825 q 492 943 415 918 q 647 978 569 968 q 800 974 725 988 q 928 925 875 960 q 994 840 982 889 q 990 749 1006 790 q 951 651 974 707 q 928 563 929 596 q 807 561 883 550 q 707 606 731 572 q 747 667 719 636 q 801 719 775 699 q 851 767 828 740 q 878 816 875 794 q 863 869 881 838 q 776 914 835 907 q 650 894 717 921 q 522 820 583 868 q 419 692 460 772 q 378 518 378 611 q 543 527 479 532 q 635 501 607 522 q 651 446 663 481 q 583 390 640 410 q 451 382 526 369 q 324 443 375 394 q 201 317 238 401 q 195 145 164 233 q 321 8 226 57 q 478 -26 386 -25 q 666 1 569 -28 q 854 79 763 29 q 1022 206 946 129 q 1140 371 1099 282 l 1183 344 q 1039 137 1132 231 q 833 -16 946 43 q 601 -105 721 -75 q 364 -127 481 -135 q 157 -75 247 -119 m 615 1221 q 682 1286 644 1272 q 768 1114 711 1219 q 951 1286 811 1161 q 992 1210 986 1251 q 806 1035 878 1132 q 732 1061 746 1044 q 704 1129 728 1096 q 615 1221 681 1163 z "},"ě":{"ha":715,"x_min":-58,"x_max":765,"o":"m 403 53 q 258 15 332 22 q 123 24 183 8 q 19 75 63 39 q -42 161 -25 111 q -39 279 -58 211 q 40 419 -19 347 q 149 512 89 479 q 264 546 210 544 q 369 533 318 547 q 442 494 413 519 q 478 436 471 468 q 471 371 485 404 q 410 305 457 338 q 289 249 363 272 q 96 197 207 222 q 171 93 100 122 q 365 99 242 64 q 565 212 460 129 q 721 383 671 294 l 765 356 q 622 195 729 289 q 403 53 515 101 m 99 235 q 253 290 147 250 q 389 404 365 338 q 358 474 406 454 q 338 479 349 478 q 188 396 271 486 q 99 235 113 315 m 218 836 q 285 901 247 888 q 371 729 314 835 q 554 901 414 776 q 594 825 589 867 q 408 650 481 747 q 335 676 349 660 q 307 744 331 711 q 218 836 283 778 z "},"Ĝ":{"ha":1074,"x_min":-61,"x_max":1064,"o":"m 347 -644 q 304 -576 308 -608 q 476 -19 378 -261 q 267 -106 364 -86 q 103 -93 171 -126 q -19 213 -61 -7 q 199 624 19 411 q 593 932 381 839 q 1003 925 833 1036 q 1060 831 1056 889 q 1038 722 1064 774 q 983 606 1013 669 q 950 508 953 542 q 829 506 906 494 q 729 553 753 518 q 775 621 742 583 q 842 687 808 658 q 906 751 875 715 q 944 812 936 786 q 933 869 951 838 q 831 926 897 918 q 693 907 765 935 q 545 820 621 879 q 414 683 469 761 q 309 515 356 603 q 231 335 263 426 q 206 168 199 244 q 264 51 213 92 q 365 21 301 22 q 508 56 429 19 q 746 417 621 301 q 900 319 831 400 q 583 -84 758 215 q 347 -644 407 -383 m 618 1049 q 804 1224 732 1126 q 878 1197 864 1214 q 904 1129 881 1163 q 993 1038 928 1096 q 928 972 965 989 q 842 1143 897 1044 q 658 972 794 1093 q 618 1049 624 1007 z "},"ĝ":{"ha":864,"x_min":-221,"x_max":914,"o":"m 158 -264 q -6 -310 71 -306 q -127 -292 -83 -314 q -185 -236 -171 -271 q -144 -83 -221 -139 q 75 -29 -67 -28 q 292 -10 190 -29 q 383 207 364 110 q 135 26 257 61 q -33 43 26 -6 q -76 194 -92 92 q 31 407 -60 297 q 155 510 88 476 q 278 540 222 544 q 376 501 333 536 q 428 404 418 465 q 481 490 449 447 q 555 456 514 479 q 607 411 596 432 q 576 341 594 382 q 551 288 557 300 q 422 19 486 129 q 599 81 507 42 q 747 191 676 113 q 871 372 817 269 l 914 343 q 821 192 881 268 q 689 67 761 115 q 381 -49 568 -12 q 158 -264 274 -210 m -60 -210 q 25 -243 -35 -246 q 139 -197 85 -240 q 256 -67 200 -150 q 60 -78 157 -78 q -42 -99 -6 -78 q -80 -149 -79 -119 q -60 -210 -81 -178 m 176 115 q 397 318 265 142 q 408 354 401 333 q 383 424 401 396 q 338 464 365 453 q 268 456 310 475 q 179 383 226 436 q 69 175 68 264 q 131 110 71 113 q 176 115 151 108 m 181 663 q 367 838 294 740 q 440 811 426 828 q 467 743 443 776 q 556 651 490 710 q 490 586 528 603 q 404 757 460 658 q 221 586 357 707 q 181 663 186 621 z "},"Ğ":{"ha":1074,"x_min":-61,"x_max":1064,"o":"m 347 -644 q 304 -576 308 -608 q 476 -19 378 -261 q 267 -106 364 -86 q 103 -93 171 -126 q -19 213 -61 -7 q 199 624 19 411 q 593 932 381 839 q 1003 925 833 1036 q 1060 831 1056 889 q 1038 722 1064 774 q 983 606 1013 669 q 950 508 953 542 q 829 506 906 494 q 729 553 753 518 q 775 621 742 583 q 842 687 808 658 q 906 751 875 715 q 944 812 936 786 q 933 869 951 838 q 831 926 897 918 q 693 907 765 935 q 545 820 621 879 q 414 683 469 761 q 309 515 356 603 q 231 335 263 426 q 206 168 199 244 q 264 51 213 92 q 365 21 301 22 q 508 56 429 19 q 746 417 621 301 q 900 319 831 400 q 583 -84 758 215 q 347 -644 407 -383 m 596 1154 q 667 1197 629 1185 q 730 1205 706 1210 q 757 1186 754 1200 q 785 1081 753 1114 q 867 1072 817 1047 q 960 1176 918 1096 q 1005 1190 983 1189 q 1038 1185 1026 1192 q 1046 1168 1049 1178 q 894 1028 993 1071 q 707 1018 796 985 q 596 1154 618 1051 z "},"ğ":{"ha":864,"x_min":-221,"x_max":914,"o":"m 158 -264 q -6 -310 71 -306 q -127 -292 -83 -314 q -185 -236 -171 -271 q -144 -83 -221 -139 q 75 -29 -67 -28 q 292 -10 190 -29 q 383 207 364 110 q 135 26 257 61 q -33 43 26 -6 q -76 194 -92 92 q 31 407 -60 297 q 155 510 88 476 q 278 540 222 544 q 376 501 333 536 q 428 404 418 465 q 481 490 449 447 q 555 456 514 479 q 607 411 596 432 q 576 341 594 382 q 551 288 557 300 q 422 19 486 129 q 599 81 507 42 q 747 191 676 113 q 871 372 817 269 l 914 343 q 821 192 881 268 q 689 67 761 115 q 381 -49 568 -12 q 158 -264 274 -210 m -60 -210 q 25 -243 -35 -246 q 139 -197 85 -240 q 256 -67 200 -150 q 60 -78 157 -78 q -42 -99 -6 -78 q -80 -149 -79 -119 q -60 -210 -81 -178 m 158 768 q 230 811 192 799 q 292 819 268 824 q 319 800 317 814 q 347 694 315 728 q 430 685 379 661 q 522 790 481 710 q 567 804 546 803 q 600 799 589 806 q 608 782 611 792 q 457 642 556 685 q 269 632 358 599 q 158 768 181 665 m 176 115 q 397 318 265 142 q 408 354 401 333 q 383 424 401 396 q 338 464 365 453 q 268 456 310 475 q 179 383 226 436 q 69 175 68 264 q 131 110 71 113 q 176 115 151 108 z "},"Ġ":{"ha":1074,"x_min":-61,"x_max":1064,"o":"m 347 -644 q 304 -576 308 -608 q 476 -19 378 -261 q 267 -106 364 -86 q 103 -93 171 -126 q -19 213 -61 -7 q 199 624 19 411 q 593 932 381 839 q 1003 925 833 1036 q 1060 831 1056 889 q 1038 722 1064 774 q 983 606 1013 669 q 950 508 953 542 q 829 506 906 494 q 729 553 753 518 q 775 621 742 583 q 842 687 808 658 q 906 751 875 715 q 944 812 936 786 q 933 869 951 838 q 831 926 897 918 q 693 907 765 935 q 545 820 621 879 q 414 683 469 761 q 309 515 356 603 q 231 335 263 426 q 206 168 199 244 q 264 51 213 92 q 365 21 301 22 q 508 56 429 19 q 746 417 621 301 q 900 319 831 400 q 583 -84 758 215 q 347 -644 407 -383 m 706 1132 q 729 1149 710 1135 q 763 1173 749 1163 q 801 1203 778 1183 q 844 1242 824 1222 q 958 1161 890 1190 q 800 1021 878 1067 q 706 1132 739 1076 z "},"ġ":{"ha":864,"x_min":-221,"x_max":914,"o":"m 158 -264 q -6 -310 71 -306 q -127 -292 -83 -314 q -185 -236 -171 -271 q -144 -83 -221 -139 q 75 -29 -67 -28 q 292 -10 190 -29 q 383 207 364 110 q 135 26 257 61 q -33 43 26 -6 q -76 194 -92 92 q 31 407 -60 297 q 155 510 88 476 q 278 540 222 544 q 376 501 333 536 q 428 404 418 465 q 481 490 449 447 q 555 456 514 479 q 607 411 596 432 q 576 341 594 382 q 551 288 557 300 q 422 19 486 129 q 599 81 507 42 q 747 191 676 113 q 871 372 817 269 l 914 343 q 821 192 881 268 q 689 67 761 115 q 381 -49 568 -12 q 158 -264 274 -210 m -60 -210 q 25 -243 -35 -246 q 139 -197 85 -240 q 256 -67 200 -150 q 60 -78 157 -78 q -42 -99 -6 -78 q -80 -149 -79 -119 q -60 -210 -81 -178 m 176 115 q 397 318 265 142 q 408 354 401 333 q 383 424 401 396 q 338 464 365 453 q 268 456 310 475 q 179 383 226 436 q 69 175 68 264 q 131 110 71 113 q 176 115 151 108 m 268 746 q 292 763 272 749 q 326 787 311 776 q 363 817 340 797 q 407 856 386 836 q 521 775 453 804 q 363 635 440 681 q 268 746 301 690 z "},"Ģ":{"ha":1074,"x_min":-61,"x_max":1064,"o":"m 347 -644 q 304 -576 308 -608 q 476 -19 378 -261 q 267 -106 364 -86 q 103 -93 171 -126 q -19 213 -61 -7 q 199 624 19 411 q 593 932 381 839 q 1003 925 833 1036 q 1060 831 1056 889 q 1038 722 1064 774 q 983 606 1013 669 q 950 508 953 542 q 829 506 906 494 q 729 553 753 518 q 775 621 742 583 q 842 687 808 658 q 906 751 875 715 q 944 812 936 786 q 933 869 951 838 q 831 926 897 918 q 693 907 765 935 q 545 820 621 879 q 414 683 469 761 q 309 515 356 603 q 231 335 263 426 q 206 168 199 244 q 264 51 213 92 q 365 21 301 22 q 508 56 429 19 q 746 417 621 301 q 900 319 831 400 q 583 -84 758 215 q 347 -644 407 -383 m -40 -467 q 71 -360 31 -417 q 3 -301 22 -331 q 140 -164 49 -217 q 218 -268 199 -217 q -25 -494 158 -390 q -40 -467 -40 -479 z "},"ģ":{"ha":864,"x_min":-221,"x_max":914,"o":"m 158 -264 q -6 -310 71 -306 q -127 -292 -83 -314 q -185 -236 -171 -271 q -144 -83 -221 -139 q 75 -29 -67 -28 q 292 -10 190 -29 q 383 207 364 110 q 135 26 257 61 q -33 43 26 -6 q -76 194 -92 92 q 31 407 -60 297 q 155 510 88 476 q 278 540 222 544 q 376 501 333 536 q 428 404 418 465 q 481 490 449 447 q 555 456 514 479 q 607 411 596 432 q 576 341 594 382 q 551 288 557 300 q 422 19 486 129 q 599 81 507 42 q 747 191 676 113 q 871 372 817 269 l 914 343 q 821 192 881 268 q 689 67 761 115 q 381 -49 568 -12 q 158 -264 274 -210 m -60 -210 q 25 -243 -35 -246 q 139 -197 85 -240 q 256 -67 200 -150 q 60 -78 157 -78 q -42 -99 -6 -78 q -80 -149 -79 -119 q -60 -210 -81 -178 m 176 115 q 397 318 265 142 q 408 354 401 333 q 383 424 401 396 q 338 464 365 453 q 268 456 310 475 q 179 383 226 436 q 69 175 68 264 q 131 110 71 113 q 176 115 151 108 m 247 689 q 361 833 283 764 q 529 951 439 901 q 550 917 549 935 q 424 794 463 853 q 499 726 472 764 q 339 567 447 628 q 247 689 271 626 z "},"Ĥ":{"ha":1465,"x_min":-171,"x_max":1514,"o":"m 47 -312 q -87 -291 -21 -325 q -171 -206 -153 -257 q 184 54 8 -99 q 492 388 360 207 q 129 350 304 390 q 193 485 126 408 q 547 469 301 510 q 743 964 707 718 q 882 931 807 976 q 661 450 826 728 q 899 396 793 422 q 1294 968 1003 707 q 1388 882 1344 954 q 1192 716 1276 811 q 1065 529 1107 621 q 1008 353 1024 438 q 1007 208 992 269 q 1063 125 1022 147 q 1269 154 1142 76 q 1471 372 1397 232 l 1514 343 q 1406 178 1471 251 q 1271 65 1340 106 q 1132 2 1201 24 q 1005 -16 1063 -19 q 911 13 947 -12 q 858 128 868 42 q 881 339 849 215 q 621 383 764 374 q 47 -312 365 -28 m 922 1090 q 1108 1265 1036 1168 q 1182 1239 1168 1256 q 1208 1171 1185 1204 q 1297 1079 1232 1138 q 1232 1014 1269 1031 q 1146 1185 1201 1086 q 963 1014 1099 1135 q 922 1090 928 1049 z "},"ĥ":{"ha":710,"x_min":-161,"x_max":760,"o":"m -56 -6 q -161 50 -124 3 q 56 481 -92 142 q 207 931 203 821 q 331 889 271 947 q 260 649 333 840 q 93 264 186 457 q 318 485 239 401 l 319 483 q 325 490 324 488 q 401 455 360 478 q 451 411 442 432 q 376 232 385 263 q 399 139 363 174 q 542 160 444 96 q 715 372 640 225 l 760 343 q 703 239 736 290 q 622 137 669 188 q 513 56 575 86 q 388 26 451 25 q 247 132 285 31 q 253 356 208 233 q -26 38 117 240 q -56 -6 -40 14 m 363 990 q 549 1165 476 1068 q 622 1139 608 1156 q 649 1071 625 1104 q 738 979 672 1038 q 672 914 710 931 q 586 1085 642 986 q 403 914 539 1035 q 363 990 368 949 z "},"Ħ":{"ha":1465,"x_min":-171,"x_max":1514,"o":"m 47 -312 q -87 -291 -21 -325 q -171 -206 -153 -257 q 184 54 8 -99 q 492 388 360 207 q 129 350 304 390 q 193 485 126 408 q 547 469 301 510 q 590 540 563 493 q 411 513 485 528 q 560 640 417 579 l 646 647 q 743 964 719 808 q 882 931 807 976 q 772 653 847 807 q 1022 651 917 657 q 1294 968 1135 825 q 1388 882 1344 954 q 1133 643 1236 785 q 1232 629 1199 636 q 1218 578 1231 599 q 1178 538 1206 558 q 1075 547 1144 542 q 1009 365 1026 454 q 1006 212 992 275 q 1063 125 1021 149 q 1269 154 1142 76 q 1471 372 1397 232 l 1514 343 q 1406 178 1471 251 q 1271 65 1340 106 q 1132 2 1201 24 q 1005 -16 1063 -19 q 911 13 947 -12 q 858 128 868 42 q 881 339 849 215 q 621 383 764 374 q 47 -312 365 -28 m 661 450 q 899 396 793 422 q 965 553 924 472 q 718 550 836 557 q 661 450 696 506 z "},"ħ":{"ha":710,"x_min":-161,"x_max":760,"o":"m -56 -6 q -161 50 -124 3 q -50 251 -125 97 q 92 568 25 404 q -28 529 36 557 q 67 707 -24 625 q 150 721 94 713 q 207 931 206 869 q 331 889 271 947 q 289 728 333 849 q 496 693 419 725 q 461 564 494 621 q 236 588 365 593 q 93 264 156 390 q 318 485 239 401 l 319 483 q 325 490 324 488 q 401 455 360 478 q 451 411 442 432 q 376 232 385 263 q 399 139 363 174 q 542 160 444 96 q 715 372 640 225 l 760 343 q 703 239 736 290 q 622 137 669 188 q 513 56 575 86 q 388 26 451 25 q 247 132 285 31 q 253 356 208 233 q -26 38 117 240 q -56 -6 -40 14 z "},"Ĩ":{"ha":729,"x_min":-87,"x_max":778,"o":"m -18 -151 q -80 -35 -72 -106 q -60 113 -87 35 q 17 296 -32 190 q 118 505 65 401 q 218 743 171 608 q 285 1000 265 878 q 463 897 347 982 q 417 745 450 831 q 343 581 383 660 q 256 414 303 501 q 172 256 210 326 q 108 117 135 185 q 78 9 81 49 q 100 -57 76 -31 q 296 -49 165 -110 q 550 132 426 11 q 735 372 674 253 l 778 343 q 627 131 731 244 q 405 -65 524 18 q 170 -180 286 -147 q -18 -151 54 -212 m 231 1160 q 340 1235 296 1218 q 403 1237 383 1251 q 436 1199 424 1222 q 465 1160 449 1176 q 503 1151 481 1143 q 578 1231 558 1172 q 659 1240 622 1250 q 690 1185 696 1229 q 552 1083 628 1115 q 442 1060 476 1051 q 419 1082 428 1063 q 408 1124 411 1101 q 399 1165 406 1147 q 379 1181 392 1182 q 331 1138 354 1178 q 301 1056 308 1097 q 247 1088 268 1053 q 231 1160 226 1124 z "},"ĩ":{"ha":457,"x_min":-29,"x_max":507,"o":"m 135 26 q 29 75 69 29 q -20 188 -11 121 q -6 337 -29 254 q 71 490 17 419 q 147 456 106 479 q 199 411 188 432 q 177 364 190 392 q 158 321 164 336 q 142 284 151 306 q 129 251 133 263 q 122 224 125 239 q 118 199 118 208 q 120 177 118 189 q 128 156 122 165 q 144 139 135 147 q 289 160 192 96 q 463 372 386 225 l 507 343 q 450 239 483 290 q 369 137 417 188 q 260 56 322 86 q 135 26 199 25 m 6 711 q 115 786 71 769 q 178 788 158 803 q 211 751 199 774 q 240 711 224 728 q 278 703 256 694 q 353 782 333 724 q 434 791 397 801 q 465 736 471 781 q 327 635 403 667 q 217 611 251 603 q 194 633 203 614 q 183 676 186 653 q 174 716 181 699 q 154 732 167 733 q 106 689 129 729 q 76 607 83 649 q 22 640 43 604 q 6 711 1 675 z "},"Ī":{"ha":729,"x_min":-87,"x_max":778,"o":"m -18 -151 q -80 -35 -72 -106 q -60 113 -87 35 q 17 296 -32 190 q 118 505 65 401 q 218 743 171 608 q 285 1000 265 878 q 463 897 347 982 q 417 745 450 831 q 343 581 383 660 q 256 414 303 501 q 172 256 210 326 q 108 117 135 185 q 78 9 81 49 q 100 -57 76 -31 q 296 -49 165 -110 q 550 132 426 11 q 735 372 674 253 l 778 343 q 627 131 731 244 q 405 -65 524 18 q 170 -180 286 -147 q -18 -151 54 -212 m 214 1090 q 249 1157 219 1117 q 594 1156 476 1133 q 597 1104 604 1135 q 575 1049 590 1074 q 425 1043 508 1032 q 295 1065 342 1054 q 214 1090 249 1076 z "},"ī":{"ha":457,"x_min":-29,"x_max":507,"o":"m 135 26 q 29 75 69 29 q -20 188 -11 121 q -6 337 -29 254 q 71 490 17 419 q 147 456 106 479 q 199 411 188 432 q 177 364 190 392 q 158 321 164 336 q 142 284 151 306 q 129 251 133 263 q 122 224 125 239 q 118 199 118 208 q 120 177 118 189 q 128 156 122 165 q 144 139 135 147 q 289 160 192 96 q 463 372 386 225 l 507 343 q 450 239 483 290 q 369 137 417 188 q 260 56 322 86 q 135 26 199 25 m -11 642 q 24 708 -6 668 q 369 707 251 685 q 372 656 379 686 q 350 600 365 625 q 200 594 283 583 q 70 617 117 606 q -11 642 24 628 z "},"Į":{"ha":729,"x_min":-235,"x_max":778,"o":"m -18 -151 q -80 -35 -72 -106 q -60 113 -87 35 q 17 296 -32 190 q 118 505 65 401 q 218 743 171 608 q 285 1000 265 878 q 463 897 347 982 q 417 745 450 831 q 343 581 383 660 q 256 414 303 501 q 172 256 210 326 q 108 117 135 185 q 78 9 81 49 q 100 -57 76 -31 q 296 -49 165 -110 q 550 132 426 11 q 735 372 674 253 l 778 343 q 497 7 700 179 q 132 -186 294 -165 q -28 -314 17 -242 q -42 -425 -72 -386 q 82 -444 3 -476 q 85 -460 89 -449 q -71 -544 6 -531 q -186 -510 -147 -557 q -171 -358 -235 -453 q 69 -187 -107 -262 q -18 -151 18 -181 z "},"į":{"ha":457,"x_min":-189,"x_max":507,"o":"m 243 822 q 357 742 289 771 q 199 601 276 647 q 104 713 138 657 q 128 729 108 715 q 162 753 147 743 q 199 783 176 764 q 243 822 222 803 m -167 -301 q -187 -251 -185 -281 q -172 -186 -189 -222 q -122 -114 -156 -150 q -28 -40 -87 -78 q 110 29 32 -3 q -1 119 33 43 q -17 297 -36 194 q 71 490 3 400 q 147 456 106 479 q 199 411 188 432 q 177 364 190 392 q 158 321 164 336 q 142 284 151 306 q 129 251 133 263 q 122 224 125 239 q 118 199 118 208 q 120 177 118 189 q 128 156 122 165 q 144 139 135 147 q 289 160 192 96 q 463 372 386 225 l 507 343 q 453 244 485 293 q 379 147 422 196 q 280 66 336 99 q 164 28 224 33 q -6 -102 42 -26 q -22 -217 -54 -178 q 101 -236 22 -268 q 104 -251 108 -240 q -51 -335 25 -322 q -167 -301 -128 -349 z "},"İ":{"ha":729,"x_min":-87,"x_max":778,"o":"m -18 -151 q -80 -35 -72 -106 q -60 113 -87 35 q 17 296 -32 190 q 118 505 65 401 q 218 743 171 608 q 285 1000 265 878 q 463 897 347 982 q 417 745 450 831 q 343 581 383 660 q 256 414 303 501 q 172 256 210 326 q 108 117 135 185 q 78 9 81 49 q 100 -57 76 -31 q 296 -49 165 -110 q 550 132 426 11 q 735 372 674 253 l 778 343 q 627 131 731 244 q 405 -65 524 18 q 170 -180 286 -147 q -18 -151 54 -212 m 329 1161 q 353 1178 333 1164 q 387 1202 372 1192 q 424 1232 401 1213 q 468 1271 447 1251 q 582 1190 514 1219 q 424 1050 501 1096 q 329 1161 363 1106 z "},"ı":{"ha":457,"x_min":-29,"x_max":507,"o":"m 135 26 q 29 75 69 29 q -20 188 -11 121 q -6 337 -29 254 q 71 490 17 419 q 147 456 106 479 q 199 411 188 432 q 177 364 190 392 q 158 321 164 336 q 142 284 151 306 q 129 251 133 263 q 122 224 125 239 q 118 199 118 208 q 120 177 118 189 q 128 156 122 165 q 144 139 135 147 q 289 160 192 96 q 463 372 386 225 l 507 343 q 450 239 483 290 q 369 137 417 188 q 260 56 322 86 q 135 26 199 25 z "},"Ĳ":{"ha":1842,"x_min":-87,"x_max":1982,"o":"m -18 -151 q -80 -35 -72 -106 q -60 113 -87 35 q 17 296 -32 190 q 118 505 65 401 q 218 743 171 608 q 285 1000 265 878 q 463 897 347 982 q 417 745 450 831 q 343 581 383 660 q 256 414 303 501 q 172 256 210 326 q 108 117 135 185 q 78 9 81 49 q 100 -57 76 -31 q 296 -49 165 -110 q 550 132 426 11 q 735 372 674 253 l 778 343 q 627 131 731 244 q 405 -65 524 18 q 170 -180 286 -147 q -18 -151 54 -212 m 588 -121 q 634 -35 594 -74 q 731 25 674 3 q 944 -142 813 -108 q 1199 -92 1075 -175 q 1480 242 1342 7 q 1717 831 1618 476 q 946 746 1449 851 q 1046 936 938 831 q 1742 893 1464 951 q 1918 986 1794 951 q 1963 782 1982 888 q 1786 822 1871 811 q 1539 171 1683 440 q 1226 -239 1394 -99 q 991 -341 1121 -326 q 751 -296 861 -356 q 588 -121 642 -236 z "},"ĳ":{"ha":907,"x_min":-29,"x_max":957,"o":"m 135 26 q 29 75 69 29 q -20 188 -11 121 q -6 337 -29 254 q 71 490 17 419 q 147 456 106 479 q 199 411 188 432 q 177 364 190 392 q 158 321 164 336 q 142 284 151 306 q 129 251 133 263 q 122 224 125 239 q 118 199 118 208 q 120 177 118 189 q 128 156 122 165 q 144 139 135 147 q 289 160 192 96 q 463 372 386 225 l 464 371 q 521 490 501 461 q 595 456 554 479 q 650 411 636 432 q 594 288 599 299 q 451 -3 513 97 q 708 133 567 13 q 914 372 849 254 l 957 343 q 890 240 935 299 q 774 110 846 182 q 596 -25 703 38 q 371 -117 489 -87 q 278 -230 328 -186 q 187 -287 229 -274 q 108 -300 144 -301 q 47 -283 71 -299 q 14 -247 22 -268 q 55 -119 -18 -172 q 263 -67 128 -65 l 276 -67 q 369 136 311 -1 q 135 26 256 22 m 110 -208 q 145 -220 121 -221 q 201 -194 169 -219 q 244 -131 232 -169 q 162 -144 197 -132 q 113 -174 126 -157 q 110 -208 100 -192 m 164 579 q 149 594 164 579 q 135 653 135 608 q 165 726 135 697 q 238 756 194 756 q 311 726 282 756 q 340 653 340 697 q 311 579 340 608 q 238 550 282 550 q 164 579 193 550 m 564 653 q 593 726 564 696 q 665 756 622 756 q 740 726 710 756 q 769 653 769 697 q 740 579 769 608 q 665 550 710 550 q 593 579 622 550 q 564 653 564 608 z "},"Ĵ":{"ha":1113,"x_min":-142,"x_max":1253,"o":"m 497 -239 q 262 -341 392 -326 q 22 -296 132 -356 q -142 -121 -87 -236 q -95 -35 -135 -74 q 1 25 -56 3 q 215 -142 83 -108 q 469 -92 346 -175 q 751 242 613 7 q 988 831 889 476 q 217 746 719 851 q 317 936 208 831 q 1013 893 735 951 q 1189 986 1065 951 q 1233 782 1253 888 q 1057 822 1142 811 q 810 171 954 440 q 497 -239 665 -99 m 638 1049 q 824 1224 751 1126 q 897 1197 883 1214 q 924 1129 900 1163 q 1013 1038 947 1096 q 947 972 985 989 q 861 1143 917 1044 q 678 972 814 1093 q 638 1049 643 1007 z "},"ĵ":{"ha":450,"x_min":-475,"x_max":500,"o":"m -347 -208 q -312 -220 -336 -221 q -256 -194 -287 -219 q -212 -131 -225 -169 q -295 -144 -260 -132 q -344 -174 -331 -157 q -347 -208 -357 -192 m -443 -247 q -402 -119 -475 -172 q -194 -67 -329 -65 l -181 -67 q -45 241 -131 28 q 64 490 40 454 q 138 456 97 479 q 193 411 179 432 q 138 288 142 299 q -6 -3 56 97 q 251 133 110 13 q 457 372 392 254 l 500 343 q 433 240 478 299 q 317 110 389 182 q 139 -25 246 38 q -86 -117 32 -87 q -178 -230 -129 -186 q -270 -287 -228 -274 q -349 -300 -312 -301 q -410 -283 -386 -299 q -443 -247 -435 -268 m -8 604 q 178 779 106 682 q 251 753 238 769 q 278 685 254 718 q 367 593 301 651 q 301 528 339 544 q 215 699 271 600 q 32 528 168 649 q -8 604 -3 563 z "},"Ķ":{"ha":1049,"x_min":-103,"x_max":1244,"o":"m 124 -104 q -12 -96 57 -124 q -103 -18 -81 -68 q 49 103 -26 38 q 207 266 124 169 q 355 465 290 363 q 466 699 419 568 q 522 963 513 831 q 664 942 583 978 q 514 531 629 785 q 833 722 651 578 q 1140 1038 1015 865 q 1185 970 1165 1014 q 1206 875 1206 926 q 574 486 1090 717 q 824 31 635 289 q 1244 -408 1014 -228 q 1150 -474 1208 -446 q 1018 -500 1092 -503 q 756 -144 900 -410 q 478 454 611 122 q 124 -104 301 88 m 214 -389 q 325 -282 285 -339 q 257 -224 276 -253 q 394 -86 303 -139 q 472 -190 453 -139 q 229 -417 413 -312 q 214 -389 214 -401 m 503 506 z "},"ķ":{"ha":724,"x_min":-162,"x_max":774,"o":"m -56 -6 q -162 50 -125 1 q 55 481 -93 142 q 207 931 203 821 q 328 889 269 947 q 180 458 333 814 q -56 -6 26 101 m -89 -312 q 22 -206 -18 -262 q -46 -147 -26 -176 q 92 -10 0 -62 q 169 -114 150 -62 q -74 -340 110 -236 q -89 -312 -89 -325 m 132 297 q 313 394 225 332 q 451 536 400 456 q 512 506 481 526 q 554 465 543 486 q 426 345 508 388 q 253 294 343 303 q 403 108 244 115 q 469 120 432 107 q 551 161 506 133 q 643 244 596 189 q 729 372 690 299 l 774 343 q 711 236 750 292 q 620 126 672 181 q 502 34 568 71 q 371 -7 436 -3 q 172 72 228 -15 q 132 297 117 158 z "},"Ĺ":{"ha":1015,"x_min":-175,"x_max":1232,"o":"m 1118 -361 q 639 -237 896 -279 q 151 -197 382 -196 q 71 -237 125 -210 q -10 -277 17 -264 q -74 -306 -36 -290 q -143 -331 -112 -322 q -143 -119 -175 -249 l 108 -107 q 301 176 213 22 q 446 445 390 331 q 571 671 501 560 q 743 867 640 782 q 990 1006 846 951 q 1115 951 1049 1003 q 1183 846 1182 900 q 931 762 1040 815 q 752 646 821 708 q 615 493 683 583 q 497 317 547 403 q 361 115 446 232 q 185 -103 276 -3 l 194 -103 q 1044 -122 810 -36 q 1118 -361 1139 -264 m 897 1053 q 904 1101 889 1067 q 1164 1335 1079 1213 q 1217 1297 1201 1336 q 1218 1204 1232 1258 q 897 1053 1113 1100 z "},"ĺ":{"ha":499,"x_min":-19,"x_max":692,"o":"m 161 26 q -11 260 -18 49 q 154 736 -4 461 q 335 993 236 879 q 421 956 372 990 q 485 893 469 922 q 293 654 375 767 q 165 453 211 542 q 99 297 118 365 q 92 184 81 228 q 140 121 103 140 q 320 154 213 86 q 506 372 428 222 l 549 343 q 488 236 525 290 q 401 130 451 182 q 288 48 351 78 q 161 26 225 18 m 357 1019 q 364 1068 349 1033 q 624 1301 539 1179 q 676 1264 661 1303 q 678 1171 692 1225 q 357 1019 572 1067 z "},"Ļ":{"ha":1015,"x_min":-175,"x_max":1183,"o":"m 1118 -361 q 639 -237 896 -279 q 151 -197 382 -196 q 71 -237 125 -210 q -10 -277 17 -264 q -74 -306 -36 -290 q -143 -331 -112 -322 q -143 -119 -175 -249 l 108 -107 q 301 176 213 22 q 446 445 390 331 q 571 671 501 560 q 743 867 640 782 q 990 1006 846 951 q 1115 951 1049 1003 q 1183 846 1182 900 q 931 762 1040 815 q 752 646 821 708 q 615 493 683 583 q 497 317 547 403 q 361 115 446 232 q 185 -103 276 -3 l 194 -103 q 1044 -122 810 -36 q 1118 -361 1139 -264 m 140 -575 q 251 -468 211 -525 q 183 -410 203 -439 q 321 -272 229 -325 q 399 -376 379 -325 q 156 -603 339 -499 q 140 -575 140 -587 z "},"ļ":{"ha":499,"x_min":-103,"x_max":549,"o":"m 161 26 q -11 260 -18 49 q 154 736 -4 461 q 335 993 236 879 q 421 956 372 990 q 485 893 469 922 q 293 654 375 767 q 165 453 211 542 q 99 297 118 365 q 92 184 81 228 q 140 121 103 140 q 320 154 213 86 q 506 372 428 222 l 549 343 q 488 236 525 290 q 401 130 451 182 q 288 48 351 78 q 161 26 225 18 m -103 -389 q 8 -282 -32 -339 q -60 -224 -40 -253 q 78 -86 -14 -139 q 156 -190 136 -139 q -87 -417 96 -312 q -103 -389 -103 -401 z "},"Ľ":{"ha":1015,"x_min":-175,"x_max":1464,"o":"m 1118 -361 q 639 -237 896 -279 q 151 -197 382 -196 q 71 -237 125 -210 q -10 -277 17 -264 q -74 -306 -36 -290 q -143 -331 -112 -322 q -143 -119 -175 -249 l 108 -107 q 301 176 213 22 q 446 445 390 331 q 571 671 501 560 q 743 867 640 782 q 990 1006 846 951 q 1115 951 1049 1003 q 1183 846 1182 900 q 931 762 1040 815 q 752 646 821 708 q 615 493 683 583 q 497 317 547 403 q 361 115 446 232 q 185 -103 276 -3 l 194 -103 q 1044 -122 810 -36 q 1118 -361 1139 -264 m 1257 1013 q 1464 1022 1369 1093 q 1377 876 1418 974 q 1339 706 1336 778 q 1265 696 1313 688 q 1249 758 1257 718 q 1242 871 1242 799 q 1257 1013 1242 943 z "},"ľ":{"ha":499,"x_min":-19,"x_max":757,"o":"m 161 26 q -11 260 -18 49 q 154 736 -4 461 q 335 993 236 879 q 421 956 372 990 q 485 893 469 922 q 293 654 375 767 q 165 453 211 542 q 99 297 118 365 q 92 184 81 228 q 140 121 103 140 q 320 154 213 86 q 506 372 428 222 l 549 343 q 488 236 525 290 q 401 130 451 182 q 288 48 351 78 q 161 26 225 18 m 550 922 q 757 932 663 1003 q 670 785 711 883 q 632 615 629 688 q 558 606 606 597 q 542 668 550 628 q 535 781 535 708 q 550 922 535 853 z "},"Ł":{"ha":1015,"x_min":-175,"x_max":1183,"o":"m 1118 -361 q 639 -237 896 -279 q 151 -197 382 -196 q 71 -237 125 -210 q -10 -277 17 -264 q -74 -306 -36 -290 q -143 -331 -112 -322 q -143 -119 -175 -249 l 108 -107 q 388 332 242 58 q 219 283 303 319 q 314 461 224 379 q 463 481 393 476 q 557 647 515 582 q 661 786 599 713 q 805 913 724 860 q 990 1006 886 967 q 1115 951 1049 1003 q 1183 846 1182 900 q 839 713 968 801 q 604 478 710 624 q 743 447 694 469 q 708 318 742 375 q 513 342 619 343 q 476 286 508 335 q 435 222 444 238 q 396 164 425 207 q 348 97 367 121 q 301 35 329 72 q 244 -36 272 -3 q 185 -103 215 -69 l 194 -103 q 1044 -122 810 -36 q 1118 -361 1139 -264 z "},"ł":{"ha":499,"x_min":-37,"x_max":549,"o":"m 161 26 q 20 111 63 39 q -8 292 -22 183 q 53 524 6 400 q 176 774 100 649 q -37 719 60 763 q 57 897 -33 815 q 275 918 169 921 q 335 993 308 963 q 421 956 372 990 q 485 893 469 922 l 479 886 q 483 885 481 886 q 486 883 485 883 q 451 754 485 811 q 381 769 419 764 q 206 525 275 638 q 110 331 138 413 q 90 196 82 250 q 140 121 97 142 q 320 154 213 86 q 506 372 428 222 l 549 343 q 488 236 525 290 q 401 130 451 182 q 288 48 351 78 q 161 26 225 18 z "},"Ń":{"ha":1299,"x_min":-172,"x_max":1765,"o":"m 43 -315 q -90 -293 -24 -328 q -172 -208 -156 -258 q 52 -56 -58 -140 q 279 144 163 29 q 488 383 396 260 q 649 658 581 507 q 742 961 718 810 q 836 956 796 975 l 822 911 l 846 935 q 925 435 906 690 q 1269 790 1074 615 q 1643 1053 1465 965 q 1765 933 1700 1025 q 1507 838 1635 903 q 1274 690 1379 774 q 1085 526 1168 607 q 929 357 1003 446 q 875 58 939 115 q 761 33 800 -10 q 754 176 722 75 l 765 206 q 818 296 779 238 q 751 718 806 576 q 453 167 638 447 q 43 -315 269 -112 m 1024 929 q 1031 978 1015 943 q 1290 1211 1206 1089 q 1343 1174 1328 1213 q 1344 1081 1358 1135 q 1024 929 1239 976 z "},"ń":{"ha":786,"x_min":-83,"x_max":836,"o":"m 21 -6 q -83 50 -49 3 q -10 249 -37 111 q 14 494 18 386 q 135 451 79 508 q 117 215 150 358 q 394 483 301 385 l 396 482 q 399 486 397 483 q 401 490 400 489 q 477 455 436 478 q 529 411 518 432 q 508 363 521 392 q 488 320 494 335 q 472 284 481 306 q 458 251 463 263 q 451 224 454 239 q 447 199 447 208 q 449 177 447 189 q 458 156 451 165 q 474 139 464 147 q 619 160 521 96 q 793 372 718 225 l 836 343 q 780 240 814 292 q 699 137 746 188 q 591 56 653 86 q 465 26 529 25 q 324 133 363 31 q 331 357 285 235 q 53 42 201 249 q 21 -6 38 15 m 199 564 q 206 613 190 578 q 465 846 381 724 q 518 808 503 847 q 519 715 533 769 q 199 564 414 611 z "},"Ņ":{"ha":1299,"x_min":-172,"x_max":1765,"o":"m 43 -315 q -90 -293 -24 -328 q -172 -208 -156 -258 q 52 -56 -58 -140 q 279 144 163 29 q 488 383 396 260 q 649 658 581 507 q 742 961 718 810 q 836 956 796 975 l 822 911 l 846 935 q 925 435 906 690 q 1269 790 1074 615 q 1643 1053 1465 965 q 1765 933 1700 1025 q 1507 838 1635 903 q 1274 690 1379 774 q 1085 526 1168 607 q 929 357 1003 446 q 875 58 939 115 q 761 33 800 -10 q 754 176 722 75 l 765 206 q 818 296 779 238 q 751 718 806 576 q 453 167 638 447 q 43 -315 269 -112 m 354 -374 q 465 -267 425 -324 q 397 -208 417 -237 q 535 -71 443 -124 q 613 -175 593 -124 q 369 -401 553 -297 q 354 -374 354 -386 z "},"ņ":{"ha":786,"x_min":-83,"x_max":836,"o":"m 21 -6 q -83 50 -49 3 q -10 249 -37 111 q 14 494 18 386 q 135 451 79 508 q 117 215 150 358 q 394 483 301 385 l 396 482 q 399 486 397 483 q 401 490 400 489 q 477 455 436 478 q 529 411 518 432 q 508 363 521 392 q 488 320 494 335 q 472 284 481 306 q 458 251 463 263 q 451 224 454 239 q 447 199 447 208 q 449 177 447 189 q 458 156 451 165 q 474 139 464 147 q 619 160 521 96 q 793 372 718 225 l 836 343 q 780 240 814 292 q 699 137 746 188 q 591 56 653 86 q 465 26 529 25 q 324 133 363 31 q 331 357 285 235 q 53 42 201 249 q 21 -6 38 15 m -29 -339 q 82 -232 42 -289 q 14 -174 33 -203 q 151 -36 60 -89 q 229 -140 210 -89 q -14 -367 169 -262 q -29 -339 -29 -351 z "},"Ň":{"ha":1299,"x_min":-172,"x_max":1765,"o":"m 43 -315 q -90 -293 -24 -328 q -172 -208 -156 -258 q 52 -56 -58 -140 q 279 144 163 29 q 488 383 396 260 q 649 658 581 507 q 742 961 718 810 q 836 956 796 975 l 822 911 l 846 935 q 925 435 906 690 q 1269 790 1074 615 q 1643 1053 1465 965 q 1765 933 1700 1025 q 1507 838 1635 903 q 1274 690 1379 774 q 1085 526 1168 607 q 929 357 1003 446 q 875 58 939 115 q 761 33 800 -10 q 754 176 722 75 l 765 206 q 818 296 779 238 q 751 718 806 576 q 453 167 638 447 q 43 -315 269 -112 m 971 1103 q 1038 1168 1000 1154 q 1124 996 1067 1101 q 1307 1168 1167 1043 q 1347 1092 1342 1133 q 1161 917 1233 1014 q 1088 943 1101 926 q 1060 1011 1083 978 q 971 1103 1036 1044 z "},"ň":{"ha":786,"x_min":-83,"x_max":836,"o":"m 21 -6 q -83 50 -49 3 q -10 249 -37 111 q 14 494 18 386 q 135 451 79 508 q 117 215 150 358 q 394 483 301 385 l 396 482 q 399 486 397 483 q 401 490 400 489 q 477 455 436 478 q 529 411 518 432 q 508 363 521 392 q 488 320 494 335 q 472 284 481 306 q 458 251 463 263 q 451 224 454 239 q 447 199 447 208 q 449 177 447 189 q 458 156 451 165 q 474 139 464 147 q 619 160 521 96 q 793 372 718 225 l 836 343 q 780 240 814 292 q 699 137 746 188 q 591 56 653 86 q 465 26 529 25 q 324 133 363 31 q 331 357 285 235 q 53 42 201 249 q 21 -6 38 15 m 146 738 q 213 803 175 789 q 299 631 242 736 q 482 803 342 678 q 522 726 517 768 q 336 551 408 649 q 263 578 276 561 q 235 646 258 613 q 146 738 211 679 z "},"Ŋ":{"ha":1271,"x_min":-169,"x_max":1768,"o":"m 46 -315 q -87 -293 -21 -328 q -169 -208 -153 -258 q 55 -56 -56 -140 q 282 144 165 29 q 491 383 399 260 q 652 658 583 507 q 744 961 721 810 q 843 953 803 975 q 885 713 865 868 q 910 413 906 558 q 1263 781 1061 599 q 1646 1053 1464 963 q 1768 933 1703 1025 q 1474 804 1619 897 q 1220 599 1328 711 q 1026 367 1113 486 q 892 153 939 247 q 838 8 844 58 q 1082 143 953 29 q 1276 372 1211 257 l 1319 343 q 1253 240 1297 299 q 1137 110 1208 182 q 958 -25 1065 38 q 733 -117 851 -87 q 641 -230 690 -186 q 549 -287 592 -274 q 470 -300 507 -301 q 409 -283 433 -299 q 376 -247 385 -268 q 417 -120 344 -174 q 625 -67 490 -67 l 639 -67 q 698 53 646 -53 q 792 238 750 158 q 854 342 835 318 q 754 719 817 575 q 457 167 640 447 q 46 -315 274 -112 m 472 -208 q 504 -215 482 -221 q 556 -183 526 -208 q 606 -128 586 -158 q 519 -133 554 -119 q 473 -169 483 -147 q 472 -208 463 -190 z "},"ŋ":{"ha":786,"x_min":-137,"x_max":838,"o":"m 21 -6 q -83 50 -49 3 q -10 249 -37 111 q 14 494 18 386 q 135 451 79 508 q 117 215 150 358 q 394 483 301 385 l 396 482 q 399 486 397 483 q 401 490 400 489 q 476 456 435 479 q 531 411 517 432 q 475 288 479 299 q 332 -3 393 97 q 588 133 447 13 q 794 372 729 254 l 838 343 q 771 240 815 299 q 655 110 726 182 q 476 -25 583 38 q 251 -117 369 -87 q 159 -230 208 -186 q 67 -287 110 -274 q -12 -300 25 -301 q -73 -283 -49 -299 q -106 -247 -97 -268 q -65 -119 -137 -172 q 143 -67 8 -65 l 157 -67 q 219 63 188 -10 q 292 240 250 136 q 344 369 333 343 q 53 42 213 263 q 21 -6 38 15 m -10 -208 q 7 -220 -6 -218 q 35 -217 19 -222 q 68 -203 51 -212 q 100 -174 85 -193 q 122 -131 115 -154 q 40 -144 75 -132 q -7 -174 6 -157 q -10 -208 -19 -192 z "},"Ō":{"ha":1153,"x_min":4,"x_max":1056,"o":"m 358 29 q 509 1 435 -7 q 649 64 583 10 q 765 194 715 118 q 841 367 814 269 q 865 561 868 465 q 747 556 799 543 q 678 608 696 568 q 805 678 763 624 q 838 792 847 733 q 781 881 829 850 q 656 906 724 911 q 505 842 588 900 q 351 683 422 783 q 241 449 276 578 q 233 201 206 319 q 358 29 260 82 m 213 -62 q 39 156 74 8 q 67 466 4 304 q 260 756 129 628 q 516 935 378 872 q 781 982 654 999 q 990 817 929 963 q 986 451 1054 661 q 686 36 907 206 q 438 -104 575 -50 q 330 -101 394 -111 q 213 -62 265 -90 m 582 1111 q 617 1178 588 1138 q 963 1176 844 1154 q 965 1125 972 1156 q 943 1069 958 1094 q 793 1064 876 1053 q 663 1086 710 1075 q 582 1111 617 1097 z "},"ō":{"ha":690,"x_min":-50,"x_max":740,"o":"m 158 26 q -24 172 7 44 q 22 410 -50 283 q 194 563 90 529 q 256 572 225 572 q 310 501 288 572 q 384 555 339 554 q 469 486 429 556 q 486 333 494 443 q 696 372 633 294 l 740 343 q 630 275 711 292 q 471 276 549 258 q 421 182 446 222 q 358 99 396 142 q 269 38 319 57 q 158 26 218 19 m 136 121 q 276 148 197 90 q 390 301 354 206 q 347 313 375 296 q 300 354 319 329 q 292 446 285 399 q 197 405 240 436 q 127 333 153 374 q 90 251 101 293 q 91 174 79 210 q 136 121 103 138 m 149 724 q 183 790 154 750 q 529 789 411 767 q 532 738 539 768 q 510 682 525 707 q 360 676 443 665 q 230 699 276 688 q 149 724 183 710 z "},"Ő":{"ha":1153,"x_min":4,"x_max":1119,"o":"m 358 29 q 509 1 435 -7 q 649 64 583 10 q 765 194 715 118 q 841 367 814 269 q 865 561 868 465 q 747 556 799 543 q 678 608 696 568 q 805 678 763 624 q 838 792 847 733 q 781 881 829 850 q 656 906 724 911 q 505 842 588 900 q 351 683 422 783 q 241 449 276 578 q 233 201 206 319 q 358 29 260 82 m 213 -62 q 39 156 74 8 q 67 466 4 304 q 260 756 129 628 q 516 935 378 872 q 781 982 654 999 q 990 817 929 963 q 986 451 1054 661 q 686 36 907 206 q 438 -104 575 -50 q 330 -101 394 -111 q 213 -62 265 -90 m 599 1068 q 606 1117 590 1082 q 865 1350 781 1228 q 919 1308 904 1351 q 915 1207 933 1265 q 1051 1350 986 1261 q 1104 1313 1089 1351 q 1106 1219 1119 1274 q 785 1068 1000 1115 q 804 1140 774 1090 q 599 1068 710 1092 z "},"ő":{"ha":690,"x_min":-50,"x_max":740,"o":"m 158 26 q -24 172 7 44 q 22 410 -50 283 q 194 563 90 529 q 256 572 225 572 q 310 501 288 572 q 384 555 339 554 q 469 486 429 556 q 486 333 494 443 q 696 372 633 294 l 740 343 q 630 275 711 292 q 471 276 549 258 q 421 182 446 222 q 358 99 396 142 q 269 38 319 57 q 158 26 218 19 m 136 121 q 276 148 197 90 q 390 301 354 206 q 347 313 375 296 q 300 354 319 329 q 292 446 285 399 q 197 405 240 436 q 127 333 153 374 q 90 251 101 293 q 91 174 79 210 q 136 121 103 138 m 165 681 q 172 729 157 694 q 432 963 347 840 q 485 921 471 964 q 482 819 500 878 q 618 963 553 874 q 671 925 656 964 q 672 832 686 886 q 351 681 567 728 q 371 753 340 703 q 165 681 276 704 z "},"Œ":{"ha":1904,"x_min":4,"x_max":1918,"o":"m 358 29 q 486 -1 422 -6 q 608 37 550 4 q 715 126 665 69 q 740 291 699 208 q 854 426 781 374 q 865 561 867 496 q 747 556 799 543 q 678 608 696 568 q 805 678 763 624 q 838 792 847 733 q 781 881 829 850 q 656 906 724 911 q 505 842 588 900 q 351 683 422 783 q 241 449 276 578 q 233 201 206 319 q 358 29 260 82 m 213 -62 q 39 156 74 8 q 67 466 4 304 q 260 756 129 628 q 516 935 378 872 q 781 982 654 999 q 922 917 865 971 q 1003 779 979 864 q 1131 897 1046 847 q 1311 967 1217 947 q 1501 978 1406 988 q 1663 925 1597 968 q 1728 840 1717 889 q 1724 749 1740 790 q 1686 651 1708 707 q 1663 563 1664 596 q 1542 561 1618 550 q 1442 606 1465 572 q 1482 667 1454 636 q 1536 719 1510 699 q 1586 767 1563 740 q 1613 816 1610 794 q 1597 869 1615 838 q 1510 914 1569 907 q 1385 894 1451 921 q 1256 820 1318 868 q 1153 692 1194 772 q 1113 518 1113 611 q 1278 527 1214 532 q 1369 501 1342 522 q 1386 446 1397 481 q 1318 390 1375 410 q 1185 382 1261 369 q 1058 443 1110 394 q 935 317 972 401 q 930 145 899 233 q 1056 8 961 57 q 1213 -26 1121 -25 q 1401 1 1304 -28 q 1589 79 1497 29 q 1757 206 1681 129 q 1875 371 1833 282 l 1918 344 q 1774 137 1867 231 q 1568 -16 1681 43 q 1335 -105 1456 -75 q 1099 -127 1215 -135 q 892 -75 982 -119 q 732 74 776 -19 q 438 -104 604 -39 q 330 -101 394 -111 q 213 -62 265 -90 m 994 479 l 1018 479 q 1003 507 1007 499 l 994 479 z "},"œ":{"ha":1157,"x_min":-50,"x_max":1207,"o":"m 158 26 q -24 172 7 44 q 22 410 -50 283 q 194 563 90 529 q 256 572 225 572 q 310 501 288 572 q 384 555 339 554 q 469 486 429 556 q 486 424 482 464 q 594 513 533 482 q 707 546 654 544 q 811 533 760 547 q 883 494 854 519 q 919 436 913 468 q 913 371 926 404 q 851 305 899 338 q 731 249 804 272 q 538 197 649 222 q 613 93 542 122 q 807 99 683 64 q 1007 212 901 129 q 1163 383 1113 294 l 1207 356 q 1064 195 1171 289 q 844 53 957 101 q 569 23 700 -8 q 403 154 439 54 q 158 26 301 8 m 136 121 q 276 148 197 90 q 392 301 356 206 q 349 312 378 294 q 300 354 319 329 q 292 446 285 399 q 197 405 240 436 q 127 333 153 374 q 90 251 101 293 q 91 174 79 210 q 136 121 103 138 m 540 235 q 694 290 589 250 q 831 404 807 338 q 800 474 847 454 q 779 479 790 478 q 629 396 713 486 q 540 235 554 315 z "},"Ŕ":{"ha":1308,"x_min":151,"x_max":1449,"o":"m 375 -185 q 240 -175 308 -203 q 151 -99 171 -147 q 606 383 436 108 l 600 382 q 506 401 556 383 q 431 447 457 418 q 433 513 406 475 q 529 540 468 547 q 667 494 590 533 q 774 883 760 688 q 915 863 838 901 q 760 435 885 706 q 797 403 772 425 q 744 401 763 403 l 743 400 q 983 437 879 386 q 1131 567 1088 488 q 1160 739 1175 646 q 1061 897 1144 832 q 279 700 815 1089 q 201 822 206 726 q 347 886 289 863 q 501 944 406 910 q 674 993 596 979 q 842 1015 751 1007 q 1021 1005 933 1022 q 1188 947 1108 988 q 1304 838 1269 907 q 1322 693 1339 768 q 1252 548 1304 618 q 1101 426 1200 478 q 881 360 1001 374 q 1089 -28 928 193 q 1449 -406 1250 -250 q 1260 -482 1372 -485 q 1035 -172 1158 -403 q 799 343 911 58 l 814 354 q 724 357 754 354 q 375 -185 544 -6 m 983 1046 q 990 1094 975 1060 q 1250 1328 1165 1206 q 1303 1290 1288 1329 q 1304 1197 1318 1251 q 983 1046 1199 1093 z "},"ŕ":{"ha":613,"x_min":8,"x_max":663,"o":"m 14 389 q 54 475 51 467 q 14 538 28 507 q 43 653 8 607 q 124 685 78 700 q 160 603 163 665 q 128 499 157 542 l 122 483 q 215 488 157 467 l 219 481 q 223 485 221 482 q 226 489 225 488 q 301 455 260 479 q 354 408 343 431 q 327 349 344 385 q 303 297 310 313 q 286 256 296 281 q 275 218 276 231 q 274 189 274 206 q 281 160 274 172 q 300 138 288 149 q 444 160 346 94 q 618 371 542 225 l 663 343 q 605 239 639 290 q 524 136 571 188 q 415 54 476 85 q 289 25 353 24 q 169 89 211 28 q 132 242 128 150 q 185 424 136 333 q 104 442 149 424 q 60 361 89 406 l 21 350 l 14 389 m 219 646 q 226 694 211 660 q 486 928 401 806 q 539 890 524 929 q 540 797 554 851 q 219 646 435 693 z "},"Ŗ":{"ha":1308,"x_min":151,"x_max":1449,"o":"m 375 -185 q 240 -175 308 -203 q 151 -99 171 -147 q 606 383 436 108 l 600 382 q 506 401 556 383 q 431 447 457 418 q 433 513 406 475 q 529 540 468 547 q 667 494 590 533 q 774 883 760 688 q 915 863 838 901 q 760 435 885 706 q 797 403 772 425 q 744 401 763 403 l 743 400 q 983 437 879 386 q 1131 567 1088 488 q 1160 739 1175 646 q 1061 897 1144 832 q 279 700 815 1089 q 201 822 206 726 q 347 886 289 863 q 501 944 406 910 q 674 993 596 979 q 842 1015 751 1007 q 1021 1005 933 1022 q 1188 947 1108 988 q 1304 838 1269 907 q 1322 693 1339 768 q 1252 548 1304 618 q 1101 426 1200 478 q 881 360 1001 374 q 1089 -28 928 193 q 1449 -406 1250 -250 q 1260 -482 1372 -485 q 1035 -172 1158 -403 q 799 343 911 58 l 814 354 q 724 357 754 354 q 375 -185 544 -6 m 506 -415 q 617 -308 576 -365 q 549 -250 568 -279 q 686 -112 594 -165 q 764 -217 744 -165 q 521 -443 704 -339 q 506 -415 506 -428 z "},"ŗ":{"ha":613,"x_min":-125,"x_max":663,"o":"m 14 389 q 54 475 51 467 q 14 538 28 507 q 43 653 8 607 q 124 685 78 700 q 160 603 163 665 q 128 499 157 542 l 122 483 q 215 488 157 467 l 219 481 q 223 485 221 482 q 226 489 225 488 q 301 455 260 479 q 354 408 343 431 q 327 349 344 385 q 303 297 310 313 q 286 256 296 281 q 275 218 276 231 q 274 189 274 206 q 281 160 274 172 q 300 138 288 149 q 444 160 346 94 q 618 371 542 225 l 663 343 q 605 239 639 290 q 524 136 571 188 q 415 54 476 85 q 289 25 353 24 q 169 89 211 28 q 132 242 128 150 q 185 424 136 333 q 104 442 149 424 q 60 361 89 406 l 21 350 l 14 389 m -125 -304 q -14 -197 -54 -254 q -82 -139 -62 -168 q 56 -1 -36 -54 q 133 -106 114 -54 q -110 -332 74 -228 q -125 -304 -125 -317 z "},"Ř":{"ha":1308,"x_min":151,"x_max":1449,"o":"m 375 -185 q 240 -175 308 -203 q 151 -99 171 -147 q 606 383 436 108 l 600 382 q 506 401 556 383 q 431 447 457 418 q 433 513 406 475 q 529 540 468 547 q 667 494 590 533 q 774 883 760 688 q 915 863 838 901 q 760 435 885 706 q 797 403 772 425 q 744 401 763 403 l 743 400 q 983 437 879 386 q 1131 567 1088 488 q 1160 739 1175 646 q 1061 897 1144 832 q 279 700 815 1089 q 201 822 206 726 q 347 886 289 863 q 501 944 406 910 q 674 993 596 979 q 842 1015 751 1007 q 1021 1005 933 1022 q 1188 947 1108 988 q 1304 838 1269 907 q 1322 693 1339 768 q 1252 548 1304 618 q 1101 426 1200 478 q 881 360 1001 374 q 1089 -28 928 193 q 1449 -406 1250 -250 q 1260 -482 1372 -485 q 1035 -172 1158 -403 q 799 343 911 58 l 814 354 q 724 357 754 354 q 375 -185 544 -6 m 931 1219 q 997 1285 960 1271 q 1083 1113 1026 1218 q 1267 1285 1126 1160 q 1307 1208 1301 1250 q 1121 1033 1193 1131 q 1047 1060 1061 1043 q 1019 1128 1043 1094 q 931 1219 996 1161 z "},"ř":{"ha":613,"x_min":8,"x_max":663,"o":"m 14 389 q 54 475 51 467 q 14 538 28 507 q 43 653 8 607 q 124 685 78 700 q 160 603 163 665 q 128 499 157 542 l 122 483 q 215 488 157 467 l 219 481 q 223 485 221 482 q 226 489 225 488 q 301 455 260 479 q 354 408 343 431 q 327 349 344 385 q 303 297 310 313 q 286 256 296 281 q 275 218 276 231 q 274 189 274 206 q 281 160 274 172 q 300 138 288 149 q 444 160 346 94 q 618 371 542 225 l 663 343 q 605 239 639 290 q 524 136 571 188 q 415 54 476 85 q 289 25 353 24 q 169 89 211 28 q 132 242 128 150 q 185 424 136 333 q 104 442 149 424 q 60 361 89 406 l 21 350 l 14 389 m 167 819 q 233 885 196 871 q 319 713 263 818 q 503 885 363 760 q 543 808 538 850 q 357 633 429 731 q 283 660 297 643 q 256 728 279 694 q 167 819 232 761 z "},"Ś":{"ha":1088,"x_min":-49,"x_max":1210,"o":"m 679 -206 q 542 -288 619 -260 q 387 -316 464 -317 q 233 -293 310 -315 q 97 -223 156 -271 q -1 -109 39 -175 q -45 44 -42 -43 q -15 233 -49 132 q 181 235 65 275 q 146 -28 93 122 q 294 -217 189 -149 q 532 -236 418 -297 q 615 -162 578 -211 q 678 -12 674 -89 q 656 121 683 64 q 589 269 629 178 q 535 435 549 360 q 539 592 519 515 q 601 728 558 669 q 703 831 643 786 q 828 896 764 875 q 959 913 893 917 q 1076 875 1025 908 q 1132 804 1122 846 q 1128 728 1142 763 q 1095 646 1114 693 q 1075 569 1076 599 q 974 568 1038 558 q 889 606 910 578 q 925 657 900 631 q 972 701 950 683 q 1015 742 994 718 q 1036 784 1035 765 q 1021 831 1038 803 q 883 858 979 886 q 719 738 782 829 q 699 449 631 608 q 770 250 746 338 q 799 78 794 163 q 773 -76 803 -6 q 679 -206 743 -147 m 875 1006 q 882 1054 867 1019 q 1142 1288 1057 1165 q 1194 1250 1179 1289 q 1196 1157 1210 1211 q 875 1006 1090 1053 z "},"ś":{"ha":497,"x_min":-228,"x_max":475,"o":"m 278 82 q 157 -4 251 10 q -42 12 63 -18 q -228 93 -147 42 q -192 140 -215 119 q -109 92 -162 111 q 4 81 -56 74 q 94 133 64 89 q 108 201 118 160 q 80 273 99 242 q 38 347 61 304 q 10 417 14 389 q 15 533 -3 478 q 69 618 33 589 q 149 656 104 647 q 236 635 194 665 q 265 560 274 603 q 201 482 256 518 q 83 447 147 446 q 104 359 85 399 q 150 296 124 319 q 206 247 176 272 q 256 202 235 222 q 285 150 276 182 q 278 82 293 118 m 140 760 q 147 808 132 774 q 407 1042 322 919 q 460 1004 444 1043 q 461 911 475 965 q 140 760 356 807 z "},"Ŝ":{"ha":1088,"x_min":-49,"x_max":1193,"o":"m 679 -206 q 542 -288 619 -260 q 387 -316 464 -317 q 233 -293 310 -315 q 97 -223 156 -271 q -1 -109 39 -175 q -45 44 -42 -43 q -15 233 -49 132 q 181 235 65 275 q 146 -28 93 122 q 294 -217 189 -149 q 532 -236 418 -297 q 615 -162 578 -211 q 678 -12 674 -89 q 656 121 683 64 q 589 269 629 178 q 535 435 549 360 q 539 592 519 515 q 601 728 558 669 q 703 831 643 786 q 828 896 764 875 q 959 913 893 917 q 1076 875 1025 908 q 1132 804 1122 846 q 1128 728 1142 763 q 1095 646 1114 693 q 1075 569 1076 599 q 974 568 1038 558 q 889 606 910 578 q 925 657 900 631 q 972 701 950 683 q 1015 742 994 718 q 1036 784 1035 765 q 1021 831 1038 803 q 883 858 979 886 q 719 738 782 829 q 699 449 631 608 q 770 250 746 338 q 799 78 794 163 q 773 -76 803 -6 q 679 -206 743 -147 m 818 1049 q 1004 1224 932 1126 q 1078 1197 1064 1214 q 1104 1129 1081 1163 q 1193 1038 1128 1096 q 1128 972 1165 989 q 1042 1143 1097 1044 q 858 972 994 1093 q 818 1049 824 1007 z "},"ŝ":{"ha":497,"x_min":-228,"x_max":458,"o":"m 278 82 q 157 -4 251 10 q -42 12 63 -18 q -228 93 -147 42 q -192 140 -215 119 q -109 92 -162 111 q 4 81 -56 74 q 94 133 64 89 q 108 201 118 160 q 80 273 99 242 q 38 347 61 304 q 10 417 14 389 q 15 533 -3 478 q 69 618 33 589 q 149 656 104 647 q 236 635 194 665 q 265 560 274 603 q 201 482 256 518 q 83 447 147 446 q 104 359 85 399 q 150 296 124 319 q 206 247 176 272 q 256 202 235 222 q 285 150 276 182 q 278 82 293 118 m 83 803 q 269 978 197 881 q 343 951 329 968 q 369 883 346 917 q 458 792 393 850 q 393 726 431 743 q 307 897 363 799 q 124 726 260 847 q 83 803 89 761 z "},"Ş":{"ha":1088,"x_min":-111,"x_max":1142,"o":"m 679 -206 q 434 -313 578 -297 q 175 -271 290 -329 l 94 -336 q 213 -353 163 -333 q 284 -404 263 -372 q 303 -476 306 -436 q 268 -556 300 -517 q 88 -638 208 -626 q -111 -590 -32 -650 q -96 -562 -108 -575 q 26 -572 -33 -586 q 124 -511 85 -558 q 133 -415 164 -462 q 11 -368 103 -368 l 26 -340 l 153 -260 q 22 -147 72 -215 q -43 19 -28 -78 q -15 233 -58 117 q 181 235 65 275 q 146 -28 93 122 q 294 -217 189 -149 q 532 -236 418 -297 q 615 -162 578 -211 q 678 -12 674 -89 q 656 121 683 64 q 589 269 629 178 q 535 435 549 360 q 539 592 519 515 q 601 728 558 669 q 703 831 643 786 q 828 896 764 875 q 959 913 893 917 q 1076 875 1025 908 q 1132 804 1122 846 q 1128 728 1142 763 q 1095 646 1114 693 q 1075 569 1076 599 q 974 568 1038 558 q 889 606 910 578 q 925 657 900 631 q 972 701 950 683 q 1015 742 994 718 q 1036 784 1035 765 q 1021 831 1038 803 q 883 858 979 886 q 719 738 782 829 q 699 449 631 608 q 770 250 746 338 q 799 78 794 163 q 773 -76 803 -6 q 679 -206 743 -147 z "},"ş":{"ha":497,"x_min":-283,"x_max":293,"o":"m 278 82 q 174 -1 254 18 q 4 1 94 -21 l -78 -65 q 40 -82 -10 -62 q 112 -133 90 -101 q 131 -206 133 -165 q 96 -285 128 -246 q -84 -367 36 -356 q -283 -319 -204 -379 q -268 -292 -281 -304 q -147 -301 -206 -315 q -49 -240 -87 -287 q -39 -144 -8 -192 q -161 -97 -69 -97 l -146 -69 l -25 8 q -228 93 -142 38 q -192 140 -215 119 q -109 92 -162 111 q 4 81 -56 74 q 94 133 64 89 q 108 201 118 160 q 80 273 99 242 q 38 347 61 304 q 10 417 14 389 q 15 533 -3 478 q 69 618 33 589 q 149 656 104 647 q 236 635 194 665 q 265 560 274 603 q 201 482 256 518 q 83 447 147 446 q 104 359 85 399 q 150 296 124 319 q 206 247 176 272 q 256 202 235 222 q 285 150 276 182 q 278 82 293 118 z "},"Š":{"ha":1088,"x_min":-49,"x_max":1199,"o":"m 679 -206 q 542 -288 619 -260 q 387 -316 464 -317 q 233 -293 310 -315 q 97 -223 156 -271 q -1 -109 39 -175 q -45 44 -42 -43 q -15 233 -49 132 q 181 235 65 275 q 146 -28 93 122 q 294 -217 189 -149 q 532 -236 418 -297 q 615 -162 578 -211 q 678 -12 674 -89 q 656 121 683 64 q 589 269 629 178 q 535 435 549 360 q 539 592 519 515 q 601 728 558 669 q 703 831 643 786 q 828 896 764 875 q 959 913 893 917 q 1076 875 1025 908 q 1132 804 1122 846 q 1128 728 1142 763 q 1095 646 1114 693 q 1075 569 1076 599 q 974 568 1038 558 q 889 606 910 578 q 925 657 900 631 q 972 701 950 683 q 1015 742 994 718 q 1036 784 1035 765 q 1021 831 1038 803 q 883 858 979 886 q 719 738 782 829 q 699 449 631 608 q 770 250 746 338 q 799 78 794 163 q 773 -76 803 -6 q 679 -206 743 -147 m 822 1179 q 889 1244 851 1231 q 975 1072 918 1178 q 1158 1244 1018 1119 q 1199 1168 1193 1210 q 1013 993 1085 1090 q 939 1019 953 1003 q 911 1088 935 1054 q 822 1179 888 1121 z "},"š":{"ha":497,"x_min":-228,"x_max":464,"o":"m 278 82 q 157 -4 251 10 q -42 12 63 -18 q -228 93 -147 42 q -192 140 -215 119 q -109 92 -162 111 q 4 81 -56 74 q 94 133 64 89 q 108 201 118 160 q 80 273 99 242 q 38 347 61 304 q 10 417 14 389 q 15 533 -3 478 q 69 618 33 589 q 149 656 104 647 q 236 635 194 665 q 265 560 274 603 q 201 482 256 518 q 83 447 147 446 q 104 359 85 399 q 150 296 124 319 q 206 247 176 272 q 256 202 235 222 q 285 150 276 182 q 278 82 293 118 m 88 933 q 154 999 117 985 q 240 826 183 932 q 424 999 283 874 q 464 922 458 964 q 278 747 350 844 q 204 774 218 757 q 176 842 200 808 q 88 933 153 875 z "},"Ţ":{"ha":1032,"x_min":46,"x_max":1539,"o":"m 467 -299 q 340 -299 407 -321 l 251 -371 q 369 -387 319 -368 q 441 -439 419 -407 q 460 -511 463 -471 q 425 -590 457 -551 q 245 -673 365 -661 q 46 -625 125 -685 q 61 -597 47 -611 q 183 -607 124 -621 q 281 -546 242 -593 q 290 -450 321 -497 q 168 -403 260 -403 l 183 -375 l 318 -289 q 260 -237 275 -269 q 590 334 358 -1 q 1049 867 822 669 q 206 811 604 893 q 308 1004 200 897 q 1157 935 567 1057 q 1500 968 1222 949 q 1517 790 1539 854 q 1133 860 1369 838 q 817 498 967 715 q 577 70 668 281 q 467 -299 486 -140 z "},"ţ":{"ha":500,"x_min":-219,"x_max":875,"o":"m 161 29 q 23 110 65 40 q -8 283 -19 179 q 47 506 3 386 q 163 750 90 626 q -219 799 -118 768 l -201 856 q 197 808 -68 811 q 336 997 261 910 q 422 959 374 993 q 485 896 469 925 q 418 818 458 865 q 818 919 693 842 q 859 868 843 904 q 871 800 875 832 q 358 743 711 738 q 196 510 260 617 q 108 325 132 403 q 92 196 83 247 q 142 124 100 144 q 322 158 214 89 q 506 375 429 226 l 550 347 q 490 240 526 294 q 403 133 453 186 q 289 51 353 81 q 161 29 225 22 m -212 -289 q -197 -261 -211 -274 q -76 -271 -135 -285 q 22 -210 -17 -257 q 32 -114 63 -161 q -90 -67 1 -67 l -75 -39 l 64 50 l 82 38 l -7 -35 q 111 -51 61 -32 q 183 -103 161 -71 q 201 -175 204 -135 q 167 -254 199 -215 q -13 -337 107 -325 q -212 -289 -133 -349 z "},"Ť":{"ha":1032,"x_min":200,"x_max":1539,"o":"m 467 -299 q 343 -299 406 -319 q 260 -237 281 -279 q 590 334 358 -1 q 1049 867 822 669 q 206 811 604 893 q 308 1004 200 897 q 1157 935 567 1057 q 1500 968 1222 949 q 1517 790 1539 854 q 1133 860 1369 838 q 817 498 967 715 q 577 70 668 281 q 467 -299 486 -140 m 963 1179 q 1029 1244 992 1231 q 1115 1072 1058 1178 q 1299 1244 1158 1119 q 1339 1168 1333 1210 q 1153 993 1225 1090 q 1079 1019 1093 1003 q 1051 1088 1075 1054 q 963 1179 1028 1121 z "},"ť":{"ha":500,"x_min":-219,"x_max":875,"o":"m 161 29 q 23 110 65 40 q -8 283 -19 179 q 47 506 3 386 q 163 750 90 626 q -219 799 -118 768 l -201 856 q 197 808 -68 811 q 336 997 261 910 q 422 959 374 993 q 485 896 469 925 q 418 818 458 865 q 589 842 524 828 q 594 1104 565 971 q 801 1114 707 1185 q 730 1005 765 1078 q 682 863 694 932 q 818 919 763 885 q 859 868 843 904 q 871 800 875 832 q 358 743 711 738 q 196 510 260 617 q 108 325 132 403 q 92 196 83 247 q 142 124 100 144 q 322 158 214 89 q 506 375 429 226 l 550 347 q 490 240 526 294 q 403 133 453 186 q 289 51 353 81 q 161 29 225 22 z "},"Ŧ":{"ha":1032,"x_min":200,"x_max":1539,"o":"m 467 -299 q 343 -299 406 -319 q 260 -237 281 -279 q 646 413 376 43 q 450 360 538 399 q 544 538 454 456 q 758 558 644 558 q 1049 867 911 746 q 206 811 604 893 q 308 1004 200 897 q 1157 935 567 1057 q 1500 968 1222 949 q 1517 790 1539 854 q 1133 860 1369 838 q 856 553 996 742 q 974 524 929 542 q 939 394 972 451 q 764 418 869 415 q 564 38 643 231 q 467 -299 485 -156 z "},"ŧ":{"ha":500,"x_min":-219,"x_max":875,"o":"m 161 29 q 25 108 67 40 q -10 272 -17 175 q 39 489 -4 368 q -111 443 -47 472 q -17 621 -107 539 q 103 638 43 633 q 163 750 138 708 q -219 799 -118 768 l -201 856 q 197 808 -68 811 q 336 997 261 910 q 422 959 374 993 q 485 896 469 925 q 418 818 458 865 q 818 919 693 842 q 859 868 843 904 q 871 800 875 832 q 358 743 711 738 q 332 709 346 726 q 303 670 318 692 q 279 638 288 649 q 413 607 356 629 q 378 478 411 535 q 192 501 297 501 q 91 251 103 351 q 142 124 79 151 q 322 158 214 89 q 506 375 429 226 l 550 347 q 490 240 526 294 q 403 133 453 186 q 289 51 353 81 q 161 29 225 22 z "},"Ũ":{"ha":1229,"x_min":-71,"x_max":1278,"o":"m -12 -22 q -66 54 -61 7 q -41 160 -71 101 q 36 288 -11 219 q 140 438 83 357 q 243 601 196 519 q 319 778 290 682 q 342 960 347 874 q 506 929 460 971 q 477 796 506 868 q 406 658 449 724 q 313 526 363 593 q 221 401 263 460 q 153 290 179 342 q 131 194 126 238 q 178 125 136 151 q 390 213 238 86 q 683 483 450 261 q 704 503 694 493 q 1058 968 824 758 q 1151 882 1108 954 q 956 716 1040 811 q 829 529 871 621 q 772 353 788 438 q 771 208 756 269 q 826 125 786 147 q 1033 154 906 76 q 1235 372 1161 232 l 1278 343 q 1169 178 1235 251 q 1035 65 1104 106 q 896 2 965 24 q 769 -16 826 -19 q 675 13 711 -12 q 621 151 625 46 q 665 404 617 257 q 553 290 604 340 q 442 185 501 239 q 335 92 383 131 q 235 22 286 54 q 141 -25 183 -10 q 58 -41 99 -40 q -12 -22 18 -42 m 574 1097 q 683 1172 639 1156 q 747 1174 726 1189 q 779 1137 767 1160 q 808 1097 792 1114 q 846 1089 824 1081 q 921 1168 901 1110 q 1002 1177 965 1188 q 1033 1122 1039 1167 q 895 1021 971 1053 q 785 997 819 989 q 763 1019 771 1000 q 751 1062 754 1039 q 742 1102 749 1085 q 722 1118 735 1119 q 674 1075 697 1115 q 644 993 651 1035 q 590 1026 611 990 q 574 1097 569 1061 z "},"ũ":{"ha":850,"x_min":-35,"x_max":900,"o":"m 99 29 q 13 73 46 36 q -27 165 -19 110 q -24 285 -35 221 q 24 416 -12 349 q 114 539 60 483 q 190 498 150 531 q 243 438 229 465 q 129 307 172 368 q 77 197 86 246 q 107 126 68 149 q 244 171 160 97 q 408 396 329 244 q 465 493 428 442 q 540 459 499 483 q 593 413 582 435 q 573 370 585 396 q 555 331 561 344 q 540 297 549 317 q 528 266 532 276 q 519 240 524 256 q 514 216 514 225 q 513 195 514 207 q 516 176 513 183 q 525 159 519 168 q 539 142 531 150 q 682 163 585 99 q 856 375 779 228 l 900 347 q 842 243 876 294 q 762 140 808 192 q 653 58 715 89 q 528 29 592 28 q 408 94 449 32 q 372 250 367 157 q 247 82 313 144 q 99 29 182 19 m 175 728 q 284 803 240 786 q 348 805 328 819 q 381 767 368 790 q 409 728 393 744 q 447 719 425 711 q 522 799 503 740 q 603 808 567 818 q 635 753 640 797 q 497 651 572 683 q 386 628 421 619 q 364 650 372 631 q 353 692 356 669 q 343 733 350 715 q 324 749 336 750 q 276 706 299 746 q 246 624 253 665 q 192 656 213 621 q 175 728 171 692 z "},"Ū":{"ha":1229,"x_min":-71,"x_max":1278,"o":"m -12 -22 q -66 54 -61 7 q -41 160 -71 101 q 36 288 -11 219 q 140 438 83 357 q 243 601 196 519 q 319 778 290 682 q 342 960 347 874 q 506 929 460 971 q 477 796 506 868 q 406 658 449 724 q 313 526 363 593 q 221 401 263 460 q 153 290 179 342 q 131 194 126 238 q 178 125 136 151 q 390 213 238 86 q 683 483 450 261 q 704 503 694 493 q 1058 968 824 758 q 1151 882 1108 954 q 956 716 1040 811 q 829 529 871 621 q 772 353 788 438 q 771 208 756 269 q 826 125 786 147 q 1033 154 906 76 q 1235 372 1161 232 l 1278 343 q 1169 178 1235 251 q 1035 65 1104 106 q 896 2 965 24 q 769 -16 826 -19 q 675 13 711 -12 q 621 151 625 46 q 665 404 617 257 q 553 290 604 340 q 442 185 501 239 q 335 92 383 131 q 235 22 286 54 q 141 -25 183 -10 q 58 -41 99 -40 q -12 -22 18 -42 m 557 1028 q 592 1094 563 1054 q 938 1093 819 1071 q 940 1042 947 1072 q 918 986 933 1011 q 768 981 851 969 q 638 1003 685 992 q 557 1028 592 1014 z "},"ū":{"ha":850,"x_min":-35,"x_max":900,"o":"m 99 29 q 13 73 46 36 q -27 165 -19 110 q -24 285 -35 221 q 24 416 -12 349 q 114 539 60 483 q 190 498 150 531 q 243 438 229 465 q 129 307 172 368 q 77 197 86 246 q 107 126 68 149 q 244 171 160 97 q 408 396 329 244 q 465 493 428 442 q 540 459 499 483 q 593 413 582 435 q 573 370 585 396 q 555 331 561 344 q 540 297 549 317 q 528 266 532 276 q 519 240 524 256 q 514 216 514 225 q 513 195 514 207 q 516 176 513 183 q 525 159 519 168 q 539 142 531 150 q 682 163 585 99 q 856 375 779 228 l 900 347 q 842 243 876 294 q 762 140 808 192 q 653 58 715 89 q 528 29 592 28 q 408 94 449 32 q 372 250 367 157 q 247 82 313 144 q 99 29 182 19 m 158 658 q 193 725 164 685 q 539 724 421 701 q 542 672 549 703 q 519 617 535 642 q 369 611 453 600 q 240 633 286 622 q 158 658 193 644 z "},"Ŭ":{"ha":1229,"x_min":-71,"x_max":1278,"o":"m -12 -22 q -66 54 -61 7 q -41 160 -71 101 q 36 288 -11 219 q 140 438 83 357 q 243 601 196 519 q 319 778 290 682 q 342 960 347 874 q 506 929 460 971 q 477 796 506 868 q 406 658 449 724 q 313 526 363 593 q 221 401 263 460 q 153 290 179 342 q 131 194 126 238 q 178 125 136 151 q 390 213 238 86 q 683 483 450 261 q 704 503 694 493 q 1058 968 824 758 q 1151 882 1108 954 q 956 716 1040 811 q 829 529 871 621 q 772 353 788 438 q 771 208 756 269 q 826 125 786 147 q 1033 154 906 76 q 1235 372 1161 232 l 1278 343 q 1169 178 1235 251 q 1035 65 1104 106 q 896 2 965 24 q 769 -16 826 -19 q 675 13 711 -12 q 621 151 625 46 q 665 404 617 257 q 553 290 604 340 q 442 185 501 239 q 335 92 383 131 q 235 22 286 54 q 141 -25 183 -10 q 58 -41 99 -40 q -12 -22 18 -42 m 563 1121 q 634 1164 596 1151 q 697 1172 672 1176 q 724 1153 721 1167 q 751 1047 719 1081 q 834 1038 783 1014 q 926 1143 885 1063 q 972 1157 950 1156 q 1004 1151 993 1158 q 1013 1135 1015 1144 q 861 994 960 1038 q 674 985 763 951 q 563 1121 585 1018 z "},"ŭ":{"ha":850,"x_min":-35,"x_max":900,"o":"m 99 29 q 13 73 46 36 q -27 165 -19 110 q -24 285 -35 221 q 24 416 -12 349 q 114 539 60 483 q 190 498 150 531 q 243 438 229 465 q 129 307 172 368 q 77 197 86 246 q 107 126 68 149 q 244 171 160 97 q 408 396 329 244 q 465 493 428 442 q 540 459 499 483 q 593 413 582 435 q 573 370 585 396 q 555 331 561 344 q 540 297 549 317 q 528 266 532 276 q 519 240 524 256 q 514 216 514 225 q 513 195 514 207 q 516 176 513 183 q 525 159 519 168 q 539 142 531 150 q 682 163 585 99 q 856 375 779 228 l 900 347 q 842 243 876 294 q 762 140 808 192 q 653 58 715 89 q 528 29 592 28 q 408 94 449 32 q 372 250 367 157 q 247 82 313 144 q 99 29 182 19 m 164 751 q 235 794 197 782 q 298 802 274 807 q 325 783 322 797 q 353 678 321 711 q 435 669 385 644 q 528 774 486 693 q 573 788 551 786 q 606 782 594 789 q 614 765 617 775 q 463 625 561 668 q 275 615 364 582 q 164 751 186 649 z "},"Ů":{"ha":1229,"x_min":-71,"x_max":1278,"o":"m -12 -22 q -66 54 -61 7 q -41 160 -71 101 q 36 288 -11 219 q 140 438 83 357 q 243 601 196 519 q 319 778 290 682 q 342 960 347 874 q 506 929 460 971 q 477 796 506 868 q 406 658 449 724 q 313 526 363 593 q 221 401 263 460 q 153 290 179 342 q 131 194 126 238 q 178 125 136 151 q 390 213 238 86 q 683 483 450 261 q 704 503 694 493 q 1058 968 824 758 q 1151 882 1108 954 q 956 716 1040 811 q 829 529 871 621 q 772 353 788 438 q 771 208 756 269 q 826 125 786 147 q 1033 154 906 76 q 1235 372 1161 232 l 1278 343 q 1169 178 1235 251 q 1035 65 1104 106 q 896 2 965 24 q 769 -16 826 -19 q 675 13 711 -12 q 621 151 625 46 q 665 404 617 257 q 553 290 604 340 q 442 185 501 239 q 335 92 383 131 q 235 22 286 54 q 141 -25 183 -10 q 58 -41 99 -40 q -12 -22 18 -42 m 776 989 q 615 1018 638 961 q 671 1131 597 1065 q 892 1236 754 1206 q 1051 1210 1025 1265 q 1007 1099 1072 1163 q 776 989 924 1018 m 789 1025 q 889 1088 833 1029 q 919 1178 947 1150 q 850 1190 903 1194 q 738 1121 774 1183 q 736 1040 708 1071 q 789 1025 753 1022 z "},"ů":{"ha":850,"x_min":-35,"x_max":900,"o":"m 99 29 q 13 73 46 36 q -27 165 -19 110 q -24 285 -35 221 q 24 416 -12 349 q 114 539 60 483 q 190 498 150 531 q 243 438 229 465 q 129 307 172 368 q 77 197 86 246 q 107 126 68 149 q 244 171 160 97 q 408 396 329 244 q 465 493 428 442 q 540 459 499 483 q 593 413 582 435 q 573 370 585 396 q 555 331 561 344 q 540 297 549 317 q 528 266 532 276 q 519 240 524 256 q 514 216 514 225 q 513 195 514 207 q 516 176 513 183 q 525 159 519 168 q 539 142 531 150 q 682 163 585 99 q 856 375 779 228 l 900 347 q 842 243 876 294 q 762 140 808 192 q 653 58 715 89 q 528 29 592 28 q 408 94 449 32 q 372 250 367 157 q 247 82 313 144 q 99 29 182 19 m 378 619 q 217 649 239 592 q 272 761 199 696 q 493 867 356 836 q 653 840 626 896 q 608 729 674 793 q 378 619 525 649 m 390 656 q 490 718 435 660 q 521 808 549 781 q 451 821 504 825 q 339 751 375 814 q 338 671 310 701 q 390 656 354 653 z "},"Ű":{"ha":1229,"x_min":-71,"x_max":1278,"o":"m -12 -22 q -66 54 -61 7 q -41 160 -71 101 q 36 288 -11 219 q 140 438 83 357 q 243 601 196 519 q 319 778 290 682 q 342 960 347 874 q 506 929 460 971 q 477 796 506 868 q 406 658 449 724 q 313 526 363 593 q 221 401 263 460 q 153 290 179 342 q 131 194 126 238 q 178 125 136 151 q 390 213 238 86 q 683 483 450 261 q 704 503 694 493 q 1058 968 824 758 q 1151 882 1108 954 q 956 716 1040 811 q 829 529 871 621 q 772 353 788 438 q 771 208 756 269 q 826 125 786 147 q 1033 154 906 76 q 1235 372 1161 232 l 1278 343 q 1169 178 1235 251 q 1035 65 1104 106 q 896 2 965 24 q 769 -16 826 -19 q 675 13 711 -12 q 621 151 625 46 q 665 404 617 257 q 553 290 604 340 q 442 185 501 239 q 335 92 383 131 q 235 22 286 54 q 141 -25 183 -10 q 58 -41 99 -40 q -12 -22 18 -42 m 574 985 q 581 1033 565 999 q 840 1267 756 1144 q 894 1225 879 1268 q 890 1124 908 1182 q 1026 1267 961 1178 q 1079 1229 1064 1268 q 1081 1136 1094 1190 q 760 985 975 1032 q 779 1057 749 1007 q 574 985 685 1008 z "},"ű":{"ha":850,"x_min":-35,"x_max":900,"o":"m 99 29 q 13 73 46 36 q -27 165 -19 110 q -24 285 -35 221 q 24 416 -12 349 q 114 539 60 483 q 190 498 150 531 q 243 438 229 465 q 129 307 172 368 q 77 197 86 246 q 107 126 68 149 q 244 171 160 97 q 408 396 329 244 q 465 493 428 442 q 540 459 499 483 q 593 413 582 435 q 573 370 585 396 q 555 331 561 344 q 540 297 549 317 q 528 266 532 276 q 519 240 524 256 q 514 216 514 225 q 513 195 514 207 q 516 176 513 183 q 525 159 519 168 q 539 142 531 150 q 682 163 585 99 q 856 375 779 228 l 900 347 q 842 243 876 294 q 762 140 808 192 q 653 58 715 89 q 528 29 592 28 q 408 94 449 32 q 372 250 367 157 q 247 82 313 144 q 99 29 182 19 m 175 615 q 182 664 167 629 q 442 897 357 775 q 495 856 481 899 q 492 754 510 813 q 628 897 563 808 q 681 860 665 899 q 682 767 696 821 q 361 615 576 663 q 381 688 350 638 q 175 615 286 639 z "},"Ų":{"ha":1229,"x_min":-71,"x_max":1278,"o":"m -12 -22 q -66 54 -61 7 q -41 160 -71 101 q 36 288 -11 219 q 140 438 83 357 q 243 601 196 519 q 319 778 290 682 q 342 960 347 874 q 506 929 460 971 q 477 796 506 868 q 406 658 449 724 q 313 526 363 593 q 221 401 263 460 q 153 290 179 342 q 131 194 126 238 q 178 125 136 151 q 390 213 238 86 q 683 483 450 261 q 704 503 694 493 q 1058 968 824 758 q 1151 882 1108 954 q 956 716 1040 811 q 829 529 871 621 q 772 353 788 438 q 771 208 756 269 q 826 125 786 147 q 1033 154 906 76 q 1235 372 1161 232 l 1278 343 q 1081 97 1206 188 q 832 -12 956 6 q 658 -142 707 -67 q 640 -258 608 -218 q 764 -278 685 -310 q 767 -293 771 -282 q 611 -377 688 -364 q 496 -343 535 -390 q 476 -293 478 -322 q 490 -228 474 -264 q 540 -157 507 -193 q 633 -83 574 -121 q 768 -15 692 -46 q 675 13 711 -11 q 621 151 625 46 q 665 404 617 257 q 553 290 604 340 q 442 185 501 239 q 335 92 383 131 q 235 22 286 54 q 141 -25 183 -10 q 58 -41 99 -40 q -12 -22 18 -42 z "},"ų":{"ha":850,"x_min":-35,"x_max":900,"o":"m 99 29 q 13 73 46 36 q -27 165 -19 110 q -24 285 -35 221 q 24 416 -12 349 q 114 539 60 483 q 190 498 150 531 q 243 438 229 465 q 129 307 172 368 q 77 197 86 246 q 107 126 68 149 q 244 171 160 97 q 408 396 329 244 q 465 493 428 442 q 540 459 499 483 q 593 413 582 435 q 573 370 585 396 q 555 331 561 344 q 540 297 549 317 q 528 266 532 276 q 519 240 524 256 q 514 216 514 225 q 513 195 514 207 q 516 176 513 183 q 525 159 519 168 q 539 142 531 150 q 682 163 585 99 q 856 375 779 228 l 900 347 q 763 141 850 236 q 565 31 675 46 q 399 -98 446 -24 q 383 -211 351 -172 q 507 -231 428 -262 q 510 -246 514 -235 q 354 -330 431 -317 q 239 -296 278 -343 q 219 -246 221 -275 q 233 -182 217 -217 q 282 -111 249 -147 q 373 -37 315 -75 q 507 31 431 0 q 402 103 438 42 q 372 250 367 164 q 247 82 313 144 q 99 29 182 19 z "},"Ŵ":{"ha":1553,"x_min":46,"x_max":1881,"o":"m 54 -78 q 169 197 118 38 q 246 500 221 356 q 270 762 271 644 q 238 917 269 879 q 329 995 275 960 q 440 1038 383 1031 q 477 901 488 1015 q 421 630 467 786 q 299 293 375 474 q 139 -40 224 113 q 399 176 278 51 q 606 432 519 300 q 754 690 693 564 q 854 938 815 815 q 992 889 951 956 q 1027 836 1017 868 q 1033 761 1038 804 q 1017 669 1029 718 q 981 560 1006 621 q 928 442 956 500 q 863 312 901 383 q 790 178 824 240 q 713 39 756 117 q 668 -40 683 -14 q 1288 505 985 167 q 1667 1076 1590 843 q 1801 1053 1736 1088 q 1881 967 1867 1018 q 1563 596 1781 817 q 1077 162 1344 375 q 607 -153 810 -51 q 572 -99 579 -133 l 614 -75 q 581 -78 592 -78 q 760 292 678 88 q 868 643 842 496 q 707 419 785 521 q 528 204 629 318 q 312 -1 426 90 q 79 -153 197 -93 q 46 -99 51 -133 l 88 -74 q 54 -78 71 -78 m 857 1049 q 1043 1224 971 1126 q 1117 1197 1103 1214 q 1143 1129 1119 1163 q 1232 1038 1167 1096 q 1167 972 1204 989 q 1081 1143 1136 1044 q 897 972 1033 1093 q 857 1049 863 1007 z "},"ŵ":{"ha":1075,"x_min":-28,"x_max":1125,"o":"m 89 -3 q -28 44 4 7 q 15 265 10 135 q -6 478 21 396 q 158 456 106 506 q 160 313 167 410 q 131 125 153 217 q 201 179 153 143 q 290 248 250 215 q 365 315 331 281 q 357 447 372 390 q 519 424 469 472 q 467 133 532 331 q 540 190 488 150 q 635 265 593 229 q 714 338 678 300 q 675 442 661 368 q 815 593 735 568 q 897 568 874 611 q 886 460 919 526 q 814 357 860 410 q 903 328 856 338 q 1001 330 950 319 q 1079 376 1051 340 l 1125 347 q 968 273 1086 281 q 768 308 850 265 q 605 166 721 263 q 438 17 489 69 l 438 51 q 427 25 435 43 q 415 -3 419 7 q 297 44 329 7 q 353 229 335 136 q 292 178 333 213 q 226 122 250 143 q 169 72 201 101 q 111 18 136 43 l 111 58 q 89 -3 97 17 m 289 644 q 475 819 403 722 q 549 793 535 810 q 575 725 551 758 q 664 633 599 692 q 599 568 636 585 q 513 739 568 640 q 329 568 465 689 q 289 644 294 603 z "},"Ŷ":{"ha":964,"x_min":-71,"x_max":1099,"o":"m -11 -22 q -65 54 -60 7 q -41 160 -71 101 q 36 288 -11 219 q 140 438 83 357 q 242 601 196 519 q 317 778 289 682 q 340 960 346 874 q 506 929 458 971 q 477 796 506 868 q 406 658 449 724 q 313 526 363 593 q 221 401 263 460 q 153 290 179 342 q 131 194 126 238 q 178 125 136 151 q 324 161 229 92 q 603 407 419 231 q 938 876 776 725 q 1099 786 1035 868 q 669 260 921 644 q 308 -440 417 -125 q 268 -367 268 -406 q 532 268 394 -11 q 210 7 347 89 q -11 -22 74 -75 m 563 1049 q 749 1224 676 1126 q 822 1197 808 1214 q 849 1129 825 1163 q 938 1038 872 1096 q 872 972 910 989 q 786 1143 842 1044 q 603 972 739 1093 q 563 1049 568 1007 z "},"ŷ":{"ha":850,"x_min":-236,"x_max":900,"o":"m 143 -261 q -22 -307 56 -303 q -142 -290 -99 -311 q -199 -232 -185 -268 q -159 -80 -236 -136 q 61 -26 -82 -24 q 276 -7 175 -26 q 372 242 369 150 l 372 247 q 100 29 242 11 q 1 94 35 39 q -30 222 -32 149 q 10 383 -28 296 q 115 539 47 471 q 192 499 153 531 q 246 438 232 467 q 132 306 175 368 q 81 197 89 244 q 110 126 72 149 q 243 167 161 97 q 400 381 325 238 q 464 493 424 440 q 539 459 497 483 q 592 413 581 435 q 536 290 542 304 q 408 22 483 151 q 583 85 494 47 q 732 194 661 117 q 856 375 803 272 l 900 347 q 806 194 865 271 q 674 69 746 118 q 365 -46 549 -10 q 143 -261 258 -207 m -75 -207 q 10 -240 -49 -243 q 124 -194 69 -236 q 240 -64 183 -147 q 44 -75 142 -75 q -57 -96 -19 -75 q -96 -146 -94 -117 q -75 -207 -97 -175 m 179 653 q 365 828 293 731 q 439 801 425 818 q 465 733 442 767 q 554 642 489 700 q 489 576 526 593 q 403 747 458 649 q 219 576 356 697 q 179 653 185 611 z "}}}
